Tilt-Warp.ufo
<glyph name="exclam" format="2">
  <advance width="291"/>
  <unicode hex="0021"/>
  <outline>
    <contour>
      <point x="63" y="245" type="curve" name="ZMAQWIXW"/>
      <point x="117" y="245" name="ENDESCMT"/>
      <point x="174" y="245" name="IBRZSIGN"/>
      <point x="228" y="245" type="curve" name="MSSMBLFI"/>
      <point x="230" y="389" name="TAHJOMOJ"/>
      <point x="231" y="536" name="WPOTTLYO"/>
      <point x="233" y="680" type="curve" name="QMYXZSUH"/>
      <point x="175" y="680" name="PUQOFDJX"/>
      <point x="116" y="680" name="QCXQNAOT"/>
      <point x="58" y="680" type="curve" name="DTGRNHYI"/>
      <point x="60" y="536" name="HFPFKDRU"/>
      <point x="61" y="389" name="OJVPEFLX"/>
    </contour>
    <contour>
      <point x="146" y="-16" type="curve" name="VOAQCGHP"/>
      <point x="203" y="-16" name="CHKKYYZX"/>
      <point x="251" y="31" name="MOPRPRSA"/>
      <point x="251" y="88" type="curve" smooth="yes" name="XXVMSKKY"/>
      <point x="251" y="144" name="QFXZBQRW"/>
      <point x="203" y="191" name="JATGUPDP"/>
      <point x="146" y="191" type="curve" smooth="yes" name="NIJXRUPB"/>
      <point x="87" y="191" name="BBCSSGEV"/>
      <point x="40" y="144" name="AJKFNGBS"/>
      <point x="40" y="88" type="curve" smooth="yes" name="ONCJEIIF"/>
      <point x="40" y="31" name="JHXPHWQM"/>
      <point x="87" y="-16" name="PFNPFZDM"/>
      <point x="146" y="-16" type="curve" name="YPPMPCSE"/>
      <point x="146" y="-16" name="WVCCMTQM"/>
      <point x="146" y="-16" name="PTYXDQQJ"/>
    </contour>
  </outline>
</glyph>
<glyph name="quotedbl" format="2">
  <advance width="518"/>
  <unicode hex="0022"/>
  <outline>
    <contour>
      <point x="78" y="398" type="curve" name="BRAWXETQ"/>
      <point x="125" y="398" name="IHEANHZC"/>
      <point x="172" y="398" name="LQONUVZZ"/>
      <point x="219" y="398" type="curve" name="RCVPUWHX"/>
      <point x="224" y="491" name="SVXRKGNS"/>
      <point x="228" y="587" name="DTRYZIOT"/>
      <point x="233" y="680" type="curve" name="VTNEMKKY"/>
      <point x="177" y="680" name="BUIWVREG"/>
      <point x="120" y="680" name="CZCCAUTX"/>
      <point x="64" y="680" type="curve" name="CSQMYDSS"/>
      <point x="69" y="587" name="SRJGCSXL"/>
      <point x="73" y="491" name="FOVJVYQE"/>
    </contour>
    <contour>
      <point x="299" y="398" type="curve" name="CMPQORHL"/>
      <point x="346" y="398" name="NYUWTDXN"/>
      <point x="393" y="398" name="VXLQFRZB"/>
      <point x="440" y="398" type="curve" name="AMRYWMNX"/>
      <point x="445" y="491" name="WQPDQAZD"/>
      <point x="449" y="587" name="NNFHGJOM"/>
      <point x="454" y="680" type="curve" name="BHBHOOVS"/>
      <point x="398" y="680" name="FVUEXRJN"/>
      <point x="341" y="680" name="DACDAUHB"/>
      <point x="285" y="680" type="curve" name="CRFIMTTH"/>
      <point x="290" y="587" name="ZGPBQCYE"/>
      <point x="294" y="491" name="TFZQOLSU"/>
    </contour>
  </outline>
</glyph>
<glyph name="numbersign" format="2">
  <advance width="700"/>
  <unicode hex="0023"/>
  <outline>
    <contour>
      <point x="45" y="146" type="curve" name="QSHBNDGK"/>
      <point x="77" y="146" name="YOVFMPZM"/>
      <point x="111" y="146" name="BEIJPJQY"/>
      <point x="143" y="146" type="curve" name="BAMPIMNC"/>
      <point x="139" y="98" name="AOZVSLKB"/>
      <point x="135" y="48" name="GWAQUXKB"/>
      <point x="131" y="0" type="curve" name="FSSBDUGY"/>
      <point x="179" y="0" name="QJRULSWJ"/>
      <point x="228" y="0" name="XVCMEYGB"/>
      <point x="276" y="0" type="curve" name="OKAOICRP"/>
      <point x="280" y="48" name="FEISZNRW"/>
      <point x="284" y="98" name="FEBWEKEY"/>
      <point x="288" y="146" type="curve" name="XBRPVEIL"/>
      <point x="319" y="146" name="WZMDLISI"/>
      <point x="351" y="146" name="XIBOODXB"/>
      <point x="382" y="146" type="curve" name="ARAZYBAH"/>
      <point x="378" y="98" name="HEZLPPCC"/>
      <point x="374" y="48" name="VSDVUYAF"/>
      <point x="370" y="0" type="curve" name="KDIVZYCM"/>
      <point x="418" y="0" name="CRRPPUDR"/>
      <point x="467" y="0" name="MMUGGMAZ"/>
      <point x="515" y="0" type="curve" name="IIHCTERY"/>
      <point x="519" y="48" name="NBVLDDIF"/>
      <point x="523" y="98" name="VJYWLMOF"/>
      <point x="527" y="146" type="curve" name="QLTSMUYS"/>
      <point x="569" y="146" name="EKUEJCDN"/>
      <point x="613" y="146" name="VRARDCRP"/>
      <point x="655" y="146" type="curve" name="NCXJDHPD"/>
      <point x="655" y="194" name="JXWVTKED"/>
      <point x="655" y="243" name="QKMRIBCA"/>
      <point x="655" y="291" type="curve" name="PSWGBHIO"/>
      <point x="616" y="291" name="NNVDKGXB"/>
      <point x="577" y="291" name="ALJIPBKM"/>
      <point x="538" y="291" type="curve" name="BCYUCGDL"/>
      <point x="541" y="323" name="JKBFPCZI"/>
      <point x="543" y="357" name="ETTKOCUE"/>
      <point x="546" y="389" type="curve" name="CABNBIYD"/>
      <point x="582" y="389" name="EMHFIKYA"/>
      <point x="619" y="389" name="WNGGBLIA"/>
      <point x="655" y="389" type="curve" name="GVTGUTOA"/>
      <point x="655" y="437" name="TIUNJWNR"/>
      <point x="655" y="486" name="NPGADFUN"/>
      <point x="655" y="534" type="curve" name="ZLPRWYBX"/>
      <point x="623" y="534" name="RSSDRAHT"/>
      <point x="589" y="534" name="SCHVKZCO"/>
      <point x="557" y="534" type="curve" name="YZPAAVNN"/>
      <point x="561" y="582" name="FCXJBJSM"/>
      <point x="565" y="632" name="BGHBTDVT"/>
      <point x="569" y="680" type="curve" name="GIFDHPNJ"/>
      <point x="521" y="680" name="GTSESGOG"/>
      <point x="472" y="680" name="FNPXKSFP"/>
      <point x="424" y="680" type="curve" name="UVPLIFHU"/>
      <point x="420" y="632" name="OQAZXYWH"/>
      <point x="416" y="582" name="PWJYFROD"/>
      <point x="412" y="534" type="curve" name="UEXOSWDN"/>
      <point x="381" y="534" name="XKOPFLSY"/>
      <point x="349" y="534" name="RBFPWFYW"/>
      <point x="318" y="534" type="curve" name="LSGMNKHW"/>
      <point x="322" y="582" name="WDLLWTWH"/>
      <point x="326" y="632" name="PUYTJYTM"/>
      <point x="330" y="680" type="curve" name="RUILSIWS"/>
      <point x="282" y="680" name="NNOJBLSO"/>
      <point x="233" y="680" name="UULFKJVV"/>
      <point x="185" y="680" type="curve" name="QOHRPEME"/>
      <point x="181" y="632" name="BJKQYMEW"/>
      <point x="177" y="582" name="PUUCBXQF"/>
      <point x="173" y="534" type="curve" name="VDMSTCVE"/>
      <point x="131" y="534" name="KTFNCPCP"/>
      <point x="87" y="534" name="FEGQVVNY"/>
      <point x="45" y="534" type="curve" name="YMEVCIUE"/>
      <point x="45" y="486" name="RLFCYHMA"/>
      <point x="45" y="437" name="MAHUXBIV"/>
      <point x="45" y="389" type="curve" name="OVNOQLDH"/>
      <point x="84" y="389" name="SZAPPUOM"/>
      <point x="123" y="389" name="KZTZUFDN"/>
      <point x="162" y="389" type="curve" name="QQTHNXIJ"/>
      <point x="159" y="357" name="ARYJSFBG"/>
      <point x="157" y="323" name="PGYOBIMG"/>
      <point x="154" y="291" type="curve" name="LSPNKJQJ"/>
      <point x="118" y="291" name="JUQYYXGY"/>
      <point x="81" y="291" name="WRHSIMXK"/>
      <point x="45" y="291" type="curve" name="HXLUNAZB"/>
      <point x="45" y="243" name="MJGMSHHT"/>
      <point x="45" y="194" name="UMECULGR"/>
    </contour>
    <contour>
      <point x="299" y="291" type="curve" name="HVUPVIBW"/>
      <point x="302" y="323" name="FSRELARR"/>
      <point x="304" y="357" name="HFUFKUJR"/>
      <point x="307" y="389" type="curve" name="BPJNQRBK"/>
      <point x="338" y="389" name="SIQDUSLJ"/>
      <point x="370" y="389" name="BARNNWWO"/>
      <point x="401" y="389" type="curve" name="JTSNWTJY"/>
      <point x="398" y="357" name="JXCICZJA"/>
      <point x="396" y="323" name="IBYKQTSM"/>
      <point x="393" y="291" type="curve" name="RKJKVSXF"/>
      <point x="362" y="291" name="VKLVERCG"/>
      <point x="330" y="291" name="LOMUNDGJ"/>
    </contour>
  </outline>
</glyph>
<glyph name="dollar" format="2">
  <advance width="500"/>
  <unicode hex="0024"/>
  <outline>
    <contour>
      <point x="153" y="-100" type="curve" name="KHLTMGJB"/>
      <point x="202" y="-100" name="PIRTVYKS"/>
      <point x="253" y="-100" name="VAYWNCSC"/>
      <point x="302" y="-100" type="curve" name="DUXZSWSK"/>
      <point x="305" y="-58" name="OZJJHFTF"/>
      <point x="307" y="-16" name="DRMNVRFQ"/>
      <point x="310" y="26" type="curve" name="ZJJCRWSC"/>
      <point x="410" y="46" name="YDHDLXAO"/>
      <point x="481" y="105" name="HIPNGXPY"/>
      <point x="481" y="210" type="curve" smooth="yes" name="JOVQNSYA"/>
      <point x="481" y="422" name="ZHXOQMGC"/>
      <point x="217" y="399" name="RJEEBTSQ"/>
      <point x="217" y="468" type="curve" smooth="yes" name="BWMXNLVK"/>
      <point x="217" y="516" name="LZNLAAWG"/>
      <point x="322" y="524" name="UTGYEOAL"/>
      <point x="449" y="467" type="curve" name="GUGDSMUF"/>
      <point x="449" y="522" name="YUFWCBPK"/>
      <point x="449" y="579" name="ASDRQHOH"/>
      <point x="449" y="634" type="curve" name="NPLFIFKQ"/>
      <point x="416" y="644" name="TFDEEKON"/>
      <point x="383" y="651" name="JEMCQVAL"/>
      <point x="351" y="655" type="curve" name="ICATSERV"/>
      <point x="354" y="693" name="LYMCVLHH"/>
      <point x="356" y="732" name="AFMNVUPL"/>
      <point x="359" y="770" type="curve" name="AGXBTGFI"/>
      <point x="310" y="770" name="XXKGCPMY"/>
      <point x="259" y="770" name="CYCGAGAV"/>
      <point x="210" y="770" type="curve" name="KJLAPQHN"/>
      <point x="207" y="729" name="AVQXNNPZ"/>
      <point x="205" y="688" name="CGKIOJWA"/>
      <point x="202" y="647" type="curve" name="YYXXYXQY"/>
      <point x="106" y="623" name="BJOALLAO"/>
      <point x="40" y="560" name="WYRTFZIK"/>
      <point x="40" y="465" type="curve" smooth="yes" name="IGQCPHAJ"/>
      <point x="40" y="260" name="HOKUYNGQ"/>
      <point x="305" y="281" name="DGGTWGVN"/>
      <point x="305" y="211" type="curve" smooth="yes" name="MOAEGNAF"/>
      <point x="305" y="157" name="CIMFDXLE"/>
      <point x="184" y="156" name="XRIDLNXT"/>
      <point x="50" y="209" type="curve" name="EAXBRZQA"/>
      <point x="50" y="154" name="WLKRMGVP"/>
      <point x="50" y="97" name="BHNVIOSW"/>
      <point x="50" y="42" type="curve" name="WJQGDVWX"/>
      <point x="87" y="32" name="ZJZWCOCK"/>
      <point x="125" y="24" name="PVTDGVTA"/>
      <point x="161" y="21" type="curve" name="VBZNNDDU"/>
      <point x="158" y="-19" name="BWJCKHNQ"/>
      <point x="156" y="-60" name="HCJTHDND"/>
    </contour>
  </outline>
</glyph>
<glyph name="percent" format="2">
  <advance width="1023"/>
  <unicode hex="0025"/>
  <outline>
    <contour>
      <point x="239" y="260" type="curve" name="ODEZRPYM"/>
      <point x="360" y="260" name="GXSJKHQY"/>
      <point x="443" y="354" name="THAFYUIW"/>
      <point x="443" y="478" type="curve" smooth="yes" name="DUQVBBNM"/>
      <point x="443" y="601" name="IZKDWQEO"/>
      <point x="360" y="694" name="AYFDDNSM"/>
      <point x="239" y="694" type="curve" smooth="yes" name="EOCAKEHY"/>
      <point x="118" y="694" name="BTVMVHPM"/>
      <point x="35" y="601" name="TOCUQTDQ"/>
      <point x="35" y="478" type="curve" smooth="yes" name="UOPZMRUE"/>
      <point x="35" y="354" name="AGADNCYM"/>
      <point x="118" y="260" name="LMOAGFDN"/>
      <point x="239" y="260" type="curve" name="NEGEVGBO"/>
      <point x="239" y="260" name="NUYALHIW"/>
      <point x="239" y="260" name="QFPNKZTK"/>
    </contour>
    <contour>
      <point x="242" y="0" type="curve" name="PBSVJATX"/>
      <point x="289" y="0" name="IDTJSFCY"/>
      <point x="337" y="0" name="NFFVYXKN"/>
      <point x="384" y="0" type="curve" name="JDWFHOFB"/>
      <point x="515" y="224" name="YRUEDCMW"/>
      <point x="649" y="456" name="UADLVFYY"/>
      <point x="780" y="680" type="curve" name="CKCWVDKJ"/>
      <point x="733" y="680" name="BMCYJTUR"/>
      <point x="685" y="680" name="CBEZMPKW"/>
      <point x="638" y="680" type="curve" name="OFLWMSBR"/>
      <point x="507" y="456" name="OPWQDTIC"/>
      <point x="373" y="224" name="TAPFQKKJ"/>
    </contour>
    <contour>
      <point x="239" y="391" type="curve" name="YEBCKDJJ"/>
      <point x="195" y="391" name="IVWMLDOY"/>
      <point x="170" y="425" name="BLDOGXIH"/>
      <point x="170" y="478" type="curve" smooth="yes" name="WATACVLF"/>
      <point x="170" y="531" name="LEFWVALE"/>
      <point x="195" y="564" name="YCUFSAEB"/>
      <point x="239" y="564" type="curve" smooth="yes" name="YBYEDOWN"/>
      <point x="283" y="564" name="MITFRWRT"/>
      <point x="310" y="531" name="VKQEACIU"/>
      <point x="310" y="478" type="curve" smooth="yes" name="OCRKKIZK"/>
      <point x="310" y="425" name="CJGTPRMG"/>
      <point x="283" y="391" name="EYIVCHYN"/>
      <point x="239" y="391" type="curve" name="DCTPUHVN"/>
      <point x="239" y="391" name="JYFXUJOM"/>
      <point x="239" y="391" name="NCFDZHPO"/>
    </contour>
    <contour>
      <point x="784" y="-14" type="curve" name="VYUCDSSR"/>
      <point x="905" y="-14" name="HBKLRHTY"/>
      <point x="988" y="80" name="FPTLHBFY"/>
      <point x="988" y="204" type="curve" smooth="yes" name="NEBQZEJU"/>
      <point x="988" y="327" name="XHOIEWUJ"/>
      <point x="905" y="420" name="QSXTDIPO"/>
      <point x="784" y="420" type="curve" smooth="yes" name="YBYJBUPV"/>
      <point x="663" y="420" name="XBJKWSYO"/>
      <point x="580" y="327" name="XFXDVGJY"/>
      <point x="580" y="204" type="curve" smooth="yes" name="ZOZVBVAX"/>
      <point x="580" y="80" name="JNVXYFGT"/>
      <point x="663" y="-14" name="GOVFRRXY"/>
      <point x="784" y="-14" type="curve" name="XWCLZMTK"/>
      <point x="784" y="-14" name="PGYWWPNS"/>
      <point x="784" y="-14" name="YTPTFVZM"/>
    </contour>
    <contour>
      <point x="784" y="117" type="curve" name="ZXJJWDYX"/>
      <point x="740" y="117" name="VJMKLGJW"/>
      <point x="715" y="151" name="ZDDEGLGX"/>
      <point x="715" y="204" type="curve" smooth="yes" name="WFNZQMMY"/>
      <point x="715" y="257" name="OIUDZFPK"/>
      <point x="740" y="290" name="SOCBKLJT"/>
      <point x="784" y="290" type="curve" smooth="yes" name="ZCXMDSRR"/>
      <point x="828" y="290" name="AUEKXZMS"/>
      <point x="855" y="257" name="PQZNHRUO"/>
      <point x="855" y="204" type="curve" smooth="yes" name="DUZRNUJC"/>
      <point x="855" y="151" name="OTUEDTVU"/>
      <point x="828" y="117" name="OFVJHMIQ"/>
      <point x="784" y="117" type="curve" name="IVBNGEYH"/>
      <point x="784" y="117" name="QYGCKMNB"/>
      <point x="784" y="117" name="CTDLKJXZ"/>
    </contour>
  </outline>
</glyph>
<glyph name="ampersand" format="2">
  <advance width="634"/>
  <unicode hex="0026"/>
  <outline>
    <contour>
      <point x="554" y="201" type="curve" name="OLYDLOLB"/>
      <point x="554" y="225" name="SEYTAIHH"/>
      <point x="554" y="249" name="HNPQLUMG"/>
      <point x="554" y="273" type="curve" name="LEVLHWLP"/>
      <point x="574" y="273" name="KLDPMPTF"/>
      <point x="596" y="273" name="UPXLESTW"/>
      <point x="616" y="273" type="curve" name="AGYZSCIP"/>
      <point x="616" y="322" name="LOOXQODW"/>
      <point x="616" y="372" name="FPVSLFOF"/>
      <point x="616" y="421" type="curve" name="OYVVUQSQ"/>
      <point x="596" y="421" name="KONDEUBP"/>
      <point x="574" y="421" name="TLBQPLIP"/>
      <point x="554" y="421" type="curve" name="ZFPSEZAV"/>
      <point x="554" y="445" name="NHDVZNJQ"/>
      <point x="554" y="470" name="IAGYZLPS"/>
      <point x="554" y="494" type="curve" name="WVTVBYSI"/>
      <point x="500" y="494" name="XWMXUONK"/>
      <point x="443" y="494" name="AXNWGHAB"/>
      <point x="389" y="494" type="curve" name="CRURPDLJ"/>
      <point x="389" y="470" name="KXUYYEOA"/>
      <point x="389" y="445" name="HNDRMFTL"/>
      <point x="389" y="421" type="curve" name="DSZGJMZO"/>
      <point x="290" y="421" name="UYHJWJRZ"/>
      <point x="231" y="434" name="PTSHXIEK"/>
      <point x="231" y="475" type="curve" smooth="yes" name="UNRQCLLR"/>
      <point x="231" y="538" name="FRAXTEEA"/>
      <point x="359" y="544" name="ZHJQPKOV"/>
      <point x="471" y="511" type="curve" name="VVGGBXZK"/>
      <point x="471" y="565" name="JQECYSPJ"/>
      <point x="471" y="620" name="RCKYHZQE"/>
      <point x="471" y="674" type="curve" name="OVKOGSBR"/>
      <point x="271" y="724" name="NZPRKJZR"/>
      <point x="59" y="669" name="XKGXKBHJ"/>
      <point x="59" y="492" type="curve" smooth="yes" name="FXSJDSWO"/>
      <point x="59" y="432" name="KNPKYCNG"/>
      <point x="81" y="381" name="PRAHBBIJ"/>
      <point x="131" y="344" type="curve" name="TBMZZMNJ"/>
      <point x="70" y="304" name="GGQDVSGK"/>
      <point x="40" y="247" name="MXDEEEHM"/>
      <point x="40" y="180" type="curve" smooth="yes" name="FWIOUPGG"/>
      <point x="40" y="57" name="XVQZLTHM"/>
      <point x="145" y="-17" name="VNGLSEZM"/>
      <point x="291" y="-17" type="curve" smooth="yes" name="ZPJKZYBQ"/>
      <point x="447" y="-17" name="LUOLIFWV"/>
      <point x="554" y="66" name="SJHKVWCM"/>
      <point x="554" y="201" type="curve" name="RLVSUPRB"/>
      <point x="554" y="201" name="GWMXPELA"/>
      <point x="554" y="201" name="OHYEVCZZ"/>
    </contour>
    <contour>
      <point x="215" y="205" type="curve" name="AEBEWIII"/>
      <point x="215" y="263" name="FJRLNJFZ"/>
      <point x="279" y="273" name="ESAHYGHQ"/>
      <point x="389" y="273" type="curve" name="SQWEQRYF"/>
      <point x="389" y="254" name="JLOWKAPI"/>
      <point x="389" y="234" name="KSCWBVGJ"/>
      <point x="389" y="215" type="curve" smooth="yes" name="BYVQCCKI"/>
      <point x="389" y="165" name="SRZOHAIX"/>
      <point x="353" y="137" name="KFXMBSOO"/>
      <point x="297" y="137" type="curve" smooth="yes" name="VKNTVOTK"/>
      <point x="245" y="137" name="SMYMZZXZ"/>
      <point x="215" y="166" name="EKVLGSTN"/>
      <point x="215" y="205" type="curve" name="FIIVXLHC"/>
      <point x="215" y="205" name="LGZUXSCN"/>
      <point x="215" y="205" name="XYAENUJU"/>
    </contour>
  </outline>
</glyph>
<glyph name="quotesingle" format="2">
  <advance width="297"/>
  <unicode hex="0027"/>
  <outline>
    <contour>
      <point x="78" y="398" type="curve" name="JGTRZAPL"/>
      <point x="125" y="398" name="HONEDBDD"/>
      <point x="172" y="398" name="AZTCUOZT"/>
      <point x="219" y="398" type="curve" name="QPBVZXCK"/>
      <point x="224" y="491" name="IQWPWNJX"/>
      <point x="228" y="587" name="SKIUGXAW"/>
      <point x="233" y="680" type="curve" name="UKBAWALT"/>
      <point x="177" y="680" name="PCPBNEXQ"/>
      <point x="120" y="680" name="CNPISUNK"/>
      <point x="64" y="680" type="curve" name="GZUKBZVK"/>
      <point x="69" y="587" name="SBGHDKGK"/>
      <point x="73" y="491" name="RXNEVKJO"/>
    </contour>
  </outline>
</glyph>
<glyph name="parenleft" format="2">
  <advance width="462"/>
  <unicode hex="0028"/>
  <outline>
    <contour>
      <point x="30" y="305" type="curve" name="VMFXUQZJ"/>
      <point x="30" y="-4" name="UWUEBLLE"/>
      <point x="222" y="-166" name="XQZJCYWS"/>
      <point x="431" y="-191" type="curve" name="RGLKUTYJ"/>
      <point x="431" y="-142" name="ECBZVVSO"/>
      <point x="431" y="-90" name="TYAJLQFP"/>
      <point x="431" y="-41" type="curve" name="PRRVVONE"/>
      <point x="292" y="-7" name="QAKZKTMX"/>
      <point x="198" y="88" name="JLMOUZMY"/>
      <point x="198" y="305" type="curve" smooth="yes" name="LHQHLSPC"/>
      <point x="198" y="522" name="QULCMSTI"/>
      <point x="292" y="617" name="RSYBTUGG"/>
      <point x="431" y="651" type="curve" name="ZJMHXBGB"/>
      <point x="431" y="700" name="YIWWYEQY"/>
      <point x="431" y="752" name="WXVEGDHL"/>
      <point x="431" y="801" type="curve" name="QUYSQMMM"/>
      <point x="222" y="776" name="MCKZPVFH"/>
      <point x="30" y="614" name="NABVQEGJ"/>
      <point x="30" y="305" type="curve" name="IYCPXMDS"/>
      <point x="30" y="305" name="KJJDORET"/>
      <point x="30" y="305" name="XOMFOSNH"/>
    </contour>
  </outline>
</glyph>
<glyph name="parenright" format="2">
  <advance width="462"/>
  <unicode hex="0029"/>
  <outline>
    <contour>
      <point x="431" y="306" type="curve" name="CFZXSOZO"/>
      <point x="431" y="615" name="NUGYHDQM"/>
      <point x="239" y="777" name="CGWCQPZJ"/>
      <point x="30" y="802" type="curve" name="TFVPONMG"/>
      <point x="30" y="752" name="LNWZSQJZ"/>
      <point x="30" y="702" name="FSGAARZB"/>
      <point x="30" y="652" type="curve" name="JZEJAAGD"/>
      <point x="169" y="618" name="RYDFHPYN"/>
      <point x="263" y="523" name="HEWTQGKQ"/>
      <point x="263" y="306" type="curve" smooth="yes" name="NXPAYOTK"/>
      <point x="263" y="89" name="ZCUXEGZV"/>
      <point x="169" y="-6" name="YRDFVQEU"/>
      <point x="30" y="-40" type="curve" name="YKZMZONH"/>
      <point x="30" y="-90" name="OLOFRWRF"/>
      <point x="30" y="-140" name="HSWRWBCG"/>
      <point x="30" y="-190" type="curve" name="TODXZAQP"/>
      <point x="239" y="-165" name="DXOMSVJK"/>
      <point x="431" y="-3" name="EXSVLKQH"/>
      <point x="431" y="306" type="curve" name="AABYDFWP"/>
      <point x="431" y="306" name="MDWEDGZA"/>
      <point x="431" y="306" name="LFUXIMDL"/>
    </contour>
  </outline>
</glyph>
<glyph name="asterisk" format="2">
  <advance width="614"/>
  <unicode hex="002A"/>
  <outline>
    <contour>
      <point x="357" y="205" type="curve" name="JUYLRINL"/>
      <point x="397" y="228" name="DDHUTAIF"/>
      <point x="439" y="253" name="CNQVYLFQ"/>
      <point x="479" y="276" type="curve" name="BUDHMPUT"/>
      <point x="459" y="311" name="ZKLBJCSH"/>
      <point x="437" y="348" name="METWDSYD"/>
      <point x="417" y="383" type="curve" name="LPOCFPHR"/>
      <point x="458" y="383" name="WLSVIHKD"/>
      <point x="500" y="383" name="NAVURQME"/>
      <point x="541" y="383" type="curve" name="UVXSKHTA"/>
      <point x="541" y="430" name="XOOGGAPP"/>
      <point x="541" y="478" name="SUHCURZF"/>
      <point x="541" y="525" type="curve" name="MVUZCFJO"/>
      <point x="500" y="525" name="KVKZMTFI"/>
      <point x="458" y="525" name="WFSQVBMB"/>
      <point x="417" y="525" type="curve" name="ASSVWPER"/>
      <point x="437" y="560" name="WOQAVBUD"/>
      <point x="459" y="597" name="HGRITNKD"/>
      <point x="479" y="632" type="curve" name="NQGJRHCT"/>
      <point x="439" y="655" name="UVKRQRQA"/>
      <point x="397" y="680" name="QHEGMIOR"/>
      <point x="357" y="703" type="curve" name="TAHSJRCG"/>
      <point x="337" y="667" name="VGNSXGQH"/>
      <point x="315" y="631" name="MBNDRTFF"/>
      <point x="295" y="595" type="curve" name="KPQQARFP"/>
      <point x="275" y="631" name="LBDYAHZK"/>
      <point x="253" y="667" name="WXUAZDDB"/>
      <point x="233" y="703" type="curve" name="HNYEWNOQ"/>
      <point x="193" y="680" name="UHFXEHUT"/>
      <point x="151" y="655" name="OAGHDNTV"/>
      <point x="111" y="632" type="curve" name="OKFFLZVB"/>
      <point x="131" y="597" name="BCWCHVIZ"/>
      <point x="153" y="560" name="BXRDTUYX"/>
      <point x="173" y="525" type="curve" name="UBNBJLLT"/>
      <point x="132" y="525" name="AEMTZIUM"/>
      <point x="90" y="525" name="QVCVCVCI"/>
      <point x="49" y="525" type="curve" name="JFIKZVSY"/>
      <point x="49" y="478" name="MAXXWLEJ"/>
      <point x="49" y="430" name="XONRVYHO"/>
      <point x="49" y="383" type="curve" name="ZVLTKNQR"/>
      <point x="90" y="383" name="BKXLVQEO"/>
      <point x="132" y="383" name="NHWEFMHT"/>
      <point x="173" y="383" type="curve" name="BQYWNUQQ"/>
      <point x="153" y="348" name="RDBXNFVF"/>
      <point x="131" y="311" name="YVFCMOKY"/>
      <point x="111" y="276" type="curve" name="LRRZYOAI"/>
      <point x="151" y="253" name="IRPXXXAD"/>
      <point x="193" y="228" name="MPLOXFXN"/>
      <point x="233" y="205" type="curve" name="ENPVCDUD"/>
      <point x="253" y="241" name="RZFQSTHI"/>
      <point x="275" y="277" name="KGGOEJEG"/>
      <point x="295" y="313" type="curve" name="BBUSZCCQ"/>
      <point x="315" y="277" name="XJHYPETX"/>
      <point x="337" y="241" name="MMRALEEO"/>
    </contour>
  </outline>
</glyph>
<glyph name="plus" format="2">
  <advance width="540"/>
  <unicode hex="002B"/>
  <outline>
    <contour>
      <point x="40" y="231" type="line"/>
      <point x="500" y="231" type="line"/>
      <point x="500" y="386" type="line"/>
      <point x="40" y="386" type="line"/>
    </contour>
    <contour>
      <point x="350.0" y="74.0" type="line"/>
      <point x="350.0" y="544.0" type="line"/>
      <point x="191.0" y="544.0" type="line"/>
      <point x="191.0" y="74.0" type="line"/>
    </contour>
  </outline>
</glyph>
<glyph name="comma" format="2">
  <advance width="297"/>
  <unicode hex="002C"/>
  <outline>
    <contour>
      <point x="28" y="-101" type="curve" name="WPMNRETJ"/>
      <point x="76" y="-101" name="UQRMTLXV"/>
      <point x="124" y="-101" name="BOKIADEX"/>
      <point x="172" y="-101" type="curve" name="ZQXWHILQ"/>
      <point x="196" y="-8" name="ELWHENXY"/>
      <point x="222" y="88" name="AFAXNOMY"/>
      <point x="246" y="181" type="curve" name="YCCNRZOT"/>
      <point x="190" y="181" name="WRWQIPVE"/>
      <point x="133" y="181" name="QMDWFXWP"/>
      <point x="77" y="181" type="curve" name="AZAETUBN"/>
      <point x="61" y="88" name="QJQTHNYJ"/>
      <point x="44" y="-8" name="GBCTBGII"/>
    </contour>
  </outline>
</glyph>
<glyph name="hyphen" format="2">
  <advance width="340"/>
  <unicode hex="002D"/>
  <outline>
    <contour>
      <point x="35" y="231" type="curve" name="RJKLKBOU"/>
      <point x="124" y="231" name="GEJSGJFC"/>
      <point x="216" y="231" name="CNZQCZFB"/>
      <point x="305" y="231" type="curve" name="KMBXQUUN"/>
      <point x="305" y="282" name="ZFINUYXN"/>
      <point x="305" y="335" name="BHINOBMH"/>
      <point x="305" y="386" type="curve" name="ZGEUODWB"/>
      <point x="216" y="386" name="ZZRWRQKW"/>
      <point x="124" y="386" name="LBIIDTUI"/>
      <point x="35" y="386" type="curve" name="OOMSGMPF"/>
      <point x="35" y="335" name="KRCXXAGZ"/>
      <point x="35" y="282" name="YVRQAGHL"/>
    </contour>
  </outline>
</glyph>
<glyph name="period" format="2">
  <advance width="291"/>
  <unicode hex="002E"/>
  <outline>
    <contour>
      <point x="146" y="-16" type="curve" name="HPDBMCYC"/>
      <point x="203" y="-16" name="FUDAENYK"/>
      <point x="251" y="31" name="ALETJSTM"/>
      <point x="251" y="88" type="curve" smooth="yes" name="FWPPLZNK"/>
      <point x="251" y="144" name="STBCOUBB"/>
      <point x="203" y="191" name="IFAZQYYU"/>
      <point x="146" y="191" type="curve" smooth="yes" name="GAPZUYKF"/>
      <point x="87" y="191" name="YGWJUBBU"/>
      <point x="40" y="144" name="ZCFJQCCK"/>
      <point x="40" y="88" type="curve" smooth="yes" name="PDXDJYTK"/>
      <point x="40" y="31" name="DINOKSWK"/>
      <point x="87" y="-16" name="VDMUFHVB"/>
      <point x="146" y="-16" type="curve" name="TWFHQTGS"/>
      <point x="146" y="-16" name="RKAKJCEB"/>
      <point x="146" y="-16" name="RIECIRXD"/>
    </contour>
  </outline>
</glyph>
<glyph name="slash" format="2">
  <advance width="490"/>
  <unicode hex="002F"/>
  <outline>
    <contour>
      <point x="5" y="-160" type="line"/>
      <point x="170" y="-160" type="line"/>
      <point x="470" y="770" type="line"/>
      <point x="305" y="770" type="line"/>
    </contour>
  </outline>
</glyph>
<glyph name="zero" format="2">
  <advance width="646"/>
  <unicode hex="0030"/>
  <outline>
    <contour>
      <point x="323" y="-14" type="curve" name="GBGMOYVW"/>
      <point x="499" y="-14" name="MUDYVPFI"/>
      <point x="621" y="137" name="OZKNTDGB"/>
      <point x="621" y="341" type="curve" smooth="yes" name="EIVGORBO"/>
      <point x="621" y="544" name="QKXSWOAE"/>
      <point x="499" y="694" name="HYOQWZWQ"/>
      <point x="323" y="694" type="curve" smooth="yes" name="LTRPRCJI"/>
      <point x="146" y="694" name="DYLONNHJ"/>
      <point x="25" y="544" name="TFZXRFQF"/>
      <point x="25" y="341" type="curve" smooth="yes" name="WOIPDAEL"/>
      <point x="25" y="137" name="IUVLUDOJ"/>
      <point x="146" y="-14" name="IWSZWEMS"/>
      <point x="323" y="-14" type="curve" name="WUHJRREZ"/>
      <point x="323" y="-14" name="YWVKOYZM"/>
      <point x="323" y="-14" name="BAODXYCW"/>
    </contour>
    <contour>
      <point x="323" y="151" type="curve" name="JLNMYUKG"/>
      <point x="244" y="151" name="NAXTDESJ"/>
      <point x="198" y="226" name="BVRTODYH"/>
      <point x="198" y="341" type="curve" smooth="yes" name="AIUMUKEN"/>
      <point x="198" y="456" name="ZKSEOFFQ"/>
      <point x="244" y="529" name="YIHMHWSI"/>
      <point x="323" y="529" type="curve" smooth="yes" name="SORJAVZL"/>
      <point x="402" y="529" name="KCRVYCGZ"/>
      <point x="448" y="455" name="BVEHARVO"/>
      <point x="448" y="341" type="curve" smooth="yes" name="PRZDMZCE"/>
      <point x="448" y="226" name="LUYGJGPP"/>
      <point x="402" y="151" name="WVOGQOSB"/>
      <point x="323" y="151" type="curve" name="DWIIWDWT"/>
      <point x="323" y="151" name="YDKUNYHS"/>
      <point x="323" y="151" name="SVCWSCEO"/>
    </contour>
  </outline>
</glyph>
<glyph name="one" format="2">
  <advance width="377"/>
  <unicode hex="0031"/>
  <outline>
    <contour>
      <point x="312" y="692" type="curve" name="LFNUMWYK"/>
      <point x="216" y="671" name="EQMOLPLS"/>
      <point x="116" y="650" name="ZHXROYCM"/>
      <point x="20" y="629" type="curve" name="SKDIEZJL"/>
      <point x="20" y="576" name="TXBTWFFU"/>
      <point x="20" y="520" name="THFXAFWS"/>
      <point x="20" y="467" type="curve" name="OVBSEIQJ"/>
      <point x="59" y="475" name="TXCYUNNJ"/>
      <point x="98" y="484" name="IQVBGSZS"/>
      <point x="137" y="492" type="curve" name="UZHQBQVZ"/>
      <point x="137" y="330" name="FBHNUWNE"/>
      <point x="137" y="162" name="ANAMJTWG"/>
      <point x="137" y="0" type="curve" name="XGKPKYVB"/>
      <point x="195" y="0" name="ATOBSUPX"/>
      <point x="254" y="0" name="KWKPFUOB"/>
      <point x="312" y="0" type="curve" name="MOWTYGHF"/>
      <point x="312" y="228" name="FFCETFJC"/>
      <point x="312" y="464" name="TIPUHPTX"/>
    </contour>
  </outline>
</glyph>
<glyph name="two" format="2">
  <advance width="536"/>
  <unicode hex="0032"/>
  <outline>
    <contour>
      <point x="47" y="0" type="curve" name="LJXWGCYZ"/>
      <point x="195" y="0" name="BFZHPHEN"/>
      <point x="346" y="0" name="CIIQOLWV"/>
      <point x="494" y="0" type="curve" name="JNHJNANE"/>
      <point x="494" y="52" name="EORDFBWZ"/>
      <point x="494" y="107" name="PMZSLJKR"/>
      <point x="494" y="159" type="curve" name="VIYXGIPN"/>
      <point x="422" y="159" name="VPUJAZNG"/>
      <point x="349" y="159" name="INHUBWSN"/>
      <point x="277" y="159" type="curve" name="RJECDWNB"/>
      <point x="306" y="187" name="HMMYEGCC"/>
      <point x="336" y="217" name="FRZHWJZL"/>
      <point x="365" y="245" type="curve" smooth="yes" name="HFLLYGKD"/>
      <point x="455" y="333" name="WKSUBPRE"/>
      <point x="499" y="399" name="TWEIKYID"/>
      <point x="499" y="482" type="curve" smooth="yes" name="YVROEAGF"/>
      <point x="499" y="646" name="TYHORWDK"/>
      <point x="322" y="746" name="JETTKUKB"/>
      <point x="56" y="658" type="curve" name="AMXUJAYH"/>
      <point x="56" y="603" name="CMEBPMHF"/>
      <point x="56" y="546" name="ZMASZPDT"/>
      <point x="56" y="491" type="curve" name="QCMTFYZZ"/>
      <point x="191" y="545" name="BJNTZEWZ"/>
      <point x="320" y="534" name="EYXNRRJE"/>
      <point x="320" y="468" type="curve" smooth="yes" name="XTOEYCRB"/>
      <point x="320" y="435" name="PATLZDXU"/>
      <point x="298" y="403" name="IFULDRXK"/>
      <point x="207" y="314" type="curve" smooth="yes" name="XWIMOQOP"/>
      <point x="154" y="263" name="WNBAELGR"/>
      <point x="100" y="210" name="DUCZENMW"/>
      <point x="47" y="159" type="curve" name="IRYPTTWI"/>
      <point x="47" y="107" name="JMUATNXN"/>
      <point x="47" y="52" name="MHIRIFWU"/>
    </contour>
  </outline>
</glyph>
<glyph name="three" format="2">
  <advance width="522"/>
  <unicode hex="0033"/>
  <outline>
    <contour>
      <point x="90" y="387" type="curve" name="TWEZKNJQ"/>
      <point x="90" y="349" name="GMBVYRCN"/>
      <point x="90" y="309" name="XKJODNQB"/>
      <point x="90" y="271" type="curve" name="DBSZIJBP"/>
      <point x="228" y="283" name="DYGTKBDB"/>
      <point x="330" y="266" name="FVZLRSCX"/>
      <point x="330" y="205" type="curve" smooth="yes" name="KMLPMJEL"/>
      <point x="330" y="140" name="BSYEDFHE"/>
      <point x="196" y="136" name="PEDYGYPF"/>
      <point x="50" y="188" type="curve" name="ESWIDBTI"/>
      <point x="50" y="133" name="KZRUHWNZ"/>
      <point x="50" y="76" name="HLZINVGT"/>
      <point x="50" y="21" type="curve" name="FAQIEKHF"/>
      <point x="292" y="-50" name="YUUPZCUQ"/>
      <point x="502" y="9" name="IFWGRRKD"/>
      <point x="502" y="206" type="curve" smooth="yes" name="VGEXZHJZ"/>
      <point x="502" y="310" name="NKSHUEVG"/>
      <point x="440" y="381" name="EAOJYXYY"/>
      <point x="331" y="403" type="curve" name="DIUDXIGO"/>
      <point x="379" y="442" name="DBIBOTMK"/>
      <point x="427" y="482" name="MFKBXAQY"/>
      <point x="475" y="521" type="curve" name="RMNFTGHN"/>
      <point x="475" y="573" name="OASWAVBC"/>
      <point x="475" y="628" name="JJESOTXZ"/>
      <point x="475" y="680" type="curve" name="XOKHRMPS"/>
      <point x="335" y="680" name="RVZUJTJW"/>
      <point x="192" y="680" name="OINQKVIQ"/>
      <point x="52" y="680" type="curve" name="HXJZZDYX"/>
      <point x="52" y="628" name="GYUSUUPR"/>
      <point x="52" y="573" name="OLBVQFOT"/>
      <point x="52" y="521" type="curve" name="NHGVJNDY"/>
      <point x="120" y="521" name="OGBGDTDS"/>
      <point x="191" y="521" name="BQXNRSJA"/>
      <point x="259" y="521" type="curve" name="GISHUNEU"/>
      <point x="203" y="477" name="LOOCDEIR"/>
      <point x="146" y="431" name="RBNGMKPX"/>
    </contour>
  </outline>
</glyph>
<glyph name="four" format="2">
  <advance width="583"/>
  <unicode hex="0034"/>
  <outline>
    <contour>
      <point x="25" y="129" type="curve" name="HXTAFUEV"/>
      <point x="120" y="129" name="GCFCJLMY"/>
      <point x="217" y="129" name="JMQQCVUE"/>
      <point x="312" y="129" type="curve" name="WVEEAHPQ"/>
      <point x="312" y="86" name="QHNUEQQG"/>
      <point x="312" y="43" name="XMXDMAFJ"/>
      <point x="312" y="0" type="curve" name="BPSPGRNY"/>
      <point x="368" y="0" name="KDAVMJMV"/>
      <point x="427" y="0" name="RCEKHEUH"/>
      <point x="483" y="0" type="curve" name="TYURHEEJ"/>
      <point x="483" y="43" name="IQGZQFHD"/>
      <point x="483" y="86" name="ICLWQXEL"/>
      <point x="483" y="129" type="curve" name="ZAEGWPGC"/>
      <point x="514" y="129" name="HTVQIPBA"/>
      <point x="547" y="129" name="OLXEXYTM"/>
      <point x="578" y="129" type="curve" name="BJVXGLOB"/>
      <point x="578" y="181" name="PNNJIUUR"/>
      <point x="578" y="236" name="ODUUGIWO"/>
      <point x="578" y="288" type="curve" name="ZCGQWMBJ"/>
      <point x="547" y="288" name="MMSTWSAC"/>
      <point x="514" y="288" name="LXTSJQWV"/>
      <point x="483" y="288" type="curve" name="HQDSRHAK"/>
      <point x="483" y="417" name="XKFUMZSA"/>
      <point x="483" y="551" name="UWYMVCAU"/>
      <point x="483" y="680" type="curve" name="IJBKXRWR"/>
      <point x="398" y="680" name="AMDOTGLB"/>
      <point x="311" y="680" name="LENERWPN"/>
      <point x="226" y="680" type="curve" name="BPTZCQJU"/>
      <point x="160" y="551" name="GWMRQQVX"/>
      <point x="91" y="417" name="AFDGLDTW"/>
      <point x="25" y="288" type="curve" name="TIGIRNTV"/>
      <point x="25" y="236" name="ITDKTMPC"/>
      <point x="25" y="181" name="PADSPFNC"/>
    </contour>
    <contour>
      <point x="205" y="288" type="curve" name="VMYJMNXV"/>
      <point x="240" y="363" name="OINLUNHH"/>
      <point x="277" y="441" name="EBGOOEGM"/>
      <point x="312" y="516" type="curve" name="FATOFQCK"/>
      <point x="312" y="441" name="PLXHTCSZ"/>
      <point x="312" y="363" name="KVRKDACC"/>
      <point x="312" y="288" type="curve" name="LXVYRPNW"/>
      <point x="277" y="288" name="GMVNVOAJ"/>
      <point x="240" y="288" name="EKFQFIVR"/>
    </contour>
  </outline>
</glyph>
<glyph name="five" format="2">
  <advance width="519"/>
  <unicode hex="0035"/>
  <outline>
    <contour>
      <point x="53" y="285" type="curve" name="BMGGOVDI"/>
      <point x="207" y="310" name="IEPZTOCW"/>
      <point x="327" y="294" name="MMBPYTSS"/>
      <point x="327" y="216" type="curve" smooth="yes" name="PNEFBFFM"/>
      <point x="327" y="137" name="EXQFKOBD"/>
      <point x="211" y="136" name="JKQMCOCK"/>
      <point x="45" y="188" type="curve" name="NFCZRCND"/>
      <point x="45" y="133" name="WNUREYBN"/>
      <point x="45" y="76" name="SEBHRPFM"/>
      <point x="45" y="21" type="curve" name="WIKEVMLL"/>
      <point x="284" y="-48" name="KSJUZSCX"/>
      <point x="499" y="13" name="WTGFJJFX"/>
      <point x="499" y="221" type="curve" smooth="yes" name="SVDWQVUV"/>
      <point x="499" y="366" name="QGLKMZBL"/>
      <point x="398" y="443" name="RELTLRKR"/>
      <point x="228" y="441" type="curve" name="SDEJNKET"/>
      <point x="231" y="467" name="KQQFKIXJ"/>
      <point x="235" y="495" name="AIHWPYIQ"/>
      <point x="238" y="521" type="curve" name="SZGYTUCJ"/>
      <point x="312" y="521" name="HUJXVCRA"/>
      <point x="389" y="521" name="XXPJCIFX"/>
      <point x="463" y="521" type="curve" name="PPVQFHRE"/>
      <point x="463" y="573" name="VEDCOTDT"/>
      <point x="463" y="628" name="MWBGGHOT"/>
      <point x="463" y="680" type="curve" name="IGIMMNWP"/>
      <point x="340" y="680" name="SCBRSLGO"/>
      <point x="212" y="680" name="FPPEHZOQ"/>
      <point x="89" y="680" type="curve" name="KXWKNLCQ"/>
      <point x="77" y="550" name="HIFBQPAI"/>
      <point x="65" y="415" name="GNEZCEFX"/>
    </contour>
  </outline>
</glyph>
<glyph name="six" format="2">
  <advance width="563"/>
  <unicode hex="0036"/>
  <outline>
    <contour>
      <point x="494" y="492" type="curve" name="CMQDXTRX"/>
      <point x="494" y="549" name="FZGOEGAQ"/>
      <point x="494" y="608" name="QWKJJWPI"/>
      <point x="494" y="665" type="curve" name="JCGHJAFP"/>
      <point x="217" y="738" name="KDABFNEM"/>
      <point x="25" y="610" name="IPDHRSEA"/>
      <point x="25" y="318" type="curve" smooth="yes" name="SHBINBMN"/>
      <point x="25" y="100" name="KUZBXCJD"/>
      <point x="135" y="-13" name="MKDRAVGN"/>
      <point x="290" y="-13" type="curve" smooth="yes" name="SUVKWSNW"/>
      <point x="444" y="-13" name="LWJZYUSE"/>
      <point x="545" y="93" name="EIVYXYYO"/>
      <point x="545" y="232" type="curve" smooth="yes" name="AQUQIUYR"/>
      <point x="545" y="449" name="FKOZBRUR"/>
      <point x="318" y="502" name="GCYMCFUU"/>
      <point x="199" y="409" type="curve" name="AYUGFQUN"/>
      <point x="209" y="527" name="KIVGCKPL"/>
      <point x="355" y="555" name="JDYPLYZL"/>
      <point x="494" y="492" type="curve" name="EDYCUYFX"/>
      <point x="494" y="492" name="QPTSAXGC"/>
      <point x="494" y="492" name="NOYDOIPR"/>
    </contour>
    <contour>
      <point x="289" y="144" type="curve" name="JZPDXXBG"/>
      <point x="241" y="144" name="SQQGQZPS"/>
      <point x="208" y="180" name="XFMBEOZP"/>
      <point x="208" y="232" type="curve" smooth="yes" name="NOBTJWSB"/>
      <point x="208" y="281" name="ZMMXUWWK"/>
      <point x="241" y="314" name="XVLSKFVG"/>
      <point x="289" y="314" type="curve" smooth="yes" name="DVAMRECG"/>
      <point x="338" y="314" name="NDHRURPH"/>
      <point x="372" y="280" name="RLKBXRNU"/>
      <point x="372" y="229" type="curve" smooth="yes" name="IRXRCXRH"/>
      <point x="372" y="179" name="CWVZRJZZ"/>
      <point x="338" y="144" name="LNCZRFNO"/>
      <point x="289" y="144" type="curve" name="TUACBEQJ"/>
      <point x="289" y="144" name="ZVLXVAYP"/>
      <point x="289" y="144" name="FVRATVDQ"/>
    </contour>
  </outline>
</glyph>
<glyph name="seven" format="2">
  <advance width="520"/>
  <unicode hex="0037"/>
  <outline>
    <contour>
      <point x="487" y="680" type="curve" name="AYSCDFFV"/>
      <point x="337" y="680" name="CYDQYXOY"/>
      <point x="183" y="680" name="WYXYCGGZ"/>
      <point x="33" y="680" type="curve" name="GNXMGGMT"/>
      <point x="33" y="628" name="IXUCVSQK"/>
      <point x="33" y="573" name="DBJQXAZH"/>
      <point x="33" y="521" type="curve" name="JGKGAFDS"/>
      <point x="123" y="521" name="YEPHFQXA"/>
      <point x="217" y="521" name="ESCZRMLQ"/>
      <point x="307" y="521" type="curve" name="MZOOHEXL"/>
      <point x="231" y="349" name="BDJCGOZB"/>
      <point x="154" y="172" name="DLVAHMPP"/>
      <point x="78" y="0" type="curve" name="CERNDSQQ"/>
      <point x="137" y="0" name="JBFLPXPB"/>
      <point x="199" y="0" name="NABVUJSR"/>
      <point x="258" y="0" type="curve" name="SIWDVRMP"/>
      <point x="334" y="172" name="GLBPXDVB"/>
      <point x="411" y="349" name="OLVHWJBV"/>
      <point x="487" y="521" type="curve" name="YRUIXLGB"/>
      <point x="487" y="573" name="BMWHWLBK"/>
      <point x="487" y="628" name="MAHHBMKY"/>
    </contour>
  </outline>
</glyph>
<glyph name="eight" format="2">
  <advance width="560"/>
  <unicode hex="0038"/>
  <outline>
    <contour>
      <point x="281" y="-15" type="curve" name="DOFMKEDY"/>
      <point x="426" y="-15" name="GMCIIINK"/>
      <point x="535" y="70" name="EISBSPGO"/>
      <point x="535" y="198" type="curve" smooth="yes" name="MKVKRRBB"/>
      <point x="535" y="269" name="YCDHPJRS"/>
      <point x="503" y="321" name="BYHRSRAF"/>
      <point x="452" y="353" type="curve" name="ABYWJPRQ"/>
      <point x="495" y="383" name="BOJHESWY"/>
      <point x="521" y="429" name="UCDYIMDR"/>
      <point x="521" y="490" type="curve" smooth="yes" name="OXXMJZUI"/>
      <point x="521" y="610" name="LULWKPZY"/>
      <point x="419" y="695" name="HLNFOSPY"/>
      <point x="281" y="695" type="curve" smooth="yes" name="OUGICIXE"/>
      <point x="142" y="695" name="IAGLPLVV"/>
      <point x="39" y="610" name="VLBPLNCV"/>
      <point x="39" y="490" type="curve" smooth="yes" name="ZFVYYODD"/>
      <point x="39" y="429" name="JNILWGOC"/>
      <point x="65" y="383" name="AEWDVHLQ"/>
      <point x="109" y="353" type="curve" name="CHVXHYMR"/>
      <point x="57" y="321" name="LJRFXHQL"/>
      <point x="25" y="269" name="AHHDNXHS"/>
      <point x="25" y="198" type="curve" smooth="yes" name="RTAZHXOF"/>
      <point x="25" y="70" name="CTFZRPUR"/>
      <point x="134" y="-15" name="DQHLAGKS"/>
      <point x="281" y="-15" type="curve" name="AYCRFBKV"/>
      <point x="281" y="-15" name="CVNROQOA"/>
      <point x="281" y="-15" name="FWKBVASS"/>
    </contour>
    <contour>
      <point x="281" y="417" type="curve" name="EOYEYDXK"/>
      <point x="239" y="417" name="KRSHIPAQ"/>
      <point x="209" y="444" name="BZUFEZGD"/>
      <point x="209" y="481" type="curve" smooth="yes" name="TOYZQIDQ"/>
      <point x="209" y="517" name="WPNUVNRR"/>
      <point x="238" y="542" name="MYZPRHSB"/>
      <point x="281" y="542" type="curve" smooth="yes" name="RQGKYOET"/>
      <point x="323" y="542" name="PASTMJFG"/>
      <point x="351" y="517" name="PROVXJWD"/>
      <point x="351" y="481" type="curve" smooth="yes" name="IOHRTIRM"/>
      <point x="351" y="444" name="CCYOLLDZ"/>
      <point x="323" y="417" name="QPPUAFBP"/>
      <point x="281" y="417" type="curve" name="ZYRTIEPK"/>
      <point x="281" y="417" name="FWNSCVWC"/>
      <point x="281" y="417" name="KKIHZGKD"/>
    </contour>
    <contour>
      <point x="281" y="138" type="curve" name="DMBCBELI"/>
      <point x="234" y="138" name="CHLABBWP"/>
      <point x="198" y="169" name="LLNSAIUO"/>
      <point x="198" y="212" type="curve" smooth="yes" name="GACEOBPY"/>
      <point x="198" y="257" name="EQYIXOGQ"/>
      <point x="234" y="287" name="NPSASKPS"/>
      <point x="281" y="287" type="curve" smooth="yes" name="IXJATNYN"/>
      <point x="327" y="287" name="IVCVRRFV"/>
      <point x="362" y="257" name="BNLDSDEK"/>
      <point x="362" y="212" type="curve" smooth="yes" name="BOOPPMME"/>
      <point x="362" y="169" name="APGEUQZO"/>
      <point x="327" y="138" name="WIKUNKCK"/>
      <point x="281" y="138" type="curve" name="MCWGYAPG"/>
      <point x="281" y="138" name="FXJEVWXT"/>
      <point x="281" y="138" name="WDPPZZFT"/>
    </contour>
  </outline>
</glyph>
<glyph name="nine" format="2">
  <advance width="563"/>
  <unicode hex="0039"/>
  <outline>
    <contour>
      <point x="69" y="189" type="curve" name="TDDYBEVX"/>
      <point x="69" y="132" name="ZXGZCKPM"/>
      <point x="69" y="73" name="JQGVKABN"/>
      <point x="69" y="16" type="curve" name="ZZFDBRGK"/>
      <point x="346" y="-57" name="SJDGRXCU"/>
      <point x="538" y="71" name="FDMYRKWY"/>
      <point x="538" y="363" type="curve" smooth="yes" name="KQWYRPUL"/>
      <point x="538" y="581" name="GBNIBAEP"/>
      <point x="428" y="694" name="ACCADVKI"/>
      <point x="273" y="694" type="curve" smooth="yes" name="BCJQDOKM"/>
      <point x="119" y="694" name="IAYFHXNQ"/>
      <point x="18" y="588" name="TMIVUAFR"/>
      <point x="18" y="449" type="curve" smooth="yes" name="SUBTLPUI"/>
      <point x="18" y="232" name="IZZJRBWJ"/>
      <point x="245" y="179" name="LLNKPBNI"/>
      <point x="364" y="272" type="curve" name="FBOLBBYM"/>
      <point x="354" y="154" name="CHCYKQZY"/>
      <point x="208" y="126" name="IGUJRYKC"/>
      <point x="69" y="189" type="curve" name="MTCBTZWM"/>
      <point x="69" y="189" name="PIWOZYZW"/>
      <point x="69" y="189" name="OBKEVKSY"/>
    </contour>
    <contour>
      <point x="274" y="537" type="curve" name="ZLFBJBTL"/>
      <point x="322" y="537" name="NZFXKJPL"/>
      <point x="355" y="501" name="SFZXFTGW"/>
      <point x="355" y="449" type="curve" smooth="yes" name="UHMAOHZW"/>
      <point x="355" y="400" name="LVGUZSKA"/>
      <point x="322" y="367" name="MFIZTTLO"/>
      <point x="274" y="367" type="curve" smooth="yes" name="BIXEGJEY"/>
      <point x="225" y="367" name="YNLWGMTL"/>
      <point x="191" y="401" name="KMRLBPQJ"/>
      <point x="191" y="452" type="curve" smooth="yes" name="KRCLUMSF"/>
      <point x="191" y="502" name="UKQMGQSG"/>
      <point x="225" y="537" name="XQFBRPVH"/>
      <point x="274" y="537" type="curve" name="ICXFRYFL"/>
      <point x="274" y="537" name="SLNOQYHR"/>
      <point x="274" y="537" name="YCAWUJXH"/>
    </contour>
  </outline>
</glyph>
<glyph name="colon" format="2">
  <advance width="291"/>
  <unicode hex="003A"/>
  <outline>
    <contour>
      <point x="146" y="326" type="curve" name="RMTHXVRV"/>
      <point x="203" y="326" name="URXEETLE"/>
      <point x="251" y="373" name="DJPLXUKT"/>
      <point x="251" y="430" type="curve" smooth="yes" name="REJJQNEI"/>
      <point x="251" y="486" name="SHCBZTIF"/>
      <point x="203" y="533" name="IRMFAZZR"/>
      <point x="146" y="533" type="curve" smooth="yes" name="AFDOETBY"/>
      <point x="87" y="533" name="BCOULOIV"/>
      <point x="40" y="486" name="SVMLPGXJ"/>
      <point x="40" y="430" type="curve" smooth="yes" name="ASOSEJOP"/>
      <point x="40" y="373" name="MFNCGRFI"/>
      <point x="87" y="326" name="CJSPQNTC"/>
      <point x="146" y="326" type="curve" name="NUYKUMSS"/>
      <point x="146" y="326" name="CDWONYDI"/>
      <point x="146" y="326" name="UEUJQQJV"/>
    </contour>
    <contour>
      <point x="146" y="-16" type="curve" name="OGIPFLSZ"/>
      <point x="203" y="-16" name="KIYKTZLL"/>
      <point x="251" y="31" name="CJPKNDWO"/>
      <point x="251" y="88" type="curve" smooth="yes" name="HSMNVLNL"/>
      <point x="251" y="144" name="DDDKAYOS"/>
      <point x="203" y="191" name="RURLGAHW"/>
      <point x="146" y="191" type="curve" smooth="yes" name="JPOKVIYR"/>
      <point x="87" y="191" name="IXQWNAWD"/>
      <point x="40" y="144" name="ASCLNHOO"/>
      <point x="40" y="88" type="curve" smooth="yes" name="IYIZHOOC"/>
      <point x="40" y="31" name="IBOYJHME"/>
      <point x="87" y="-16" name="FAYNWIEX"/>
      <point x="146" y="-16" type="curve" name="JTWGFGWE"/>
      <point x="146" y="-16" name="LOIMSQRR"/>
      <point x="146" y="-16" name="CETCVXFA"/>
    </contour>
  </outline>
</glyph>
<glyph name="semicolon" format="2">
  <advance width="291"/>
  <unicode hex="003B"/>
  <outline>
    <contour>
      <point x="147" y="326" type="curve" name="LJIURGHE"/>
      <point x="204" y="326" name="FNYFXBVJ"/>
      <point x="252" y="373" name="TFLRHPQB"/>
      <point x="252" y="430" type="curve" smooth="yes" name="IPPZVZFY"/>
      <point x="252" y="486" name="TVJSSEDP"/>
      <point x="204" y="533" name="VWOXUVEZ"/>
      <point x="147" y="533" type="curve" smooth="yes" name="RBNKQAIQ"/>
      <point x="88" y="533" name="AFFXYFVM"/>
      <point x="41" y="486" name="EKFBHBMR"/>
      <point x="41" y="430" type="curve" smooth="yes" name="JIZBFFLJ"/>
      <point x="41" y="373" name="CAATTIPN"/>
      <point x="88" y="326" name="JGJCTFCR"/>
      <point x="147" y="326" type="curve" name="AVKGZOSG"/>
      <point x="147" y="326" name="IPBRTSPQ"/>
      <point x="147" y="326" name="CLFHHUKW"/>
    </contour>
    <contour>
      <point x="15" y="-101" type="curve" name="LXQVOAKD"/>
      <point x="63" y="-101" name="KQIIYISI"/>
      <point x="111" y="-101" name="KBHIKNIL"/>
      <point x="159" y="-101" type="curve" name="ZTTILJQL"/>
      <point x="183" y="-8" name="AXCTISMV"/>
      <point x="209" y="88" name="YSGVHRQP"/>
      <point x="233" y="181" type="curve" name="BFCTONBZ"/>
      <point x="177" y="181" name="ZVPMUPAO"/>
      <point x="120" y="181" name="OKUCYEBN"/>
      <point x="64" y="181" type="curve" name="UTYKDPUC"/>
      <point x="48" y="88" name="MYDZQFWB"/>
      <point x="31" y="-8" name="ZHIOZRSU"/>
    </contour>
  </outline>
</glyph>
<glyph name="less" format="2">
  <advance width="447"/>
  <unicode hex="003C"/>
  <outline>
    <contour>
      <point x="40" y="222" type="curve" name="RUWTDPRC"/>
      <point x="158" y="166" name="ECCOQWIB"/>
      <point x="279" y="109" name="IVKXKHYF"/>
      <point x="397" y="53" type="curve" name="WKZGGRAU"/>
      <point x="397" y="111" name="JWKNPUTG"/>
      <point x="397" y="171" name="NUWIFSZB"/>
      <point x="397" y="229" type="curve" name="UGNMFHSJ"/>
      <point x="337" y="256" name="VPFKISUD"/>
      <point x="276" y="283" name="RNHORETW"/>
      <point x="216" y="310" type="curve" name="SKSNOGWR"/>
      <point x="276" y="336" name="FRWFMSSU"/>
      <point x="337" y="364" name="CDKHSDZQ"/>
      <point x="397" y="390" type="curve" name="LTLIZPHB"/>
      <point x="397" y="447" name="AQDZXENB"/>
      <point x="397" y="506" name="YOWKGJTW"/>
      <point x="397" y="563" type="curve" name="LURDSMPT"/>
      <point x="279" y="507" name="XWHTSIHW"/>
      <point x="158" y="450" name="GYZIBFIS"/>
      <point x="40" y="394" type="curve" name="LUOVQWSA"/>
      <point x="40" y="337" name="KUSPRJWT"/>
      <point x="40" y="279" name="OCXQSGUQ"/>
    </contour>
  </outline>
</glyph>
<glyph name="equal" format="2">
  <advance width="490"/>
  <unicode hex="003D"/>
  <outline>
    <contour>
      <point x="40" y="351" type="curve" name="TQAZQFVS"/>
      <point x="175" y="351" name="XJCLYADO"/>
      <point x="315" y="351" name="EVZUBKIV"/>
      <point x="450" y="351" type="curve" name="FMBHXKFG"/>
      <point x="450" y="402" name="EHTJHXKB"/>
      <point x="450" y="455" name="DMWXEEMW"/>
      <point x="450" y="506" type="curve" name="LFLIBXZD"/>
      <point x="315" y="506" name="KRBYVIHK"/>
      <point x="175" y="506" name="CWNSSPPM"/>
      <point x="40" y="506" type="curve" name="ZJKYXRFJ"/>
      <point x="40" y="455" name="RWJVDWPH"/>
      <point x="40" y="402" name="SPDUDHDJ"/>
    </contour>
    <contour>
      <point x="40" y="111" type="curve" name="ROUMMFQZ"/>
      <point x="175" y="111" name="XAOXYODY"/>
      <point x="315" y="111" name="DVCJNYMJ"/>
      <point x="450" y="111" type="curve" name="BMQHPUHT"/>
      <point x="450" y="162" name="QSZWQWPO"/>
      <point x="450" y="215" name="OERESKEC"/>
      <point x="450" y="266" type="curve" name="PFSNWCMX"/>
      <point x="315" y="266" name="ENKFYXMF"/>
      <point x="175" y="266" name="YRNIHRFX"/>
      <point x="40" y="266" type="curve" name="JXKBUVBV"/>
      <point x="40" y="215" name="ROMBMBGH"/>
      <point x="40" y="162" name="PKDCRUVH"/>
    </contour>
  </outline>
</glyph>
<glyph name="greater" format="2">
  <advance width="447"/>
  <unicode hex="003E"/>
  <outline>
    <contour>
      <point x="407" y="222" type="curve" name="NKYQILMH"/>
      <point x="407" y="279" name="DKPVVPVJ"/>
      <point x="407" y="337" name="JJMXFFEL"/>
      <point x="407" y="394" type="curve" name="DIHFBKCZ"/>
      <point x="289" y="450" name="TIASLCNZ"/>
      <point x="168" y="507" name="MIEBPUAG"/>
      <point x="50" y="563" type="curve" name="QBRVDKNG"/>
      <point x="50" y="506" name="ENMFUGNX"/>
      <point x="50" y="447" name="YGGBEDQT"/>
      <point x="50" y="390" type="curve" name="EVCHBXLQ"/>
      <point x="110" y="364" name="SUHCGVLB"/>
      <point x="171" y="336" name="VRYHSTCM"/>
      <point x="231" y="310" type="curve" name="VTEYVWWS"/>
      <point x="171" y="283" name="PNEOUZBZ"/>
      <point x="110" y="256" name="BKWHDQWS"/>
      <point x="50" y="229" type="curve" name="FUNDNLKI"/>
      <point x="50" y="171" name="JTHZRTYY"/>
      <point x="50" y="111" name="DJTVZDHP"/>
      <point x="50" y="53" type="curve" name="PZHGFQBN"/>
      <point x="168" y="109" name="ARIOOEHR"/>
      <point x="289" y="166" name="YHHJOCJD"/>
    </contour>
  </outline>
</glyph>
<glyph name="question" format="2">
  <advance width="511"/>
  <unicode hex="003F"/>
  <outline>
    <contour>
      <point x="309" y="299" type="curve" name="ZOSSIYHU"/>
      <point x="414" y="330" name="XIEBKAGT"/>
      <point x="489" y="387" name="SQAUEZGN"/>
      <point x="489" y="493" type="curve" smooth="yes" name="QYOSXOGN"/>
      <point x="489" y="663" name="HYBECJRC"/>
      <point x="303" y="731" name="WQSUAUQP"/>
      <point x="35" y="663" type="curve" name="MLOUHCIR"/>
      <point x="35" y="607" name="TQALSWJC"/>
      <point x="35" y="550" name="CMYTOWTF"/>
      <point x="35" y="494" type="curve" name="TUUEDXDJ"/>
      <point x="171" y="548" name="YVNEFVVV"/>
      <point x="320" y="536" name="YEOEYROI"/>
      <point x="320" y="474" type="curve" smooth="yes" name="GLHMBCHJ"/>
      <point x="320" y="438" name="CCHURJEM"/>
      <point x="267" y="421" name="ZOUBLWIN"/>
      <point x="139" y="410" type="curve" name="ZVCYRXLB"/>
      <point x="140" y="356" name="ORSGBPLC"/>
      <point x="142" y="299" name="QKBZULHP"/>
      <point x="143" y="245" type="curve" name="LVEAVNCE"/>
      <point x="197" y="245" name="FEFIQFEF"/>
      <point x="254" y="245" name="BUFNTQND"/>
      <point x="308" y="245" type="curve" name="JZTYJRJH"/>
      <point x="308" y="263" name="RFJTEDBA"/>
      <point x="309" y="281" name="OXNXHMWS"/>
    </contour>
    <contour>
      <point x="226" y="-16" type="curve" name="ASGKXENX"/>
      <point x="283" y="-16" name="BVGJFHWG"/>
      <point x="331" y="31" name="MLCEEQCW"/>
      <point x="331" y="88" type="curve" smooth="yes" name="VKVVGPNM"/>
      <point x="331" y="144" name="EJXNBWRB"/>
      <point x="283" y="191" name="DOVWZBLW"/>
      <point x="226" y="191" type="curve" smooth="yes" name="VAVFKBHP"/>
      <point x="167" y="191" name="RGVKFIUV"/>
      <point x="120" y="144" name="AKOPIYNG"/>
      <point x="120" y="88" type="curve" smooth="yes" name="XVQCISFI"/>
      <point x="120" y="31" name="HAOTOOUG"/>
      <point x="167" y="-16" name="ZQSAXJUZ"/>
      <point x="226" y="-16" type="curve" name="OGASZDWI"/>
      <point x="226" y="-16" name="SXFTMRHQ"/>
      <point x="226" y="-16" name="IGESHFZU"/>
    </contour>
  </outline>
</glyph>
<glyph name="at" format="2">
  <advance width="956"/>
  <unicode hex="0040"/>
  <outline>
    <contour>
      <point x="674" y="-132" type="curve" name="LSCACDPH"/>
      <point x="674" y="-90" name="NNOIEZNC"/>
      <point x="674" y="-46" name="JWXCPNET"/>
      <point x="674" y="-4" type="curve" name="DGWUOACD"/>
      <point x="408" y="-108" name="ACPHGPGV"/>
      <point x="176" y="20" name="GSVVRFSG"/>
      <point x="176" y="261" type="curve" smooth="yes" name="VGGYFXMH"/>
      <point x="176" y="442" name="IUEQPIXT"/>
      <point x="310" y="576" name="GNJYSOYQ"/>
      <point x="499" y="576" type="curve" smooth="yes" name="CTSHEWWK"/>
      <point x="682" y="576" name="MZGVHSXC"/>
      <point x="804" y="465" name="NXGLOOZJ"/>
      <point x="804" y="308" type="curve" smooth="yes" name="ABJRKYAU"/>
      <point x="804" y="227" name="YUWIWAPJ"/>
      <point x="760" y="182" name="EXIKHSFO"/>
      <point x="724" y="182" type="curve" smooth="yes" name="FACEEJDW"/>
      <point x="702" y="182" name="ZRGOUAKL"/>
      <point x="691" y="194" name="YFQVYSTS"/>
      <point x="691" y="217" type="curve" smooth="yes" name="GPXOPPQU"/>
      <point x="691" y="299" name="EOGDGDQR"/>
      <point x="691" y="382" name="CJDMAFFQ"/>
      <point x="691" y="464" type="curve" name="VDDRDNTW"/>
      <point x="648" y="464" name="DSHSZEIG"/>
      <point x="604" y="464" name="YIPEUENI"/>
      <point x="561" y="464" type="curve" name="SADLYXZK"/>
      <point x="561" y="456" name="USJRTELA"/>
      <point x="561" y="448" name="AFKUTMYM"/>
      <point x="561" y="440" type="curve" name="CPVCQRCV"/>
      <point x="537" y="461" name="KNULGWGJ"/>
      <point x="504" y="474" name="BMYLYQNA"/>
      <point x="468" y="474" type="curve" smooth="yes" name="UTDFBQUQ"/>
      <point x="368" y="474" name="TGIJVQOD"/>
      <point x="280" y="391" name="BYIOHNGO"/>
      <point x="280" y="265" type="curve" smooth="yes" name="UYATNEXA"/>
      <point x="280" y="141" name="XENEWKQL"/>
      <point x="368" y="55" name="JZQNTBCS"/>
      <point x="469" y="55" type="curve" smooth="yes" name="TMUVJIGH"/>
      <point x="522" y="55" name="CXYIPUDG"/>
      <point x="568" y="77" name="DMOFDAZN"/>
      <point x="597" y="111" type="curve" name="EVJMVHRR"/>
      <point x="621" y="80" name="VLSWCHEQ"/>
      <point x="656" y="63" name="RPPOSUPV"/>
      <point x="703" y="63" type="curve" smooth="yes" name="VWKQRXLX"/>
      <point x="819" y="63" name="YNSPYAUM"/>
      <point x="930" y="154" name="QSPSZRKI"/>
      <point x="930" y="315" type="curve" smooth="yes" name="UGIPZRMX"/>
      <point x="930" y="538" name="HQAUCMSO"/>
      <point x="755" y="696" name="VPXZPMHO"/>
      <point x="502" y="696" type="curve" smooth="yes" name="RRVIVWXX"/>
      <point x="240" y="696" name="QRIEDHKE"/>
      <point x="47" y="510" name="GLGHTTHW"/>
      <point x="47" y="258" type="curve" smooth="yes" name="NTLHRCJU"/>
      <point x="47" y="-58" name="GVNYAVUA"/>
      <point x="330" y="-236" name="DXWHTSOI"/>
      <point x="674" y="-132" type="curve" name="JTFMTWBW"/>
      <point x="674" y="-132" name="NWQANJRT"/>
      <point x="674" y="-132" name="GGVULBJR"/>
    </contour>
    <contour>
      <point x="487" y="179" type="curve" name="TCENOZIN"/>
      <point x="443" y="179" name="UDHRBKAW"/>
      <point x="415" y="212" name="BFLGEATE"/>
      <point x="415" y="265" type="curve" smooth="yes" name="MNNZFBSL"/>
      <point x="415" y="318" name="KBKEUNSI"/>
      <point x="443" y="350" name="AAYBQFNN"/>
      <point x="487" y="350" type="curve" smooth="yes" name="FIXANVPG"/>
      <point x="532" y="350" name="LDVHXNKM"/>
      <point x="561" y="317" name="WJGXEMEL"/>
      <point x="561" y="265" type="curve" smooth="yes" name="KEYBGWVV"/>
      <point x="561" y="213" name="JMXLATCI"/>
      <point x="532" y="179" name="EREBSMRH"/>
      <point x="487" y="179" type="curve" name="BFFOHCKR"/>
      <point x="487" y="179" name="KGLLBCBW"/>
      <point x="487" y="179" name="DKVCABMM"/>
    </contour>
  </outline>
</glyph>
<glyph name="A" format="2">
  <advance width="657"/>
  <unicode hex="0041"/>
  <outline>
    <contour>
      <point x="0" y="0" type="curve" name="VSHALMGC"/>
      <point x="58" y="0" name="WSVKSJHD"/>
      <point x="118" y="0" name="PRFCIODM"/>
      <point x="176" y="0" type="curve" name="JYCGCYYN"/>
      <point x="189" y="43" name="KXFJSKKY"/>
      <point x="201" y="86" name="KLUQNRFV"/>
      <point x="214" y="129" type="curve" name="UMRJARCX"/>
      <point x="290" y="129" name="NJOBXEGL"/>
      <point x="367" y="129" name="LHQYFAME"/>
      <point x="443" y="129" type="curve" name="XUPZKIVD"/>
      <point x="456" y="86" name="ASHYXYAB"/>
      <point x="468" y="43" name="WRRUGEOT"/>
      <point x="481" y="0" type="curve" name="OXYNFWVH"/>
      <point x="539" y="0" name="GIFICFXT"/>
      <point x="599" y="0" name="NNGAJFQK"/>
      <point x="657" y="0" type="curve" name="JHBKOGTE"/>
      <point x="588" y="224" name="VGBXJRGV"/>
      <point x="517" y="456" name="HGSPTSWA"/>
      <point x="448" y="680" type="curve" name="JSDVVQLS"/>
      <point x="369" y="680" name="ZKROCOOS"/>
      <point x="288" y="680" name="BFJNYVVN"/>
      <point x="209" y="680" type="curve" name="DSLSPMIN"/>
      <point x="140" y="456" name="FEBOBFIY"/>
      <point x="69" y="224" name="YYKGVVQI"/>
    </contour>
    <contour>
      <point x="258" y="278" type="curve" name="DKNCFITY"/>
      <point x="281" y="357" name="WIIRQLBW"/>
      <point x="306" y="437" name="LBPCAXFS"/>
      <point x="329" y="516" type="curve" name="OHLZNRVZ"/>
      <point x="352" y="437" name="HEMNQQMC"/>
      <point x="376" y="357" name="FJGHROUE"/>
      <point x="399" y="278" type="curve" name="LUQYXVRA"/>
      <point x="352" y="278" name="WQNSCEAO"/>
      <point x="305" y="278" name="DUARTBAJ"/>
    </contour>
  </outline>
</glyph>
<glyph name="B" format="2">
  <advance width="596"/>
  <unicode hex="0042"/>
  <outline>
    <contour>
      <point x="65" y="0" type="curve" name="NWFEBPTS"/>
      <point x="150" y="0" name="NVIEWQTY"/>
      <point x="238" y="0" name="YNTDAPYI"/>
      <point x="323" y="0" type="curve" smooth="yes" name="VPPYLTPR"/>
      <point x="468" y="0" name="CUTMTXUV"/>
      <point x="566" y="79" name="NBBLQEOQ"/>
      <point x="566" y="200" type="curve" smooth="yes" name="NFHYMAWQ"/>
      <point x="566" y="264" name="GOIIWMYE"/>
      <point x="536" y="318" name="MLBPTMBD"/>
      <point x="480" y="352" type="curve" name="RKKVVSSV"/>
      <point x="522" y="383" name="YIWXAOYM"/>
      <point x="544" y="429" name="QMQWNGTA"/>
      <point x="544" y="485" type="curve" smooth="yes" name="MOIIREPC"/>
      <point x="544" y="602" name="QAUQGCEE"/>
      <point x="451" y="680" name="JCZMXQBQ"/>
      <point x="313" y="680" type="curve" smooth="yes" name="SHCFQGBR"/>
      <point x="231" y="680" name="LOXUNLUQ"/>
      <point x="147" y="680" name="IIOYISBF"/>
      <point x="65" y="680" type="curve" name="KIRGQIMJ"/>
      <point x="65" y="456" name="CZGWRHCA"/>
      <point x="65" y="224" name="ZBVFXEKR"/>
    </contour>
    <contour>
      <point x="369" y="468" type="curve" name="YJCLCGJP"/>
      <point x="369" y="433" name="GITGOLBW"/>
      <point x="346" y="411" name="EAJWKTFM"/>
      <point x="311" y="411" type="curve" smooth="yes" name="EOLTBJKP"/>
      <point x="287" y="411" name="THSKFSKP"/>
      <point x="262" y="411" name="JDRUWLNS"/>
      <point x="238" y="411" type="curve" name="WPRHSTOL"/>
      <point x="238" y="449" name="DOMCCHET"/>
      <point x="238" y="489" name="OADOKHGL"/>
      <point x="238" y="527" type="curve" name="ZQQMTOGP"/>
      <point x="262" y="527" name="VJWQKZRB"/>
      <point x="287" y="527" name="SKRVECZY"/>
      <point x="311" y="527" type="curve" smooth="yes" name="CJLTJMSD"/>
      <point x="346" y="527" name="AHGSPQFD"/>
      <point x="369" y="503" name="OBTTDLAM"/>
      <point x="369" y="468" type="curve" name="EZDMIOQX"/>
      <point x="369" y="468" name="EGMJEFOJ"/>
      <point x="369" y="468" name="MEPEEWOY"/>
    </contour>
    <contour>
      <point x="391" y="216" type="curve" name="KQENCYZK"/>
      <point x="391" y="177" name="OPISTHRY"/>
      <point x="364" y="153" name="NJRSIGPN"/>
      <point x="322" y="153" type="curve" smooth="yes" name="ZUSFBAIO"/>
      <point x="294" y="153" name="UNPYFEIS"/>
      <point x="266" y="153" name="GIUWWTNS"/>
      <point x="238" y="153" type="curve" name="EDGQJXAA"/>
      <point x="238" y="194" name="HEKDNPUI"/>
      <point x="238" y="236" name="NOGIYGHZ"/>
      <point x="238" y="277" type="curve" name="JUQQPQFQ"/>
      <point x="266" y="277" name="DJPXGPVP"/>
      <point x="294" y="277" name="ZXSGYGBN"/>
      <point x="322" y="277" type="curve" smooth="yes" name="IUSFLEBF"/>
      <point x="364" y="277" name="JHGFGCNR"/>
      <point x="391" y="253" name="HYJLRETZ"/>
      <point x="391" y="216" type="curve" name="NKEQIMGS"/>
      <point x="391" y="216" name="RCBNADJQ"/>
      <point x="391" y="216" name="PWZFFZSM"/>
    </contour>
  </outline>
</glyph>
<glyph name="C" format="2">
  <advance width="586"/>
  <unicode hex="0043"/>
  <anchor x="343" y="517" name="center"/>
  <outline>
    <contour>
      <point x="31" y="340" type="curve" name="JIWCLGCY"/>
      <point x="31" y="84" name="IVYMLACA"/>
      <point x="246" y="-75" name="TFQQDVEO"/>
      <point x="536" y="12" type="curve" name="NEPZTRKI"/>
      <point x="536" y="68" name="YGCVZOWC"/>
      <point x="536" y="125" name="KVSEVHJC"/>
      <point x="536" y="181" type="curve" name="QODCIJIB"/>
      <point x="378" y="107" name="NJAUESDJ"/>
      <point x="211" y="159" name="FMMQMMZG"/>
      <point x="211" y="340" type="curve" smooth="yes" name="NHAWZNUH"/>
      <point x="211" y="521" name="WLSZKQKW"/>
      <point x="378" y="573" name="ZBIWIVGM"/>
      <point x="536" y="499" type="curve" name="YXOQKDPW"/>
      <point x="536" y="555" name="WLWTHINN"/>
      <point x="536" y="612" name="SDVSCVSG"/>
      <point x="536" y="668" type="curve" name="GAERKDGX"/>
      <point x="246" y="755" name="JBLVOGGE"/>
      <point x="31" y="596" name="JORWLOAQ"/>
      <point x="31" y="340" type="curve" name="KGLAYHPS"/>
      <point x="31" y="340" name="BMINZRSV"/>
      <point x="31" y="340" name="XOFBMCPD"/>
    </contour>
  </outline>
</glyph>
<glyph name="D" format="2">
  <advance width="679"/>
  <unicode hex="0044"/>
  <outline>
    <contour>
      <point x="65" y="0" type="curve" name="MBEUQPHG"/>
      <point x="145" y="0" name="TVRNZMBC"/>
      <point x="227" y="0" name="TJGAIBOB"/>
      <point x="307" y="0" type="curve" smooth="yes" name="RWIAMCVS"/>
      <point x="503" y="0" name="VIODMEPQ"/>
      <point x="648" y="146" name="EIFFYFGK"/>
      <point x="648" y="341" type="curve" smooth="yes" name="AOJYRMRL"/>
      <point x="648" y="535" name="YCVRAWSD"/>
      <point x="503" y="680" name="XQUTOSBW"/>
      <point x="307" y="680" type="curve" smooth="yes" name="QKUHVRXG"/>
      <point x="227" y="680" name="GPTJJNFI"/>
      <point x="145" y="680" name="IRSWTWQU"/>
      <point x="65" y="680" type="curve" name="XZJQCWFG"/>
      <point x="65" y="456" name="CTBTMCTA"/>
      <point x="65" y="224" name="UMDMZDON"/>
    </contour>
    <contour>
      <point x="307" y="522" type="curve" smooth="yes" name="FWWDAGIH"/>
      <point x="407" y="522" name="EQBEZDRL"/>
      <point x="471" y="445" name="LEJYBDGY"/>
      <point x="471" y="341" type="curve" smooth="yes" name="DAXQZEUR"/>
      <point x="471" y="236" name="VPZFWNDW"/>
      <point x="407" y="158" name="KGXLCKBA"/>
      <point x="307" y="158" type="curve" smooth="yes" name="MJSERIPL"/>
      <point x="285" y="158" name="CHWICFHW"/>
      <point x="262" y="158" name="HGRINEAX"/>
      <point x="240" y="158" type="curve" name="JJMXLALR"/>
      <point x="240" y="278" name="YPKAYXGK"/>
      <point x="240" y="402" name="DYVEKPQZ"/>
      <point x="240" y="522" type="curve" name="RVCIRYZX"/>
      <point x="262" y="522" name="VLYBTGZO"/>
      <point x="285" y="522" name="OLYRJBXG"/>
    </contour>
  </outline>
</glyph>
<glyph name="E" format="2">
  <advance width="528"/>
  <unicode hex="0045"/>
  <anchor x="473" y="0" name="ogonek"/>
  <anchor x="269.0" y="0" name="below"/>
  <anchor x="269.0" y="680.0" name="above"/>
  <outline>
    <contour>
      <point x="65" y="0" type="curve" name="JQGIKBIY"/>
      <point x="200" y="0" name="IITZREUC"/>
      <point x="338" y="0" name="CACJRNYM"/>
      <point x="473" y="0" type="curve" name="EYQVIWEJ"/>
      <point x="473" y="51" name="ILWMHMJP"/>
      <point x="473" y="105" name="SKUTUURA"/>
      <point x="473" y="156" type="curve" name="SAMPZSTG"/>
      <point x="396" y="156" name="FBDZLTAE"/>
      <point x="317" y="156" name="PXNXSKWZ"/>
      <point x="240" y="156" type="curve" name="YLBOSRFW"/>
      <point x="240" y="195" name="VFLFVPHT"/>
      <point x="240" y="235" name="KBRDMCRM"/>
      <point x="240" y="274" type="curve" name="OSHNQQYE"/>
      <point x="310" y="274" name="MOVDSBSC"/>
      <point x="383" y="274" name="WPGQFFRJ"/>
      <point x="453" y="274" type="curve" name="IUENRDHK"/>
      <point x="453" y="324" name="DQOPZYKI"/>
      <point x="453" y="375" name="ZCTLHGYF"/>
      <point x="453" y="425" type="curve" name="KUVRJPTY"/>
      <point x="383" y="425" name="HXAWBFOW"/>
      <point x="310" y="425" name="DWISHQYA"/>
      <point x="240" y="425" type="curve" name="HBZEPTIW"/>
      <point x="240" y="458" name="VMRHCNEF"/>
      <point x="240" y="491" name="SJSDVDRP"/>
      <point x="240" y="524" type="curve" name="SNWURZGS"/>
      <point x="317" y="524" name="GVLSWBKA"/>
      <point x="396" y="524" name="BPSDVEJH"/>
      <point x="473" y="524" type="curve" name="KHRGQWII"/>
      <point x="473" y="575" name="KWKSNBTS"/>
      <point x="473" y="629" name="XOIOOCXX"/>
      <point x="473" y="680" type="curve" name="GPBWZNWS"/>
      <point x="338" y="680" name="CVLPYYWH"/>
      <point x="200" y="680" name="SQKLJRLR"/>
      <point x="65" y="680" type="curve" name="XVCAMLSE"/>
      <point x="65" y="456" name="QEIJQBBM"/>
      <point x="65" y="224" name="CPOBISEA"/>
    </contour>
  </outline>
</glyph>
<glyph name="F" format="2">
  <advance width="518"/>
  <unicode hex="0046"/>
  <outline>
    <contour>
      <point x="65" y="0" type="curve" name="GHBNUDWO"/>
      <point x="123" y="0" name="MDTEALZQ"/>
      <point x="182" y="0" name="QKOQATEN"/>
      <point x="240" y="0" type="curve" name="FNHGPGSY"/>
      <point x="240" y="83" name="KMICTRLF"/>
      <point x="240" y="169" name="CXKQVXAQ"/>
      <point x="240" y="252" type="curve" name="BWGYONBM"/>
      <point x="310" y="252" name="UOAFTZPD"/>
      <point x="383" y="252" name="FWCNJQRB"/>
      <point x="453" y="252" type="curve" name="WXCKWHXQ"/>
      <point x="453" y="302" name="LDFWSJRI"/>
      <point x="453" y="353" name="KPRRCMJT"/>
      <point x="453" y="403" type="curve" name="SFXHLOGC"/>
      <point x="383" y="403" name="WHRSXFTT"/>
      <point x="310" y="403" name="DJDDNSGC"/>
      <point x="240" y="403" type="curve" name="OVCEZRRO"/>
      <point x="240" y="442" name="KSQKRTVF"/>
      <point x="240" y="483" name="LRYXUBYI"/>
      <point x="240" y="522" type="curve" name="XAAMNMHU"/>
      <point x="317" y="522" name="JACWKUGV"/>
      <point x="396" y="522" name="WNCVJZKP"/>
      <point x="473" y="522" type="curve" name="QRCEMUFB"/>
      <point x="473" y="574" name="XYIONOEK"/>
      <point x="473" y="628" name="XWEBJHUK"/>
      <point x="473" y="680" type="curve" name="NDRNQHJU"/>
      <point x="338" y="680" name="FPAWCXZQ"/>
      <point x="200" y="680" name="FQKLFCKC"/>
      <point x="65" y="680" type="curve" name="GNZJFUJP"/>
      <point x="65" y="456" name="YWCRPHRQ"/>
      <point x="65" y="224" name="LWTVYYRD"/>
    </contour>
  </outline>
</glyph>
<glyph name="G" format="2">
  <advance width="676"/>
  <unicode hex="0047"/>
  <outline>
    <contour>
      <point x="614" y="36" type="curve" name="HREDDHVL"/>
      <point x="614" y="159" name="QXTAFFSJ"/>
      <point x="614" y="285" name="IENORUBX"/>
      <point x="614" y="408" type="curve" name="QOXCZIBD"/>
      <point x="522" y="408" name="FIJIUPGY"/>
      <point x="427" y="408" name="HHQJACXM"/>
      <point x="335" y="408" type="curve" name="LIVDMQLK"/>
      <point x="335" y="359" name="NCYPDDCR"/>
      <point x="335" y="308" name="OHAFWLVY"/>
      <point x="335" y="259" type="curve" name="UXQQDNDF"/>
      <point x="372" y="259" name="JLIRAHDP"/>
      <point x="410" y="259" name="VGQASOXN"/>
      <point x="447" y="259" type="curve" name="IPMNEIXY"/>
      <point x="447" y="224" name="XYRWBXQC"/>
      <point x="447" y="188" name="OMFBNAWC"/>
      <point x="447" y="153" type="curve" name="XAZLVTJY"/>
      <point x="425" y="148" name="OCYMABID"/>
      <point x="401" y="146" name="DPMRIEJF"/>
      <point x="380" y="146" type="curve" smooth="yes" name="QZFNEZZJ"/>
      <point x="279" y="146" name="RRDYSZTW"/>
      <point x="209" y="227" name="WORFDSHE"/>
      <point x="209" y="341" type="curve" smooth="yes" name="KMZXZPEM"/>
      <point x="209" y="513" name="PKHOKEQK"/>
      <point x="376" y="578" name="MHCAUDNE"/>
      <point x="597" y="490" type="curve" name="BGXOXAES"/>
      <point x="597" y="546" name="OOJTVVII"/>
      <point x="597" y="603" name="DBNATENP"/>
      <point x="597" y="659" type="curve" name="VEHNJYTS"/>
      <point x="248" y="767" name="YTDBFZJD"/>
      <point x="31" y="590" name="KBKUAUIS"/>
      <point x="31" y="334" type="curve" smooth="yes" name="BNTSDMVF"/>
      <point x="31" y="73" name="FRMGVAWW"/>
      <point x="267" y="-105" name="QDASGGMT"/>
      <point x="614" y="36" type="curve" name="HSJMEXAB"/>
      <point x="614" y="36" name="RLRCQVYD"/>
      <point x="614" y="36" name="KECUMIHF"/>
    </contour>
    <contour>
      <point x="546" y="198" type="curve" name="INOZOWEA"/>
      <point x="545" y="197" name="JRPFZBLI"/>
      <point x="545" y="197" name="MINCCQOM"/>
      <point x="544" y="196" type="curve" name="CUMXKXEC"/>
      <point x="545" y="197" name="IVUMVMAS"/>
      <point x="545" y="197" name="UCDUEDLC"/>
    </contour>
  </outline>
</glyph>
<glyph name="H" format="2">
  <advance width="693"/>
  <unicode hex="0048"/>
  <outline>
    <contour>
      <point x="240" y="0" type="curve" name="WCBBECCN"/>
      <point x="240" y="90" name="JCDYTCJL"/>
      <point x="240" y="184" name="DVWIGRUM"/>
      <point x="240" y="274" type="curve" name="TFYOPQKM"/>
      <point x="310" y="274" name="ILQITLAK"/>
      <point x="383" y="274" name="VAHIYAIO"/>
      <point x="453" y="274" type="curve" name="NTWWDYMW"/>
      <point x="453" y="184" name="WBPJVHLR"/>
      <point x="453" y="90" name="KGXHMLTK"/>
      <point x="453" y="0" type="curve" name="MSLCJUPL"/>
      <point x="511" y="0" name="DLXIHISV"/>
      <point x="570" y="0" name="XMMRMZPN"/>
      <point x="628" y="0" type="curve" name="LEHEGQIU"/>
      <point x="628" y="224" name="UJNCCEIN"/>
      <point x="628" y="456" name="OGZKLDEL"/>
      <point x="628" y="680" type="curve" name="EDIQXMGB"/>
      <point x="570" y="680" name="PXXAGWZW"/>
      <point x="511" y="680" name="HMQJHDHZ"/>
      <point x="453" y="680" type="curve" name="OXQQKLXH"/>
      <point x="453" y="599" name="QZRGFQRI"/>
      <point x="453" y="516" name="YNLQBOWI"/>
      <point x="453" y="435" type="curve" name="AEUYOUKQ"/>
      <point x="383" y="435" name="KRAUNTTO"/>
      <point x="310" y="435" name="GMLFOBPN"/>
      <point x="240" y="435" type="curve" name="PCAKUFIK"/>
      <point x="240" y="516" name="TNPEOMLR"/>
      <point x="240" y="599" name="TNSHEILJ"/>
      <point x="240" y="680" type="curve" name="OYADZISU"/>
      <point x="182" y="680" name="XNUMRZOI"/>
      <point x="123" y="680" name="ZNWVUIXN"/>
      <point x="65" y="680" type="curve" name="NTGBTNAN"/>
      <point x="65" y="456" name="QERXBSDB"/>
      <point x="65" y="224" name="XYRNLPWS"/>
      <point x="65" y="0" type="curve" name="HETRWSBZ"/>
      <point x="123" y="0" name="CHEPODRB"/>
      <point x="182" y="0" name="VFSPPKAR"/>
    </contour>
  </outline>
</glyph>
<glyph name="I" format="2">
  <advance width="325"/>
  <unicode hex="0049"/>
  <outline>
    <contour>
      <point x="75" y="0" type="line"/>
      <point x="250" y="0" type="line"/>
      <point x="250" y="680" type="line"/>
      <point x="75" y="680" type="line"/>
    </contour>
  </outline>
</glyph>
<glyph name="J" format="2">
  <advance width="434"/>
  <unicode hex="004A"/>
  <outline>
    <contour>
      <point x="379" y="235" type="curve" name="CVPBJXKL"/>
      <point x="379" y="382" name="DUJTQHEB"/>
      <point x="379" y="533" name="HXQWHJHV"/>
      <point x="379" y="680" type="curve" name="RYIUICCI"/>
      <point x="321" y="680" name="QYTJHSQI"/>
      <point x="262" y="680" name="PWKGAJDF"/>
      <point x="204" y="680" type="curve" name="IENEFFTU"/>
      <point x="204" y="533" name="UICRQJEQ"/>
      <point x="204" y="382" name="RVNAIJSZ"/>
      <point x="204" y="235" type="curve" smooth="yes" name="ERJSONZZ"/>
      <point x="204" y="152" name="WZVINRUW"/>
      <point x="148" y="135" name="FKAOMQVH"/>
      <point x="20" y="171" type="curve" name="NMRZPVUH"/>
      <point x="20" y="116" name="BWRVFXUA"/>
      <point x="20" y="60" name="XRIYTGZD"/>
      <point x="20" y="5" type="curve" name="SVCPEHHT"/>
      <point x="280" y="-55" name="IVUAUTUP"/>
      <point x="379" y="51" name="QGFJEOKN"/>
      <point x="379" y="235" type="curve" name="WNUWYESW"/>
      <point x="379" y="235" name="FLSVWZGF"/>
      <point x="379" y="235" name="QNKZRQWL"/>
    </contour>
  </outline>
</glyph>
<glyph name="K" format="2">
  <advance width="645"/>
  <unicode hex="004B"/>
  <anchor x="340.0" y="0" name="below"/>
  <anchor x="340.0" y="680.0" name="above"/>
  <outline>
    <contour>
      <point x="65" y="0" type="curve" name="IGOLHHRJ"/>
      <point x="123" y="0" name="OVWJILIA"/>
      <point x="182" y="0" name="TFSXANMV"/>
      <point x="240" y="0" type="curve" name="PUDIFIIQ"/>
      <point x="240" y="94" name="YUTCAAGP"/>
      <point x="240" y="190" name="MLFIPXUS"/>
      <point x="240" y="284" type="curve" name="ZLWKNGUX"/>
      <point x="308" y="190" name="ZVXTXGGI"/>
      <point x="378" y="94" name="GOPKCSCU"/>
      <point x="446" y="0" type="curve" name="QOZWLMWG"/>
      <point x="515" y="0" name="NBPFTUTG"/>
      <point x="586" y="0" name="EEKCJFHH"/>
      <point x="655" y="0" type="curve" name="KOHKNAJN"/>
      <point x="567" y="118" name="OZDXYWFT"/>
      <point x="476" y="239" name="HGYSSRPS"/>
      <point x="388" y="357" type="curve" name="MWBXQFCG"/>
      <point x="472" y="464" name="DYIMNEHA"/>
      <point x="559" y="573" name="LUEVBDYX"/>
      <point x="643" y="680" type="curve" name="TFHBVIUH"/>
      <point x="578" y="680" name="YAKRRSXN"/>
      <point x="510" y="680" name="ROHNVGIB"/>
      <point x="445" y="680" type="curve" name="EZJJFSUZ"/>
      <point x="377" y="593" name="PNFFSPMD"/>
      <point x="308" y="504" name="BEPTJMKX"/>
      <point x="240" y="417" type="curve" name="KNDMKMND"/>
      <point x="240" y="504" name="ROHVIILV"/>
      <point x="240" y="593" name="EYKEYMGX"/>
      <point x="240" y="680" type="curve" name="CJHRXBJZ"/>
      <point x="182" y="680" name="IFJUMRQZ"/>
      <point x="123" y="680" name="PUGGIZYZ"/>
      <point x="65" y="680" type="curve" name="YOAFKGQJ"/>
      <point x="65" y="456" name="YNMFLCGO"/>
      <point x="65" y="224" name="UBDMZJNM"/>
    </contour>
  </outline>
</glyph>
<glyph name="L" format="2">
  <advance width="483"/>
  <unicode hex="004C"/>
  <outline>
    <contour>
      <point x="65" y="0" type="curve" name="PCNWDEEQ"/>
      <point x="193" y="0" name="IJAILIIM"/>
      <point x="325" y="0" name="HBENTWWI"/>
      <point x="453" y="0" type="curve" name="TEANIPRH"/>
      <point x="453" y="52" name="UJAGJAGS"/>
      <point x="453" y="107" name="JOKBPKGQ"/>
      <point x="453" y="159" type="curve" name="MXVRENFY"/>
      <point x="383" y="159" name="YJEPRHXW"/>
      <point x="310" y="159" name="WFMNZBKH"/>
      <point x="240" y="159" type="curve" name="EWVPKJFP"/>
      <point x="240" y="331" name="AQFSKTDG"/>
      <point x="240" y="508" name="FFMDJPGK"/>
      <point x="240" y="680" type="curve" name="NNOMSYHT"/>
      <point x="182" y="680" name="BAZXIZPD"/>
      <point x="123" y="680" name="LOPZYMQB"/>
      <point x="65" y="680" type="curve" name="AITIXISD"/>
      <point x="65" y="456" name="YKKVUBWF"/>
      <point x="65" y="224" name="LKMDMFVC"/>
    </contour>
  </outline>
</glyph>
<glyph name="M" format="2">
  <advance width="858"/>
  <unicode hex="004D"/>
  <outline>
    <contour>
      <point x="65" y="0" type="curve" name="EOIBLOKX"/>
      <point x="119" y="0" name="XNZRIAJR"/>
      <point x="176" y="0" name="OCMDNBEO"/>
      <point x="230" y="0" type="curve" name="LNUUDBJN"/>
      <point x="230" y="149" name="SKDBVUEO"/>
      <point x="230" y="304" name="ICMKVRXY"/>
      <point x="230" y="453" type="curve" name="VAOINELB"/>
      <point x="270" y="304" name="EOOJMAHU"/>
      <point x="310" y="149" name="QPPZXEJJ"/>
      <point x="350" y="0" type="curve" name="TLCASVOF"/>
      <point x="400" y="0" name="XEWUBBPW"/>
      <point x="452" y="0" name="TLAYJXNG"/>
      <point x="502" y="0" type="curve" name="LFCMWZPZ"/>
      <point x="542" y="152" name="GXCBBWYB"/>
      <point x="584" y="309" name="ATFBXLZT"/>
      <point x="624" y="461" type="curve" name="JVXSWVIE"/>
      <point x="624" y="309" name="IQSVWAUW"/>
      <point x="624" y="152" name="XYRFBCBH"/>
      <point x="624" y="0" type="curve" name="TJCGTTVC"/>
      <point x="680" y="0" name="JUCWGVWW"/>
      <point x="737" y="0" name="QJMGKOGC"/>
      <point x="793" y="0" type="curve" name="BAPIYUZZ"/>
      <point x="792" y="224" name="ELMSRBWL"/>
      <point x="790" y="456" name="HSTOWMKS"/>
      <point x="789" y="680" type="curve" name="NKVIVTOB"/>
      <point x="707" y="680" name="LBRIWAKP"/>
      <point x="624" y="680" name="QRBRDFVA"/>
      <point x="542" y="680" type="curve" name="XBOJQCOX"/>
      <point x="505" y="544" name="PUOINPPA"/>
      <point x="466" y="403" name="YGSSQYGL"/>
      <point x="429" y="267" type="curve" name="XHFRFCFQ"/>
      <point x="391" y="403" name="MZEOHRGS"/>
      <point x="353" y="544" name="GXQZKJDH"/>
      <point x="315" y="680" type="curve" name="MNPRODYE"/>
      <point x="232" y="680" name="AXQRBIXK"/>
      <point x="148" y="680" name="IEIQNAVU"/>
      <point x="65" y="680" type="curve" name="MURISXZG"/>
      <point x="65" y="456" name="AAQQWQUH"/>
      <point x="65" y="224" name="IFAEKOKG"/>
    </contour>
  </outline>
</glyph>
<glyph name="N" format="2">
  <advance width="693"/>
  <unicode hex="004E"/>
  <outline>
    <contour>
      <point x="65" y="0" type="curve" name="KVIRNXYP"/>
      <point x="122" y="0" name="LFUIXXYO"/>
      <point x="180" y="0" name="BOYXARKU"/>
      <point x="237" y="0" type="curve" name="QDRQPPCW"/>
      <point x="237" y="127" name="JSLTSIBS"/>
      <point x="237" y="257" name="ULVVSWAJ"/>
      <point x="237" y="384" type="curve" name="QJACVFCK"/>
      <point x="308" y="257" name="FLVUDGYX"/>
      <point x="381" y="127" name="HSCIPGQF"/>
      <point x="452" y="0" type="curve" name="BFGKSTMO"/>
      <point x="510" y="0" name="LSCMYVCQ"/>
      <point x="570" y="0" name="JZOZYZRU"/>
      <point x="628" y="0" type="curve" name="FCOEMRTH"/>
      <point x="628" y="224" name="PLNSKFOZ"/>
      <point x="628" y="456" name="EHIIZIQO"/>
      <point x="628" y="680" type="curve" name="AHTQYVGW"/>
      <point x="571" y="680" name="HFLARWOF"/>
      <point x="513" y="680" name="BTKWOGOU"/>
      <point x="456" y="680" type="curve" name="GFAOTYKJ"/>
      <point x="456" y="553" name="MAVBUNUD"/>
      <point x="456" y="423" name="WKTHYIYC"/>
      <point x="456" y="296" type="curve" name="EQYRYGEY"/>
      <point x="385" y="423" name="LDWOGHQB"/>
      <point x="312" y="553" name="WLOEGLMT"/>
      <point x="241" y="680" type="curve" name="XLOSKXTJ"/>
      <point x="183" y="680" name="XANZICMP"/>
      <point x="123" y="680" name="AFIDNMJJ"/>
      <point x="65" y="680" type="curve" name="SAZRIQWH"/>
      <point x="65" y="456" name="BJLYKYHO"/>
      <point x="65" y="224" name="HBPFETEB"/>
    </contour>
  </outline>
</glyph>
<glyph name="O" format="2">
  <advance width="736"/>
  <unicode hex="004F"/>
  <anchor x="368.0" y="680.0" name="above"/>
  <anchor x="368.0" y="1" name="below"/>
  <outline>
    <contour>
      <point x="368" y="-16" type="curve" name="EIQESVBQ"/>
      <point x="563" y="-16" name="EIFFMAGI"/>
      <point x="705" y="135" name="VSAKHEWW"/>
      <point x="705" y="341" type="curve" smooth="yes" name="LLILPSMR"/>
      <point x="705" y="546" name="GFUCZSKV"/>
      <point x="563" y="696" name="CILAFIVL"/>
      <point x="368" y="696" type="curve" smooth="yes" name="TVVPZBPL"/>
      <point x="172" y="696" name="DWLLPLCQ"/>
      <point x="31" y="546" name="WVYVJFWC"/>
      <point x="31" y="341" type="curve" smooth="yes" name="DEUWPGFF"/>
      <point x="31" y="135" name="SZFDTCXD"/>
      <point x="172" y="-16" name="EHXHVZMJ"/>
      <point x="368" y="-16" type="curve" name="LZULSQJP"/>
      <point x="368" y="-16" name="UYTEXEXX"/>
      <point x="368" y="-16" name="AYXSQUIZ"/>
    </contour>
    <contour>
      <point x="368" y="146" type="curve" name="RYOUZAAV"/>
      <point x="271" y="146" name="BEACLPZA"/>
      <point x="210" y="225" name="ORMBGYDM"/>
      <point x="210" y="341" type="curve" smooth="yes" name="EHFVPVRU"/>
      <point x="210" y="457" name="GRHCNLNC"/>
      <point x="271" y="534" name="GFZYJKAI"/>
      <point x="368" y="534" type="curve" smooth="yes" name="NDSIUGMS"/>
      <point x="465" y="534" name="AITPNCCQ"/>
      <point x="526" y="456" name="SVWQKWYK"/>
      <point x="526" y="341" type="curve" smooth="yes" name="VZHHPNWN"/>
      <point x="526" y="225" name="KBJPDJOJ"/>
      <point x="465" y="146" name="ISVDBWZB"/>
      <point x="368" y="146" type="curve" name="YHEVDIMZ"/>
      <point x="368" y="146" name="OIWZYYSI"/>
      <point x="368" y="146" name="MQMZSSEZ"/>
    </contour>
  </outline>
</glyph>
<glyph name="P" format="2">
  <advance width="593"/>
  <unicode hex="0050"/>
  <outline>
    <contour>
      <point x="65" y="0" type="curve" name="CKHXTKVI"/>
      <point x="123" y="0" name="JFOIXRGH"/>
      <point x="182" y="0" name="ORMNWKZL"/>
      <point x="240" y="0" type="curve" name="EMNPKNSF"/>
      <point x="240" y="69" name="CNBPJEOY"/>
      <point x="240" y="141" name="TNYIDTPM"/>
      <point x="240" y="210" type="curve" name="MKGKILSP"/>
      <point x="269" y="210" name="NGTCYAFQ"/>
      <point x="298" y="210" name="IABRAKPW"/>
      <point x="327" y="210" type="curve" smooth="yes" name="DMRMPFXR"/>
      <point x="465" y="210" name="JSSVMEIP"/>
      <point x="568" y="303" name="YKHSVLUZ"/>
      <point x="568" y="444" type="curve" smooth="yes" name="LWAMPVRH"/>
      <point x="568" y="585" name="EUSVDSLF"/>
      <point x="466" y="680" name="SOLBFLKT"/>
      <point x="313" y="680" type="curve" smooth="yes" name="PQYCFSBJ"/>
      <point x="231" y="680" name="JGNQFCXC"/>
      <point x="147" y="680" name="KUIODYXG"/>
      <point x="65" y="680" type="curve" name="OVTKPJFH"/>
      <point x="65" y="456" name="VATDMQIT"/>
      <point x="65" y="224" name="XYALLSTI"/>
    </contour>
    <contour>
      <point x="313" y="523" type="curve" smooth="yes" name="LHZSFZOP"/>
      <point x="363" y="523" name="LLZJRYSP"/>
      <point x="393" y="488" name="PBCDUNEZ"/>
      <point x="393" y="442" type="curve" smooth="yes" name="ADPKYGWY"/>
      <point x="393" y="396" name="RHFSDDMS"/>
      <point x="364" y="362" name="RDIFEBME"/>
      <point x="323" y="362" type="curve" smooth="yes" name="IHBRQNJP"/>
      <point x="296" y="362" name="AKBGBEAL"/>
      <point x="267" y="362" name="ZLBDVDPG"/>
      <point x="240" y="362" type="curve" name="GPLNDVBQ"/>
      <point x="240" y="415" name="XOFCAHXD"/>
      <point x="240" y="470" name="LDFGUKVS"/>
      <point x="240" y="523" type="curve" name="FZDPUHEI"/>
      <point x="264" y="523" name="EKXAMZRG"/>
      <point x="289" y="523" name="AJKNYWLD"/>
    </contour>
  </outline>
</glyph>
<glyph name="Q" format="2">
  <advance width="736"/>
  <unicode hex="0051"/>
  <outline>
    <contour>
      <point x="368" y="-16" type="curve" name="YCSQZHPY"/>
      <point x="399" y="-16" name="SYZIFUFH"/>
      <point x="428" y="-12" name="VWSDUXHM"/>
      <point x="456" y="-5" type="curve" name="BVTAEVPC"/>
      <point x="476" y="-38" name="FTBQEINS"/>
      <point x="497" y="-73" name="AMPTLMXV"/>
      <point x="517" y="-106" type="curve" name="FLRXHECC"/>
      <point x="562" y="-79" name="UCFLQRKV"/>
      <point x="609" y="-51" name="VXXNCFKW"/>
      <point x="654" y="-24" type="curve" name="BKDWNRXU"/>
      <point x="635" y="7" name="RBFJPUDK"/>
      <point x="615" y="40" name="OTJUORTJ"/>
      <point x="596" y="71" type="curve" name="QVNRUIOC"/>
      <point x="664" y="135" name="CATCJESC"/>
      <point x="705" y="230" name="RWVLDYMW"/>
      <point x="705" y="341" type="curve" smooth="yes" name="LOMTFGVD"/>
      <point x="705" y="546" name="GWAVJORP"/>
      <point x="563" y="696" name="JMDQKTIQ"/>
      <point x="368" y="696" type="curve" smooth="yes" name="ZXQFOHMY"/>
      <point x="172" y="696" name="UWXQSQPC"/>
      <point x="31" y="546" name="JECXBBXJ"/>
      <point x="31" y="341" type="curve" smooth="yes" name="KYKWBEBP"/>
      <point x="31" y="135" name="PUMGMYJM"/>
      <point x="172" y="-16" name="BVCVWYBQ"/>
      <point x="368" y="-16" type="curve" name="FKRPXZHT"/>
      <point x="368" y="-16" name="UWQKASEJ"/>
      <point x="368" y="-16" name="LVZKGOBN"/>
    </contour>
    <contour>
      <point x="210" y="341" type="curve" name="PUFIENIH"/>
      <point x="210" y="457" name="ZRBYBUSO"/>
      <point x="271" y="534" name="WNNSEQLV"/>
      <point x="368" y="534" type="curve" smooth="yes" name="HNQXXGUM"/>
      <point x="465" y="534" name="VKBKOGSS"/>
      <point x="526" y="456" name="DKEKCBQE"/>
      <point x="526" y="341" type="curve" smooth="yes" name="PJCXQUBI"/>
      <point x="526" y="297" name="HVFKZAPP"/>
      <point x="517" y="258" name="QLQBZLLS"/>
      <point x="501" y="227" type="curve" name="BRHGFBIP"/>
      <point x="480" y="261" name="DJDIYZBN"/>
      <point x="459" y="296" name="DZSGMFFH"/>
      <point x="438" y="330" type="curve" name="JGWLZQJX"/>
      <point x="393" y="303" name="UMUFBINP"/>
      <point x="346" y="275" name="BHTXBBCX"/>
      <point x="301" y="248" type="curve" name="CXKXDXTT"/>
      <point x="322" y="214" name="KYNJDWIL"/>
      <point x="343" y="179" name="YQOQJMDF"/>
      <point x="364" y="145" type="curve" name="LNPVRSAF"/>
      <point x="269" y="147" name="IRFWZLVY"/>
      <point x="210" y="226" name="MKQDFLCW"/>
      <point x="210" y="341" type="curve" name="RYIBPAYF"/>
      <point x="210" y="341" name="CZUTGJGN"/>
      <point x="210" y="341" name="PTROEVGY"/>
    </contour>
  </outline>
</glyph>
<glyph name="R" format="2">
  <advance width="626"/>
  <unicode hex="0052"/>
  <outline>
    <contour>
      <point x="65" y="0" type="curve" name="TTIRSAMF"/>
      <point x="123" y="0" name="WFWJTWSQ"/>
      <point x="182" y="0" name="DPILQHBS"/>
      <point x="240" y="0" type="curve" name="UVSIHWEW"/>
      <point x="240" y="75" name="ILQEDELL"/>
      <point x="240" y="153" name="CWSHZHJM"/>
      <point x="240" y="228" type="curve" name="MYZBKJUJ"/>
      <point x="263" y="228" name="QLPGGEAE"/>
      <point x="286" y="228" name="VNAJUNEF"/>
      <point x="309" y="228" type="curve" name="GGVOIFZZ"/>
      <point x="351" y="153" name="RQOXTOLH"/>
      <point x="393" y="75" name="DPWGMLLG"/>
      <point x="435" y="0" type="curve" name="LHSPWHRU"/>
      <point x="500" y="0" name="RPQPOSRI"/>
      <point x="566" y="0" name="CFFYPSVX"/>
      <point x="631" y="0" type="curve" name="FXTNSATL"/>
      <point x="578" y="89" name="QTBMSCBX"/>
      <point x="523" y="182" name="IQAQCRDU"/>
      <point x="470" y="271" type="curve" name="JIWOGKMW"/>
      <point x="525" y="310" name="HXZKNVCJ"/>
      <point x="559" y="372" name="OEXYKUKA"/>
      <point x="559" y="451" type="curve" smooth="yes" name="MBNLMRFJ"/>
      <point x="559" y="588" name="KSHDPEUH"/>
      <point x="458" y="680" name="XNRDVBAH"/>
      <point x="306" y="680" type="curve" smooth="yes" name="XCRLPEZH"/>
      <point x="226" y="680" name="BLIIDTJX"/>
      <point x="145" y="680" name="YXLSRKZE"/>
      <point x="65" y="680" type="curve" name="AFCDNTJA"/>
      <point x="65" y="456" name="VXQTKXZX"/>
      <point x="65" y="224" name="ZCBTXCTH"/>
    </contour>
    <contour>
      <point x="306" y="522" type="curve" smooth="yes" name="GFDXIKML"/>
      <point x="355" y="522" name="QGWRQRZE"/>
      <point x="384" y="490" name="NPLQWYNE"/>
      <point x="384" y="448" type="curve" smooth="yes" name="PEDZJVHT"/>
      <point x="384" y="406" name="OHCLTVGN"/>
      <point x="356" y="374" name="RQSJWBSH"/>
      <point x="316" y="374" type="curve" smooth="yes" name="HWCYWEBS"/>
      <point x="291" y="374" name="DNKGQIPF"/>
      <point x="265" y="374" name="ESCLYXLN"/>
      <point x="240" y="374" type="curve" name="YMXAGGPY"/>
      <point x="240" y="423" name="IGYSSNCB"/>
      <point x="240" y="473" name="GHOHALYP"/>
      <point x="240" y="522" type="curve" name="QOZFHFPH"/>
      <point x="262" y="522" name="ABHTXLLG"/>
      <point x="284" y="522" name="HDNGCCNU"/>
    </contour>
  </outline>
</glyph>
<glyph name="S" format="2">
  <advance width="538"/>
  <unicode hex="0053"/>
  <outline>
    <contour>
      <point x="512" y="205" type="curve" name="XVEJXDSD"/>
      <point x="512" y="437" name="CJONPZBL"/>
      <point x="220" y="399" name="TCRINBPG"/>
      <point x="220" y="481" type="curve" smooth="yes" name="IVMQQQGE"/>
      <point x="220" y="536" name="MSXORLHW"/>
      <point x="337" y="550" name="CABKESII"/>
      <point x="477" y="491" type="curve" name="WKFJPCDV"/>
      <point x="477" y="548" name="VSUIPFTE"/>
      <point x="477" y="606" name="FVFSQYPJ"/>
      <point x="477" y="663" type="curve" name="BDBDHWIJ"/>
      <point x="252" y="728" name="TCMEKQLA"/>
      <point x="41" y="659" name="OUYOMRAL"/>
      <point x="41" y="477" type="curve" smooth="yes" name="MKQTIDLD"/>
      <point x="41" y="255" name="BLAVIFFR"/>
      <point x="333" y="290" name="ZBXBIUQE"/>
      <point x="333" y="205" type="curve" smooth="yes" name="QULRYRWG"/>
      <point x="333" y="145" name="CGADFFWK"/>
      <point x="207" y="135" name="FLRYKLOL"/>
      <point x="51" y="192" type="curve" name="GNZVORTW"/>
      <point x="51" y="135" name="QQMZLLRL"/>
      <point x="51" y="77" name="HKSONLUM"/>
      <point x="51" y="20" type="curve" name="QKVLXWVO"/>
      <point x="277" y="-42" name="KRMYDPUT"/>
      <point x="512" y="1" name="LYJSVXPZ"/>
      <point x="512" y="205" type="curve" name="YAOCUCFQ"/>
      <point x="512" y="205" name="YDBTKICF"/>
      <point x="512" y="205" name="OVEHPZEY"/>
    </contour>
  </outline>
</glyph>
<glyph name="T" format="2">
  <advance width="542"/>
  <unicode hex="0054"/>
  <outline>
    <contour>
      <point x="184" y="0" type="curve" name="LYOIHKTK"/>
      <point x="242" y="0" name="UCGLFWQA"/>
      <point x="301" y="0" name="WRHDQCFU"/>
      <point x="359" y="0" type="curve" name="KQSECJXS"/>
      <point x="359" y="172" name="OHCIUTDJ"/>
      <point x="359" y="349" name="PBSSZMRM"/>
      <point x="359" y="521" type="curve" name="KRHFXOHU"/>
      <point x="409" y="521" name="BXJCBYXP"/>
      <point x="462" y="521" name="JRBBDQQT"/>
      <point x="512" y="521" type="curve" name="VSWWPVIG"/>
      <point x="512" y="573" name="AISOCPRW"/>
      <point x="512" y="628" name="MXTFGOGH"/>
      <point x="512" y="680" type="curve" name="PQAWKPWY"/>
      <point x="353" y="680" name="QUCUGGAJ"/>
      <point x="189" y="680" name="ZPTATXYA"/>
      <point x="30" y="680" type="curve" name="XCJINADH"/>
      <point x="30" y="628" name="QRDPHKMN"/>
      <point x="30" y="573" name="FOTQKNTT"/>
      <point x="30" y="521" type="curve" name="PDEHLLLG"/>
      <point x="81" y="521" name="DATJZRJZ"/>
      <point x="133" y="521" name="MCVBMDKO"/>
      <point x="184" y="521" type="curve" name="EUYEZEWV"/>
      <point x="184" y="349" name="TKBFRRGO"/>
      <point x="184" y="172" name="UZSPYASA"/>
    </contour>
  </outline>
</glyph>
<glyph name="U" format="2">
  <advance width="673"/>
  <unicode hex="0055"/>
  <outline>
    <contour>
      <point x="618" y="257" type="curve" smooth="yes" name="JJBQTHGN"/>
      <point x="618" y="91" name="PGXVWTMZ"/>
      <point x="497" y="-16" name="EDNGWWTQ"/>
      <point x="337" y="-16" type="curve" smooth="yes" name="PZLJACGQ"/>
      <point x="175" y="-16" name="QCOHBWHL"/>
      <point x="55" y="91" name="EIAXFAHQ"/>
      <point x="55" y="257" type="curve" smooth="yes" name="NFBHRRXP"/>
      <point x="55.0" y="397" name="ZEVYNQRA"/>
      <point x="55.0" y="539" name="SSNSFRIQ"/>
      <point x="55" y="680" type="curve" name="BLTUNYVN"/>
      <point x="114" y="680" name="ZXKGUVJP"/>
      <point x="173" y="680" name="DOVFGXFF"/>
      <point x="230" y="680" type="curve" name="ZLJTMBJN"/>
      <point x="230.0" y="543" name="HFPBEYRK"/>
      <point x="230.0" y="406" name="XYFOMYCM"/>
      <point x="230" y="269" type="curve" smooth="yes" name="JEBBKCLB"/>
      <point x="230" y="198" name="OWXHWLUF"/>
      <point x="274" y="149" name="FOQVPUSN"/>
      <point x="337" y="149" type="curve" smooth="yes" name="GYVWHSDS"/>
      <point x="399" y="149" name="RSPKAOVJ"/>
      <point x="443" y="198" name="CPBDGOWM"/>
      <point x="443" y="269" type="curve" smooth="yes" name="QAKLABXC"/>
      <point x="443.0" y="406" name="DQWJPROG"/>
      <point x="443.0" y="543" name="OYDOKDZA"/>
      <point x="443" y="680" type="curve" name="XBJAGZTR"/>
      <point x="503" y="680" name="DLZIVPEK"/>
      <point x="562" y="680" name="NEBCASXP"/>
      <point x="618" y="680" type="curve" name="OAHWBMNS"/>
      <point x="618.0" y="539" name="GGHFLGVO"/>
      <point x="618.0" y="398" name="IPWOVHSB"/>
    </contour>
  </outline>
</glyph>
<glyph name="V" format="2">
  <advance width="647"/>
  <unicode hex="0056"/>
  <outline>
    <contour>
      <point x="178" y="680" type="curve" name="ASDIVAFO"/>
      <point x="119" y="680" name="ELFXZZQE"/>
      <point x="59" y="680" name="RVDAXPAV"/>
      <point x="0" y="680" type="curve" name="PNGGMJJW"/>
      <point x="72" y="456" name="PLLASDJU"/>
      <point x="147" y="224" name="ADZQCZKZ"/>
      <point x="219" y="0" type="curve" name="EWGXDXUZ"/>
      <point x="288" y="0" name="YQYPJCHW"/>
      <point x="359" y="0" name="ALEBWBAT"/>
      <point x="428" y="0" type="curve" name="SQAMZPRE"/>
      <point x="500" y="224" name="GJDIVXFN"/>
      <point x="575" y="456" name="DFFGWULH"/>
      <point x="647" y="680" type="curve" name="SFSLLMNB"/>
      <point x="590" y="680" name="MCLWFWHF"/>
      <point x="530" y="680" name="MXVUMNEG"/>
      <point x="473" y="680" type="curve" name="NUIYTGYJ"/>
      <point x="424" y="528" name="UMRZBNAV"/>
      <point x="374" y="372" name="DRFIZXFO"/>
      <point x="325" y="220" type="curve" name="HMVECRNB"/>
      <point x="276" y="372" name="OJDBVQBE"/>
      <point x="227" y="528" name="PLVAZBCU"/>
    </contour>
  </outline>
</glyph>
<glyph name="W" format="2">
  <advance width="891"/>
  <unicode hex="0057"/>
  <outline>
    <contour>
      <point x="188" y="680" type="curve" name="JZIPMFPL"/>
      <point x="131" y="680" name="LXOUSQKI"/>
      <point x="72" y="680" name="UHJFPXNA"/>
      <point x="15" y="680" type="curve" name="XYSMZJFN"/>
      <point x="64" y="456" name="VRVFQFLO"/>
      <point x="114" y="224" name="KFEGVQDC"/>
      <point x="163" y="0" type="curve" name="QDLROVPI"/>
      <point x="228" y="0" name="MDPBAABO"/>
      <point x="295" y="0" name="DVMIGCKL"/>
      <point x="360" y="0" type="curve" name="RERULRAW"/>
      <point x="387" y="124" name="EYSGUEXM"/>
      <point x="415" y="251" name="PJRZXOBP"/>
      <point x="442" y="375" type="curve" name="DPNBGPZR"/>
      <point x="470" y="251" name="DLUEAVNN"/>
      <point x="500" y="124" name="EFRVLNEV"/>
      <point x="528" y="0" type="curve" name="IVHBDKFB"/>
      <point x="594" y="0" name="UGZKZJXS"/>
      <point x="662" y="0" name="DOGGYCGF"/>
      <point x="728" y="0" type="curve" name="QZGTMRND"/>
      <point x="777" y="224" name="UXEKBYLA"/>
      <point x="827" y="456" name="JZDWXTGN"/>
      <point x="876" y="680" type="curve" name="TIEBMRCE"/>
      <point x="823" y="680" name="MRQKBSRD"/>
      <point x="768" y="680" name="VZQKVBBI"/>
      <point x="715" y="680" type="curve" name="XKTMXZUN"/>
      <point x="685" y="542" name="XZHSMBEM"/>
      <point x="655" y="401" name="LRUPFWGG"/>
      <point x="625" y="263" type="curve" name="JZAXPNKW"/>
      <point x="593" y="401" name="QLPYFGSF"/>
      <point x="561" y="542" name="GSMTXMUF"/>
      <point x="529" y="680" type="curve" name="HMHTRSKZ"/>
      <point x="477" y="680" name="WXBVJKDQ"/>
      <point x="423" y="680" name="FEJTQSYY"/>
      <point x="371" y="680" type="curve" name="HQZQEYAN"/>
      <point x="341" y="542" name="UJJQWMJL"/>
      <point x="309" y="399" name="KWDDUWKX"/>
      <point x="279" y="261" type="curve" name="EDYKDMFX"/>
      <point x="249" y="399" name="KRYLDFEP"/>
      <point x="218" y="542" name="OYJHURZE"/>
    </contour>
  </outline>
</glyph>
<glyph name="X" format="2">
  <advance width="648"/>
  <unicode hex="0058"/>
  <outline>
    <contour>
      <point x="18" y="680" type="curve" name="JEIQPZVN"/>
      <point x="83" y="571" name="TFNTNOJN"/>
      <point x="149" y="458" name="ERRRWOBO"/>
      <point x="214" y="349" type="curve" name="HXUJQHQA"/>
      <point x="145" y="234" name="QXOBWKKF"/>
      <point x="74" y="115" name="JQGVXZYU"/>
      <point x="5" y="0" type="curve" name="FNIFPEJR"/>
      <point x="69" y="0" name="RMYNSZST"/>
      <point x="135" y="0" name="YHVZAGYK"/>
      <point x="199" y="0" type="curve" name="QZTKPUIM"/>
      <point x="240" y="70" name="GXIMTWBC"/>
      <point x="283" y="142" name="AKWSMUBF"/>
      <point x="324" y="212" type="curve" name="NQXYZHRB"/>
      <point x="364" y="142" name="ORZUMEMW"/>
      <point x="406" y="70" name="GKWCSVKZ"/>
      <point x="446" y="0" type="curve" name="APBFARTZ"/>
      <point x="511" y="0" name="SKFFKJCB"/>
      <point x="578" y="0" name="TLZUCZPG"/>
      <point x="643" y="0" type="curve" name="RIZFJMBE"/>
      <point x="575" y="116" name="NWGSPWUB"/>
      <point x="504" y="236" name="LDOCAHDK"/>
      <point x="436" y="352" type="curve" name="IMHGUPKF"/>
      <point x="501" y="460" name="ROUOCZQC"/>
      <point x="568" y="572" name="DMFKERNO"/>
      <point x="633" y="680" type="curve" name="CSYKGYST"/>
      <point x="569" y="680" name="KQZJCMWO"/>
      <point x="503" y="680" name="INRUJIKA"/>
      <point x="439" y="680" type="curve" name="LKYOXQCU"/>
      <point x="402" y="617" name="MRYYKHOX"/>
      <point x="364" y="552" name="RGAAAILQ"/>
      <point x="327" y="489" type="curve" name="LIXBIXMW"/>
      <point x="290" y="552" name="GLEZNPVY"/>
      <point x="252" y="617" name="RBWLTIPL"/>
      <point x="215" y="680" type="curve" name="EHECLEIX"/>
      <point x="150" y="680" name="FCLVWQBF"/>
      <point x="83" y="680" name="ZIQNLCVQ"/>
    </contour>
  </outline>
</glyph>
<glyph name="Y" format="2">
  <advance width="599"/>
  <unicode hex="0059"/>
  <anchor x="300.0" y="0" name="below"/>
  <anchor x="300.0" y="680.0" name="above"/>
  <outline>
    <contour>
      <point x="212" y="0" type="curve" name="KZZRQFXC"/>
      <point x="270" y="0" name="FZVXFWWY"/>
      <point x="329" y="0" name="DUYTTNEH"/>
      <point x="387" y="0" type="curve" name="VQBOJXLN"/>
      <point x="387" y="81" name="JWBMKPDR"/>
      <point x="387" y="165" name="VLLMOBWI"/>
      <point x="387" y="246" type="curve" name="PNAUXCMS"/>
      <point x="458" y="389" name="ZGSAHSOF"/>
      <point x="532" y="537" name="DWOSVZMT"/>
      <point x="603" y="680" type="curve" name="HWHJAEFL"/>
      <point x="542" y="680" name="QDQPNEYT"/>
      <point x="480" y="680" name="BSJDSRZL"/>
      <point x="419" y="680" type="curve" name="BKKIQTWI"/>
      <point x="380" y="599" name="CPZKPWBV"/>
      <point x="340" y="516" name="NUIGODDB"/>
      <point x="301" y="435" type="curve" name="ATBBKDIM"/>
      <point x="262" y="516" name="NISLKRDQ"/>
      <point x="221" y="599" name="PRGBEMZQ"/>
      <point x="182" y="680" type="curve" name="JKDMAWSJ"/>
      <point x="121" y="680" name="PPTJVWJN"/>
      <point x="57" y="680" name="SGCLLQAF"/>
      <point x="-4" y="680" type="curve" name="LQJKQYYW"/>
      <point x="67" y="537" name="DMKAEALU"/>
      <point x="141" y="389" name="ULVZISVE"/>
      <point x="212" y="246" type="curve" name="UWQPIIWE"/>
      <point x="212" y="165" name="RBPZBXDZ"/>
      <point x="212" y="81" name="TNUDCZUV"/>
    </contour>
  </outline>
</glyph>
<glyph name="Z" format="2">
  <advance width="585"/>
  <unicode hex="005A"/>
  <anchor x="292.0" y="0" name="below"/>
  <anchor x="292.0" y="680.0" name="above"/>
  <outline>
    <contour>
      <point x="50" y="0" type="curve" name="KSKAECAP"/>
      <point x="210" y="0" name="QZPIVSLU"/>
      <point x="375" y="0" name="MSUVGQTZ"/>
      <point x="535" y="0" type="curve" name="BTUHYGNA"/>
      <point x="535" y="51" name="AUYEENXU"/>
      <point x="535" y="103" name="IAKYEQQB"/>
      <point x="535" y="154" type="curve" name="TQCOECXE"/>
      <point x="443" y="154" name="VZRFAERE"/>
      <point x="347" y="154" name="YYENITGM"/>
      <point x="255" y="154" type="curve" name="XEHTKCNW"/>
      <point x="347" y="277" name="ONSHSZRT"/>
      <point x="443" y="403" name="OFQLDWGM"/>
      <point x="535" y="526" type="curve" name="ZRASXDFV"/>
      <point x="535" y="577" name="MDVDLJLL"/>
      <point x="535" y="629" name="CYWTPVTO"/>
      <point x="535" y="680" type="curve" name="WNAMTKID"/>
      <point x="375" y="680" name="ZBTKJDEM"/>
      <point x="210" y="680" name="QTCLCXFA"/>
      <point x="50" y="680" type="curve" name="UDMNGKFL"/>
      <point x="50" y="629" name="ASVADZYJ"/>
      <point x="50" y="577" name="KBVODFHS"/>
      <point x="50" y="526" type="curve" name="ICQPKTVT"/>
      <point x="142" y="526" name="YAFPJIFD"/>
      <point x="238" y="526" name="WPIPBHPZ"/>
      <point x="330" y="526" type="curve" name="ALLFSVFV"/>
      <point x="238" y="403" name="AKXQVYKQ"/>
      <point x="142" y="277" name="QAXAYTNI"/>
      <point x="50" y="154" type="curve" name="ELUOFEYK"/>
      <point x="50" y="103" name="VGKAIRJF"/>
      <point x="50" y="51" name="HFGBLIEZ"/>
    </contour>
  </outline>
</glyph>
<glyph name="bracketleft" format="2">
  <advance width="445"/>
  <unicode hex="005B"/>
  <outline>
    <contour>
      <point x="75" y="-160" type="curve" name="QLMMKHQV"/>
      <point x="184" y="-160" name="BYWYYUDL"/>
      <point x="296" y="-160" name="VMKYWNLQ"/>
      <point x="405" y="-160" type="curve" name="LECRQDQK"/>
      <point x="405" y="-112" name="ZLCTQMBT"/>
      <point x="405" y="-63" name="PENABKHD"/>
      <point x="405" y="-15" type="curve" name="XMIFBAHJ"/>
      <point x="351" y="-15" name="NUPPGCJM"/>
      <point x="294" y="-15" name="AAINFCXG"/>
      <point x="240" y="-15" type="curve" name="DNTJLKNJ"/>
      <point x="240" y="196" name="UJNFVYZB"/>
      <point x="240" y="414" name="ADIMHQDN"/>
      <point x="240" y="625" type="curve" name="JPSMZALG"/>
      <point x="294" y="625" name="CLJJCLCB"/>
      <point x="351" y="625" name="KNVYZXRI"/>
      <point x="405" y="625" type="curve" name="RCUVCCIE"/>
      <point x="405" y="673" name="SCCNIPAQ"/>
      <point x="405" y="722" name="PCJWPPNI"/>
      <point x="405" y="770" type="curve" name="ZGIHEOOR"/>
      <point x="296" y="770" name="MFXCCGVJ"/>
      <point x="184" y="770" name="NOSXNMPL"/>
      <point x="75" y="770" type="curve" name="WKHZFDBH"/>
      <point x="75" y="463" name="XMTHUETP"/>
      <point x="75" y="147" name="MKESZPOT"/>
    </contour>
  </outline>
</glyph>
<glyph name="backslash" format="2">
  <advance width="490"/>
  <unicode hex="005C"/>
  <outline>
    <contour>
      <point x="485" y="-160" type="curve" name="MRZMCEJD"/>
      <point x="386" y="147" name="COKUUDNW"/>
      <point x="284" y="463" name="XKAKZIDT"/>
      <point x="185" y="770" type="curve" name="XUCZYOGB"/>
      <point x="131" y="770" name="UNJLITUE"/>
      <point x="74" y="770" name="AMJQAMTZ"/>
      <point x="20" y="770" type="curve" name="AFYBFOTT"/>
      <point x="119" y="463" name="GJEWYWVH"/>
      <point x="221" y="147" name="UQVOOEVM"/>
      <point x="320" y="-160" type="curve" name="QNDXGEXW"/>
      <point x="374" y="-160" name="DHNKPTXK"/>
      <point x="431" y="-160" name="ALYCLROW"/>
    </contour>
  </outline>
</glyph>
<glyph name="bracketright" format="2">
  <advance width="445"/>
  <unicode hex="005D"/>
  <outline>
    <contour>
      <point x="370" y="-160" type="curve" name="FBVIKMBN"/>
      <point x="370" y="147" name="GUKPCMHJ"/>
      <point x="370" y="463" name="RTUGQJSN"/>
      <point x="370" y="770" type="curve" name="BSNMNYUX"/>
      <point x="261" y="770" name="BZDZXIVD"/>
      <point x="149" y="770" name="CWNJAUAX"/>
      <point x="40" y="770" type="curve" name="BIZSUNUQ"/>
      <point x="40" y="722" name="MDUBEJSB"/>
      <point x="40" y="673" name="ATSHZPYR"/>
      <point x="40" y="625" type="curve" name="RPBZLUOW"/>
      <point x="94" y="625" name="ZTBTRKXT"/>
      <point x="151" y="625" name="TSXOJWTT"/>
      <point x="205" y="625" type="curve" name="XXYLDXBS"/>
      <point x="205" y="414" name="UNVPHXSP"/>
      <point x="205" y="196" name="ZWPJIQJX"/>
      <point x="205" y="-15" type="curve" name="IKDWGFTZ"/>
      <point x="151" y="-15" name="TPFOGLHT"/>
      <point x="94" y="-15" name="FQXXDFRU"/>
      <point x="40" y="-15" type="curve" name="BHYIJCSA"/>
      <point x="40" y="-63" name="AVSTIORJ"/>
      <point x="40" y="-112" name="CMPXVWQH"/>
      <point x="40" y="-160" type="curve" name="UFDMEDQZ"/>
      <point x="149" y="-160" name="IEPCAQJR"/>
      <point x="261" y="-160" name="KAGCIYDM"/>
    </contour>
  </outline>
</glyph>
<glyph name="asciicircum" format="2">
  <advance width="560"/>
  <unicode hex="005E"/>
  <outline>
    <contour>
      <point x="25" y="263" type="curve" name="URPTHNDW"/>
      <point x="82" y="263" name="ONGUNZJF"/>
      <point x="141" y="263" name="SDQWFFYN"/>
      <point x="198" y="263" type="curve" name="NNPQSMDH"/>
      <point x="224" y="333" name="TYJUUCPU"/>
      <point x="252" y="404" name="LGWGYEVD"/>
      <point x="278" y="474" type="curve" name="AVOJUFGG"/>
      <point x="305" y="404" name="YZQJVYCI"/>
      <point x="332" y="333" name="MGFYYJRS"/>
      <point x="359" y="263" type="curve" name="ALAUJOWG"/>
      <point x="417" y="263" name="NNCNXRPX"/>
      <point x="477" y="263" name="GBEMBBUN"/>
      <point x="535" y="263" type="curve" name="GHLJTRZG"/>
      <point x="479" y="401" name="CHMSQMYG"/>
      <point x="422" y="542" name="EHKLHPEW"/>
      <point x="366" y="680" type="curve" name="HSJCUJWI"/>
      <point x="309" y="680" name="HDDULLDQ"/>
      <point x="251" y="680" name="XLDYFPAO"/>
      <point x="194" y="680" type="curve" name="JEMWMFRP"/>
      <point x="138" y="542" name="SPMUFHOD"/>
      <point x="81" y="401" name="VRXIECJB"/>
    </contour>
  </outline>
</glyph>
<glyph name="underscore" format="2">
  <advance width="615"/>
  <unicode hex="005F"/>
  <outline>
    <contour>
      <point x="-5" y="-155" type="curve" name="DQQFDAPL"/>
      <point x="201" y="-155" name="LYFAIGBU"/>
      <point x="414" y="-155" name="NHKFPRIC"/>
      <point x="620" y="-155" type="curve" name="ZVKYOTNZ"/>
      <point x="620" y="-104" name="GOILXJEA"/>
      <point x="620" y="-51" name="ACLLUJCH"/>
      <point x="620" y="0" type="curve" name="UKKLHCFG"/>
      <point x="414" y="0" name="PYNAJVLZ"/>
      <point x="201" y="0" name="SHOOALFG"/>
      <point x="-5" y="0" type="curve" name="LFPMPNXC"/>
      <point x="-5" y="-51" name="NIUNNBSG"/>
      <point x="-5" y="-104" name="OUSEFUQR"/>
    </contour>
  </outline>
</glyph>
<glyph name="grave" format="2">
  <advance width="408"/>
  <unicode hex="0060"/>
  <anchor x="0" y="517" name="top"/>
  <anchor x="254" y="517" name="center"/>
  <outline>
    <contour>
      <point x="338" y="584" type="curve" name="JOFIFMCR"/>
      <point x="302" y="652" name="EROMMVFF"/>
      <point x="265" y="722" name="TDYSUWCI"/>
      <point x="229" y="790" type="curve" name="MZMYTSRN"/>
      <point x="170" y="790" name="FRHTJWII"/>
      <point x="109" y="790" name="NEWSIITD"/>
      <point x="50" y="790" type="curve" name="TVVNKJII"/>
      <point x="94" y="722" name="YHPKHWXK"/>
      <point x="140" y="652" name="AZOJNTUL"/>
      <point x="184" y="584" type="curve" name="DHFJOATT"/>
      <point x="235" y="584" name="ASHESZUI"/>
      <point x="287" y="584" name="TZPGSYJI"/>
    </contour>
  </outline>
</glyph>
<glyph name="a" format="2">
  <advance width="630"/>
  <unicode hex="0061"/>
  <outline>
    <contour>
      <point x="415" y="0" type="line" name="FCIDAKMJ"/>
      <point x="580" y="0" type="line" name="TSNBBEQF"/>
      <point x="580.0" y="179" name="YVDUHGAQ"/>
      <point x="580.0" y="358" name="KCPKNJWE"/>
      <point x="580" y="537" type="curve" name="ZTZMQOVV"/>
      <point x="415" y="537" type="line" name="JBEZRRHE"/>
      <point x="415" y="501" type="line" name="LONMWXVQ"/>
      <point x="380" y="532" name="OSMZJWSX"/>
      <point x="333" y="551" name="ERJOTFHM"/>
      <point x="278" y="551" type="curve" smooth="yes" name="KWEALASJ"/>
      <point x="138" y="551" name="TCPCYDKI"/>
      <point x="30" y="433" name="RKWVDBYP"/>
      <point x="30" y="269" type="curve" smooth="yes" name="OCOQDSEA"/>
      <point x="30" y="107" name="DPVLEZRK"/>
      <point x="138" y="-14" name="JUFCQLSO"/>
      <point x="279" y="-14" type="curve" smooth="yes" name="JFRHNIFE"/>
      <point x="333" y="-14" name="GGOWYTLF"/>
      <point x="380" y="5" name="LEOMYRXW"/>
      <point x="415" y="36" type="curve" name="PENNIZFU"/>
    </contour>
    <contour>
      <point x="308" y="134" type="curve" smooth="yes" name="OKTVCOQN"/>
      <point x="240" y="134" name="VZXSAXNI"/>
      <point x="193" y="190" name="XUGHNENP"/>
      <point x="193" y="269" type="curve" smooth="yes" name="KCDJIDIN"/>
      <point x="193" y="348" name="TEHCACEE"/>
      <point x="240" y="403" name="WKNKHHED"/>
      <point x="308" y="403" type="curve" smooth="yes" name="WZEFLBCR"/>
      <point x="376" y="403" name="RGDAIAPN"/>
      <point x="423" y="348" name="VYVZYHNT"/>
      <point x="423" y="269" type="curve" smooth="yes" name="SKJFZIQX"/>
      <point x="423" y="190" name="FWPUJGUM"/>
      <point x="376" y="134" name="JMDBZORH"/>
    </contour>
  </outline>
</glyph>
<glyph name="b" format="2">
  <advance width="625"/>
  <unicode hex="0062"/>
  <outline>
    <contour>
      <point x="225" y="0" type="curve" name="NTIWZURW"/>
      <point x="225" y="10" name="VWJRIPBM"/>
      <point x="225" y="20" name="EGRRAIMX"/>
      <point x="225" y="30" type="curve" name="QHQHXEAN"/>
      <point x="258" y="2" name="UVFGCQGG"/>
      <point x="301" y="-14" name="WVVBSQKB"/>
      <point x="349" y="-14" type="curve" smooth="yes" name="MHNUIHWP"/>
      <point x="484" y="-14" name="QESTFBZR"/>
      <point x="598" y="99" name="WMVWUVIQ"/>
      <point x="598" y="259" type="curve" smooth="yes" name="XKTPJPAV"/>
      <point x="598" y="421" name="RVMVCBSI"/>
      <point x="484" y="531" name="TRKMMSAH"/>
      <point x="350" y="531" type="curve" smooth="yes" name="ZWAQZXCM"/>
      <point x="302" y="531" name="DGQUBRVY"/>
      <point x="258" y="515" name="LUIGAKMW"/>
      <point x="225" y="488" type="curve" name="PFOZHDWL"/>
      <point x="225" y="568" name="ZWWFAOIE"/>
      <point x="225" y="650" name="ORCSFLEH"/>
      <point x="225" y="730" type="curve" name="FSOVLHHF"/>
      <point x="171" y="730" name="ATRDVUFA"/>
      <point x="114" y="730" name="PPEZJINH"/>
      <point x="60" y="730" type="curve" name="ONKKJWQY"/>
      <point x="60" y="489" name="ZYMTPCJT"/>
      <point x="60" y="241" name="WFJEYRKO"/>
      <point x="60" y="0" type="curve" name="WVAWLGGV"/>
      <point x="114" y="0" name="YGNSDUMJ"/>
      <point x="171" y="0" name="YMBILJND"/>
    </contour>
    <contour>
      <point x="327" y="132" type="curve" name="KONSSEKA"/>
      <point x="263" y="132" name="EKEALSCD"/>
      <point x="221" y="183" name="SPBWIGZS"/>
      <point x="221" y="259" type="curve" smooth="yes" name="WACNGEIS"/>
      <point x="221" y="335" name="BOEBDNVW"/>
      <point x="263" y="385" name="QDIBMZRC"/>
      <point x="327" y="385" type="curve" smooth="yes" name="VYXJYLLI"/>
      <point x="392" y="385" name="ENCBQBMC"/>
      <point x="433" y="336" name="OSSIUVBL"/>
      <point x="433" y="259" type="curve" smooth="yes" name="DPSHREBV"/>
      <point x="433" y="182" name="YFZXPXMH"/>
      <point x="392" y="132" name="WNNKXWTV"/>
      <point x="327" y="132" type="curve" name="KWLZKPNM"/>
      <point x="327" y="132" name="OXCAQYLZ"/>
      <point x="327" y="132" name="JSLJZZNU"/>
    </contour>
  </outline>
</glyph>
<glyph name="c" format="2">
  <advance width="476"/>
  <unicode hex="0063"/>
  <anchor x="278" y="517" name="center"/>
  <outline>
    <contour>
      <point x="27" y="259" type="curve" name="YVKOMAPF"/>
      <point x="27" y="57" name="JRAVHJHD"/>
      <point x="206" y="-59" name="FEZXPCSX"/>
      <point x="428" y="8" type="curve" name="DLPMYXPA"/>
      <point x="428" y="59" name="HCLVNFAU"/>
      <point x="428" y="111" name="RNRPSTKV"/>
      <point x="428" y="162" type="curve" name="ZDCBCXNC"/>
      <point x="312" y="107" name="XDFSPSLK"/>
      <point x="196" y="139" name="HLRBOECE"/>
      <point x="196" y="259" type="curve" smooth="yes" name="PBYOMPXX"/>
      <point x="196" y="379" name="DXFBAQET"/>
      <point x="312" y="411" name="LDFXHNYB"/>
      <point x="428" y="356" type="curve" name="JQBERTZG"/>
      <point x="428" y="407" name="NFCHLHXV"/>
      <point x="428" y="459" name="IQQVWVCS"/>
      <point x="428" y="510" type="curve" name="OBTBCJCU"/>
      <point x="206" y="577" name="SWCREEGP"/>
      <point x="27" y="461" name="NPNYOOQN"/>
      <point x="27" y="259" type="curve" name="LXLEYETT"/>
      <point x="27" y="259" name="CFLOTENE"/>
      <point x="27" y="259" name="PDGUMHJM"/>
    </contour>
  </outline>
</glyph>
<glyph name="d" format="2">
  <advance width="625"/>
  <unicode hex="0064"/>
  <outline>
    <contour>
      <point x="400" y="0" type="curve" name="SIVNABFG"/>
      <point x="454" y="0" name="ERZDETKL"/>
      <point x="511" y="0" name="EVWPCBGO"/>
      <point x="565" y="0" type="curve" name="PIRTSANQ"/>
      <point x="565" y="241" name="MJCJZFLV"/>
      <point x="565" y="489" name="SRYMUKBQ"/>
      <point x="565" y="730" type="curve" name="WLDKYCOI"/>
      <point x="511" y="730" name="NQRNNVKH"/>
      <point x="454" y="730" name="NVCKSBLY"/>
      <point x="400" y="730" type="curve" name="CKDJYKXM"/>
      <point x="400" y="650" name="VCANAYLG"/>
      <point x="400" y="568" name="IKBFHMAQ"/>
      <point x="400" y="488" type="curve" name="IUFOOYMF"/>
      <point x="367" y="515" name="HLVCLBHI"/>
      <point x="323" y="531" name="HBIKYAVA"/>
      <point x="275" y="531" type="curve" smooth="yes" name="YWHMAVCC"/>
      <point x="141" y="531" name="EEDZEPIV"/>
      <point x="27" y="421" name="FFNOQKJF"/>
      <point x="27" y="259" type="curve" smooth="yes" name="KXOVEQBV"/>
      <point x="27" y="99" name="BHUQAXPI"/>
      <point x="141" y="-14" name="FNAMHFVM"/>
      <point x="276" y="-14" type="curve" smooth="yes" name="DZSVJXMI"/>
      <point x="324" y="-14" name="PKPAIPPG"/>
      <point x="367" y="2" name="TLDOQGSB"/>
      <point x="400" y="30" type="curve" name="PSXVODUS"/>
      <point x="400" y="20" name="NIYOQIUI"/>
      <point x="400" y="10" name="XYIGOMVH"/>
    </contour>
    <contour>
      <point x="298" y="132" type="curve" name="UHPXJAWW"/>
      <point x="233" y="132" name="DMAJYTEL"/>
      <point x="192" y="182" name="MYBIUPOO"/>
      <point x="192" y="259" type="curve" smooth="yes" name="WMGVLRJK"/>
      <point x="192" y="336" name="BKMFBCQE"/>
      <point x="233" y="385" name="KWTOHTJH"/>
      <point x="298" y="385" type="curve" smooth="yes" name="BXVSYSGN"/>
      <point x="362" y="385" name="FLIHGAHU"/>
      <point x="404" y="335" name="LQUONJIN"/>
      <point x="404" y="259" type="curve" smooth="yes" name="SFGFWOTR"/>
      <point x="404" y="183" name="RSPKPAZG"/>
      <point x="362" y="132" name="UBMHFNAO"/>
      <point x="298" y="132" type="curve" name="GVTSSYWL"/>
      <point x="298" y="132" name="FPQYIOGU"/>
      <point x="298" y="132" name="UQYKXTPA"/>
    </contour>
  </outline>
</glyph>
<glyph name="e" format="2">
  <advance width="567"/>
  <unicode hex="0065"/>
  <anchor x="294.0" y="522.0" name="above"/>
  <anchor x="297.0" y="-7" name="below"/>
  <outline>
    <contour>
      <point x="500" y="24" type="curve" name="WTRRARPB"/>
      <point x="500" y="71" name="NCSJCCGG"/>
      <point x="500" y="119" name="CWKLJFUB"/>
      <point x="500" y="166" type="curve" name="SHNHYSBI"/>
      <point x="359" y="113" name="NYUXADTS"/>
      <point x="237" y="122" name="MBTAYITR"/>
      <point x="199" y="198" type="curve" name="IOHJAISP"/>
      <point x="308" y="198" name="IGUNQRBF"/>
      <point x="420" y="198" name="BKBBDAIE"/>
      <point x="529" y="198" type="curve" name="CWNQBIWO"/>
      <point x="564" y="383" name="EAWFBKEO"/>
      <point x="466" y="533" name="RACORSBC"/>
      <point x="294" y="533" type="curve" smooth="yes" name="QMTPIBGM"/>
      <point x="139" y="533" name="RNKHUNVK"/>
      <point x="27" y="415" name="VCMGAGZM"/>
      <point x="27" y="259" type="curve" smooth="yes" name="QBOYLURL"/>
      <point x="27" y="21" name="JJEUUCRO"/>
      <point x="270" y="-74" name="FDDDBPFB"/>
      <point x="500" y="24" type="curve" name="LDUCBKCO"/>
      <point x="500" y="24" name="PCBYUJIZ"/>
      <point x="500" y="24" name="XEOWPTEC"/>
    </contour>
    <contour>
      <point x="290" y="385" type="curve" name="RSNCJONI"/>
      <point x="331" y="385" name="XMKMPSYX"/>
      <point x="364" y="365" name="LWXGIDCC"/>
      <point x="380" y="320" type="curve" name="YKINXCQO"/>
      <point x="320" y="320" name="ZIPTXXTO"/>
      <point x="259" y="320" name="BFODGBFY"/>
      <point x="199" y="320" type="curve" name="TQXVGQFK"/>
      <point x="216" y="364" name="HYNUHYZY"/>
      <point x="251" y="385" name="HLFRKESW"/>
      <point x="290" y="385" type="curve" name="QMDPANQC"/>
      <point x="290" y="385" name="QCWQBNZS"/>
      <point x="290" y="385" name="OGECAZUX"/>
    </contour>
  </outline>
</glyph>
<glyph name="f" format="2">
  <advance width="428"/>
  <unicode hex="0066"/>
  <outline>
    <contour>
      <point x="28" y="369" type="curve" name="PQBVMMZZ"/>
      <point x="55" y="369" name="LHEYUFXW"/>
      <point x="82" y="369" name="VRPRKJTP"/>
      <point x="109" y="369" type="curve" name="EZQAPKQC"/>
      <point x="109" y="247" name="AVOLNUDB"/>
      <point x="109" y="122" name="SNHQWSVI"/>
      <point x="109" y="0" type="curve" name="AVPSWASO"/>
      <point x="163" y="0" name="APUJMNLC"/>
      <point x="220" y="0" name="FTKLSSSF"/>
      <point x="274" y="0" type="curve" name="INTWHIYZ"/>
      <point x="274" y="122" name="IWDJLPLF"/>
      <point x="274" y="247" name="FRLACCYJ"/>
      <point x="274" y="369" type="curve" name="LZRKBFQL"/>
      <point x="315" y="369" name="MLHZKVVI"/>
      <point x="357" y="369" name="KCDURGWR"/>
      <point x="398" y="369" type="curve" name="QBRYHRIE"/>
      <point x="398" y="418" name="OMZTAOEW"/>
      <point x="398" y="468" name="IKPVMGAN"/>
      <point x="398" y="517" type="curve" name="NITHPVES"/>
      <point x="357" y="517" name="VSFFSLKW"/>
      <point x="315" y="517" name="FFNDPSHF"/>
      <point x="274" y="517" type="curve" name="JXSPZQGO"/>
      <point x="274" y="522" name="PERWKWKU"/>
      <point x="274" y="528" name="ZAIDJOSE"/>
      <point x="274" y="533" type="curve" smooth="yes" name="VJEBRWPJ"/>
      <point x="274" y="586" name="SJHYPVWS"/>
      <point x="338" y="604" name="VLFDPSAG"/>
      <point x="418" y="577" type="curve" name="ZROSSOZO"/>
      <point x="418" y="627" name="SGMCURUO"/>
      <point x="418" y="680" name="FGYSNDDX"/>
      <point x="418" y="730" type="curve" name="GOBTYGKT"/>
      <point x="275" y="777" name="FCIHUENP"/>
      <point x="109" y="712" name="XDJIWFUR"/>
      <point x="109" y="534" type="curve" smooth="yes" name="JZQZYXMT"/>
      <point x="109" y="528" name="XXPINOJN"/>
      <point x="109" y="523" name="UJALYLKI"/>
      <point x="109" y="517" type="curve" name="TYMEHZWL"/>
      <point x="82" y="517" name="EQOWKEZI"/>
      <point x="55" y="517" name="SNVCMLXV"/>
      <point x="28" y="517" type="curve" name="XSUXHRHM"/>
      <point x="28" y="468" name="LEIQXMQC"/>
      <point x="28" y="418" name="CVYDQNCI"/>
    </contour>
  </outline>
</glyph>
<glyph name="g" format="2">
  <advance width="596"/>
  <unicode hex="0067"/>
  <outline>
    <contour>
      <point x="541" y="84" type="curve" name="EXJRNSEZ"/>
      <point x="541" y="227" name="PYEDHIQT"/>
      <point x="541" y="374" name="OHZOSAQM"/>
      <point x="541" y="517" type="curve" name="EPOHJNKB"/>
      <point x="487" y="517" name="HUMPCIRB"/>
      <point x="430" y="517" name="ONWJXFKF"/>
      <point x="376" y="517" type="curve" name="KTYTOKMZ"/>
      <point x="376" y="508" name="FCCKNBDP"/>
      <point x="376" y="500" name="PNVTABVR"/>
      <point x="376" y="491" type="curve" name="NINPNZPY"/>
      <point x="344" y="514" name="PAODRPDH"/>
      <point x="302" y="528" name="HVOHXZCQ"/>
      <point x="254" y="528" type="curve" smooth="yes" name="XMSXNHOE"/>
      <point x="133" y="528" name="YIHKNJYS"/>
      <point x="27" y="428" name="ASYTKYES"/>
      <point x="27" y="283" type="curve" smooth="yes" name="EMJKKZIQ"/>
      <point x="27" y="143" name="AOLHXUFD"/>
      <point x="119" y="49" name="RBYRTFNV"/>
      <point x="245" y="49" type="curve" smooth="yes" name="TSTIIVCM"/>
      <point x="296" y="49" name="WHNSWJXX"/>
      <point x="341" y="64" name="BLODRZKR"/>
      <point x="374" y="90" type="curve" name="CIDFVTHR"/>
      <point x="374" y="84" name="GIHAHTYJ"/>
      <point x="374" y="78" name="VGWRVAHG"/>
      <point x="374" y="72" type="curve" smooth="yes" name="MSKVVYDK"/>
      <point x="374" y="-19" name="WRBCFORX"/>
      <point x="250" y="-55" name="AVQPIKHS"/>
      <point x="92" y="8" type="curve" name="EPDXOJFG"/>
      <point x="92" y="-44" name="QZQRYVXU"/>
      <point x="92" y="-97" name="FZFMNXWN"/>
      <point x="92" y="-149" type="curve" name="LHWZBDNS"/>
      <point x="329" y="-216" name="MAJPAAAU"/>
      <point x="541" y="-144" name="LCDRKOQM"/>
      <point x="541" y="84" type="curve" name="ZTOIQCGR"/>
      <point x="541" y="84" name="PGVBGGCU"/>
      <point x="541" y="84" name="MVLCEXWY"/>
    </contour>
    <contour>
      <point x="286" y="192" type="curve" name="TUGFZOHU"/>
      <point x="227" y="192" name="HYDWOLPH"/>
      <point x="190" y="230" name="GVWTGFPP"/>
      <point x="190" y="287" type="curve" smooth="yes" name="CEVYOJFQ"/>
      <point x="190" y="345" name="PNVNLSDY"/>
      <point x="227" y="384" name="KRULWVNM"/>
      <point x="286" y="384" type="curve" smooth="yes" name="FKASRTOA"/>
      <point x="342" y="384" name="DCCSRIRW"/>
      <point x="379" y="344" name="WJNBWLWK"/>
      <point x="379" y="287" type="curve" smooth="yes" name="CMTGXSYK"/>
      <point x="379" y="231" name="MUHSMQVY"/>
      <point x="342" y="192" name="LCSGHDFA"/>
      <point x="286" y="192" type="curve" name="LZMQDCLI"/>
      <point x="286" y="192" name="CPPQMVXG"/>
      <point x="286" y="192" name="QAGCZHMB"/>
    </contour>
  </outline>
</glyph>
<glyph name="h" format="2">
  <advance width="599"/>
  <unicode hex="0068"/>
  <anchor x="306.0" y="730" name="above"/>
  <anchor x="306.0" y="0" name="below"/>
  <outline>
    <contour>
      <point x="60" y="0" type="curve" name="LCWIMKYS"/>
      <point x="114" y="0" name="GNBDQPBX"/>
      <point x="171" y="0" name="GYIAAMBR"/>
      <point x="225" y="0" type="curve" name="EUPKYPAJ"/>
      <point x="225" y="96" name="CEFKHAYN"/>
      <point x="225" y="196" name="WDIZPVUA"/>
      <point x="225" y="292" type="curve" smooth="yes" name="IEOSWOPF"/>
      <point x="225" y="349" name="QZRKBKZM"/>
      <point x="256" y="381" name="PLJBRPGF"/>
      <point x="309" y="381" type="curve" smooth="yes" name="SAHFJDMF"/>
      <point x="362" y="381" name="DJXOMWBG"/>
      <point x="386" y="345" name="RJZTEQPK"/>
      <point x="386" y="292" type="curve" smooth="yes" name="TICIIHNN"/>
      <point x="386" y="196" name="VIMLVKNE"/>
      <point x="386" y="96" name="KZRSDNJA"/>
      <point x="386" y="0" type="curve" name="DGBUDEGO"/>
      <point x="440" y="0" name="WXRKMHTY"/>
      <point x="497" y="0" name="RMMTBTEY"/>
      <point x="551" y="0" type="curve" name="CHPIVMHE"/>
      <point x="551" y="104" name="ZKOMVYUD"/>
      <point x="551" y="210" name="IPCURELS"/>
      <point x="551" y="314" type="curve" smooth="yes" name="TEHFCYUL"/>
      <point x="551" y="449" name="LWXNJAUR"/>
      <point x="472" y="531" name="OYKXYQUX"/>
      <point x="358" y="531" type="curve" smooth="yes" name="EXZIYJAS"/>
      <point x="306" y="531" name="AXZVZJLF"/>
      <point x="261" y="516" name="UHEOQKXP"/>
      <point x="225" y="491" type="curve" name="LWHFTWDW"/>
      <point x="225" y="570" name="KZGSUTED"/>
      <point x="225" y="651" name="OLPLTJUH"/>
      <point x="225" y="730" type="curve" name="OQVNNGIA"/>
      <point x="171" y="730" name="JAYXLAGH"/>
      <point x="114" y="730" name="QOAXHCQD"/>
      <point x="60" y="730" type="curve" name="BLPHWWVW"/>
      <point x="60" y="489" name="AMEIBDMM"/>
      <point x="60" y="241" name="EXWLXELT"/>
    </contour>
  </outline>
</glyph>
<glyph name="i" format="2">
  <advance width="285"/>
  <unicode hex="0069"/>
  <anchor x="142.0" y="779" name="above"/>
  <anchor x="142.0" y="0" name="below"/>
  <outline>
    <contour>
      <point x="143" y="576" type="curve" name="MFYDIXCL"/>
      <point x="199" y="576" name="YHXOTUQW"/>
      <point x="246" y="622" name="LEGGKHQF"/>
      <point x="246" y="678" type="curve" smooth="yes" name="VPYRDKJA"/>
      <point x="246" y="733" name="ZKCZZAAD"/>
      <point x="199" y="779" name="BPKXXAUV"/>
      <point x="143" y="779" type="curve" smooth="yes" name="ZFVOPDIU"/>
      <point x="85" y="779" name="JMDYYXOK"/>
      <point x="39" y="733" name="CDXKRNJX"/>
      <point x="39" y="678" type="curve" smooth="yes" name="SGNJWDEU"/>
      <point x="39" y="622" name="SHCPYDAL"/>
      <point x="85" y="576" name="MBFODIXL"/>
      <point x="143" y="576" type="curve" name="AEIHCCUM"/>
      <point x="143" y="576" name="WVAFPCOV"/>
      <point x="143" y="576" name="SPIFYYRO"/>
    </contour>
    <contour>
      <point x="60" y="0" type="curve" name="QTVLJIMR"/>
      <point x="114" y="0" name="NBBMGGFI"/>
      <point x="171" y="0" name="XLDKTNAH"/>
      <point x="225" y="0" type="curve" name="ERTANPAR"/>
      <point x="225" y="171" name="PEPXUEAZ"/>
      <point x="225" y="346" name="XAAQSOMJ"/>
      <point x="225" y="517" type="curve" name="IFZDNLSE"/>
      <point x="171" y="517" name="OGDQVJPF"/>
      <point x="114" y="517" name="EFWEFELE"/>
      <point x="60" y="517" type="curve" name="CSUSFZGA"/>
      <point x="60" y="346" name="RSMIVPLL"/>
      <point x="60" y="171" name="FBFMTQFQ"/>
    </contour>
  </outline>
</glyph>
<glyph name="j" format="2">
  <advance width="303"/>
  <unicode hex="006A"/>
  <outline>
    <contour>
      <point x="163" y="576" type="curve" name="WZBGSAGU"/>
      <point x="219" y="576" name="LMHZXALM"/>
      <point x="266" y="622" name="NDBDBNFT"/>
      <point x="266" y="678" type="curve" smooth="yes" name="CVFCTQVA"/>
      <point x="266" y="733" name="LQWNUIER"/>
      <point x="219" y="779" name="JCHSDIDT"/>
      <point x="163" y="779" type="curve" smooth="yes" name="BBGXHFGW"/>
      <point x="105" y="779" name="WCLRVEFO"/>
      <point x="59" y="733" name="AXSYLHZI"/>
      <point x="59" y="678" type="curve" smooth="yes" name="WKGWCMZK"/>
      <point x="59" y="622" name="XOPFRXJI"/>
      <point x="105" y="576" name="GYDLXZWD"/>
      <point x="163" y="576" type="curve" name="HANPLPHM"/>
      <point x="163" y="576" name="MSDSKXWL"/>
      <point x="163" y="576" name="NYSHXUQN"/>
    </contour>
    <contour>
      <point x="79" y="32" type="curve" smooth="yes" name="OORJDSIB"/>
      <point x="79" y="-23" name="SSVGJARQ"/>
      <point x="56" y="-37" name="RGEDSHWB"/>
      <point x="-8" y="-23" type="curve" name="YEMLXGMO"/>
      <point x="-8" y="-70" name="YNWQAIMW"/>
      <point x="-8" y="-119" name="POJPFUBP"/>
      <point x="-8" y="-166" type="curve" name="BNTSWGOD"/>
      <point x="145" y="-191" name="PBGQNZZU"/>
      <point x="245" y="-149" name="CUMAVGVP"/>
      <point x="245" y="19" type="curve" smooth="yes" name="ROBTXTBF"/>
      <point x="245" y="183" name="JWCPMSXS"/>
      <point x="245" y="353" name="DVELBPRE"/>
      <point x="245" y="517" type="curve" name="ETKMPFWX"/>
      <point x="191" y="517" name="NLHUSTHJ"/>
      <point x="134" y="517" name="ATOIPURN"/>
      <point x="80" y="517" type="curve" name="OCVAHJQM"/>
      <point x="80" y="357" name="BZHCHJBP"/>
      <point x="79" y="192" name="GUHTNUYP"/>
    </contour>
  </outline>
</glyph>
<glyph name="k" format="2">
  <advance width="571"/>
  <unicode hex="006B"/>
  <outline>
    <contour>
      <point x="60" y="0" type="curve" name="PTKDLPNZ"/>
      <point x="114" y="0" name="YSOSRBFL"/>
      <point x="171" y="0" name="TTSRLWUX"/>
      <point x="225" y="0" type="curve" name="WMHDVEWX"/>
      <point x="225" y="71" name="DPSXKATZ"/>
      <point x="225" y="144" name="CUIIFFWF"/>
      <point x="225" y="215" type="curve" name="HDIZVOOW"/>
      <point x="274" y="144" name="YFMECBMR"/>
      <point x="326" y="71" name="LWADNZZF"/>
      <point x="375" y="0" type="curve" name="EBBDZSIO"/>
      <point x="440" y="0" name="QCUFHJRN"/>
      <point x="506" y="0" name="QEVBQAGT"/>
      <point x="571" y="0" type="curve" name="UKHHFEVQ"/>
      <point x="505" y="92" name="OEWIZBSV"/>
      <point x="437" y="187" name="SOWATGWR"/>
      <point x="371" y="279" type="curve" name="CMXPAQTI"/>
      <point x="434" y="358" name="SWWZFMGD"/>
      <point x="499" y="438" name="JDCAHXGZ"/>
      <point x="562" y="517" type="curve" name="DGXIZENL"/>
      <point x="498" y="517" name="ATBLTZCJ"/>
      <point x="433" y="517" name="AHCOXVSR"/>
      <point x="369" y="517" type="curve" name="UGWPUHVP"/>
      <point x="321" y="456" name="ENBACHEM"/>
      <point x="273" y="393" name="DBYVMIZR"/>
      <point x="225" y="332" type="curve" name="COCXMYYT"/>
      <point x="225" y="463" name="GMHQZHES"/>
      <point x="225" y="599" name="FBVKIXSN"/>
      <point x="225" y="730" type="curve" name="SOTLYGIC"/>
      <point x="171" y="730" name="AXLVBDDT"/>
      <point x="114" y="730" name="QUCEDNYN"/>
      <point x="60" y="730" type="curve" name="YJHQDBZI"/>
      <point x="60" y="489" name="RHOMJBYR"/>
      <point x="60" y="241" name="VOJUDSUY"/>
    </contour>
  </outline>
</glyph>
<glyph name="l" format="2">
  <advance width="285"/>
  <unicode hex="006C"/>
  <outline>
    <contour>
      <point x="60" y="0" type="curve" name="HEDYOXKG"/>
      <point x="114" y="0" name="CRUROBGN"/>
      <point x="171" y="0" name="DKVGCVEM"/>
      <point x="225" y="0" type="curve" name="SIYNMLDM"/>
      <point x="225" y="241" name="GUGNBGGM"/>
      <point x="225" y="489" name="XRZXJFTY"/>
      <point x="225" y="730" type="curve" name="EZRSWQHZ"/>
      <point x="171" y="730" name="HBDJXUCZ"/>
      <point x="114" y="730" name="CWYTUWHC"/>
      <point x="60" y="730" type="curve" name="WRCRGCXT"/>
      <point x="60" y="489" name="UCBFXEHA"/>
      <point x="60" y="241" name="OZJJCSBN"/>
    </contour>
  </outline>
</glyph>
<glyph name="m" format="2">
  <advance width="867"/>
  <unicode hex="006D"/>
  <outline>
    <contour>
      <point x="55" y="0" type="curve" name="QIFWDKGB"/>
      <point x="109" y="0" name="SSDAOPHG"/>
      <point x="166" y="0" name="QHVZKBRH"/>
      <point x="220" y="0" type="curve" name="KMJNADXF"/>
      <point x="220" y="100" name="EDEWVLSH"/>
      <point x="220" y="204" name="PFKWYLLT"/>
      <point x="220" y="304" type="curve" smooth="yes" name="LWPKIHNU"/>
      <point x="220" y="352" name="LUAUPGBO"/>
      <point x="246" y="381" name="VKSSWIYT"/>
      <point x="290" y="381" type="curve" smooth="yes" name="ZCLKZNZU"/>
      <point x="335" y="381" name="AOHNFSYA"/>
      <point x="355" y="349" name="CQSUXZIM"/>
      <point x="355" y="304" type="curve" smooth="yes" name="NOHIOVHP"/>
      <point x="355" y="204" name="MALYYFSG"/>
      <point x="355" y="100" name="NDLLINZL"/>
      <point x="355" y="0" type="curve" name="XKNHXTRC"/>
      <point x="409" y="0" name="TCYEYUND"/>
      <point x="466" y="0" name="MKEZWELI"/>
      <point x="520" y="0" type="curve" name="TQIDMUOX"/>
      <point x="520" y="100" name="QMWHZVBV"/>
      <point x="520" y="204" name="GPLZZBVI"/>
      <point x="520" y="304" type="curve" smooth="yes" name="NWHXKFOL"/>
      <point x="520" y="352" name="TTWYLVER"/>
      <point x="546" y="381" name="UZQJSQZO"/>
      <point x="590" y="381" type="curve" smooth="yes" name="QYQUUQXE"/>
      <point x="635" y="381" name="CEJDPLZV"/>
      <point x="655" y="349" name="IFINZUJJ"/>
      <point x="655" y="304" type="curve" smooth="yes" name="CJOVMNYV"/>
      <point x="655" y="204" name="SJNLUJUZ"/>
      <point x="655" y="100" name="BJKEUZIJ"/>
      <point x="655" y="0" type="curve" name="YMOMMTWL"/>
      <point x="709" y="0" name="SEVRQVGL"/>
      <point x="766" y="0" name="LRDCTTMX"/>
      <point x="820" y="0" type="curve" name="HWYJCHLA"/>
      <point x="820" y="107" name="LFTRVMWG"/>
      <point x="820" y="217" name="MMNBICOX"/>
      <point x="820" y="324" type="curve" smooth="yes" name="IFJOYMTG"/>
      <point x="820" y="453" name="ZRUPLSSR"/>
      <point x="742" y="531" name="DKHEUKCM"/>
      <point x="621" y="531" type="curve" smooth="yes" name="HUUPFQMN"/>
      <point x="563" y="531" name="BVBFIDJZ"/>
      <point x="507" y="513" name="NZSRFGBA"/>
      <point x="465" y="482" type="curve" name="MYONGPQT"/>
      <point x="435" y="514" name="LIQZSIIH"/>
      <point x="393" y="531" name="PQISNYPT"/>
      <point x="344" y="531" type="curve" smooth="yes" name="XIXYFTJF"/>
      <point x="298" y="531" name="QELDSFZO"/>
      <point x="255" y="516" name="BHJMNBQT"/>
      <point x="220" y="491" type="curve" name="RSMKYBIK"/>
      <point x="220" y="500" name="KQQYLLUV"/>
      <point x="220" y="508" name="EONTRJJV"/>
      <point x="220" y="517" type="curve" name="CBOHNYGP"/>
      <point x="166" y="517" name="ATFLLTQH"/>
      <point x="109" y="517" name="ZBZDMFHD"/>
      <point x="55" y="517" type="curve" name="IWLGPOGG"/>
      <point x="55" y="346" name="RPOXKWWS"/>
      <point x="55" y="171" name="AZVXBQGL"/>
    </contour>
  </outline>
</glyph>
<glyph name="n" format="2">
  <advance width="604"/>
  <unicode hex="006E"/>
  <outline>
    <contour>
      <point x="50" y="0" type="curve" name="ZAXQUONO"/>
      <point x="105.0" y="0.0" name="NERAWOPO"/>
      <point x="160.0" y="0.0" name="RVHWJUPE"/>
      <point x="215" y="0" type="curve" name="JAGFQYQZ"/>
      <point x="215.0" y="105.0" name="GYRSYNVZ"/>
      <point x="215.0" y="210.0" name="LOAIYEMC"/>
      <point x="215" y="315" type="curve" name="DFNGMHCD"/>
      <point x="215" y="372.0" name="OFPEMRTG"/>
      <point x="248" y="402.0" name="OGYKINUH"/>
      <point x="310" y="402" type="curve" smooth="yes" name="IEXQZRUK"/>
      <point x="371" y="402.0" name="EHTJDUUS"/>
      <point x="396" y="367" name="QMFXMTUJ"/>
      <point x="396" y="315" type="curve" smooth="yes" name="RKYWIKIM"/>
      <point x="396.0" y="210.0" name="PPPVDYBX"/>
      <point x="396.0" y="105.0" name="ADWXHURS"/>
      <point x="396" y="0" type="curve" name="ZRROASSU"/>
      <point x="451.0" y="0.0" name="FBEQTIWH"/>
      <point x="506.0" y="0.0" name="NYVLEFYX"/>
      <point x="561" y="0" type="curve" name="AHYLRAOK"/>
      <point x="561.0" y="112.0" name="MAHHGEKV"/>
      <point x="561.0" y="227" name="FGUWNDBH"/>
      <point x="561" y="336" type="curve" smooth="yes" name="NFXUYEKT"/>
      <point x="561" y="471.0" name="SNFBYOHX"/>
      <point x="488" y="553.0" name="SHMGUTVQ"/>
      <point x="359" y="553" type="curve" smooth="yes" name="PMYUTGYX"/>
      <point x="301" y="553.0" name="FAZFROQF"/>
      <point x="250" y="536.0" name="BALYXCUM"/>
      <point x="215" y="492" type="curve" name="BPSAZVBS"/>
      <point x="215" y="540" type="line" name="FSXTXXYQ"/>
      <point x="160.0" y="540.0" name="BFTYQVUO"/>
      <point x="105.0" y="540.0" name="HTYDQDLD"/>
      <point x="50" y="540" type="curve" name="YDJAGORR"/>
      <point x="50.0" y="360" name="XPOYOYPP"/>
      <point x="50.0" y="180" name="SQZBHZBL"/>
    </contour>
  </outline>
</glyph>
<glyph name="o" format="2">
  <advance width="600"/>
  <unicode hex="006F"/>
  <anchor x="0" y="527" name="top"/>
  <outline>
    <contour>
      <point x="300" y="-16" type="curve" name="BHHNJKGN"/>
      <point x="456" y="-16" name="GGPZBMAE"/>
      <point x="573" y="102" name="MXYAJHYC"/>
      <point x="573" y="259" type="curve" smooth="yes" name="TIPKPBFG"/>
      <point x="573" y="417" name="CYBWWAJC"/>
      <point x="456" y="533" name="PJQTMGRR"/>
      <point x="300" y="533" type="curve" smooth="yes" name="CWDGRITY"/>
      <point x="144" y="533" name="TFAXDPDT"/>
      <point x="27" y="417" name="IFGXFASU"/>
      <point x="27" y="259" type="curve" smooth="yes" name="LKLMYJFT"/>
      <point x="27" y="102" name="MCTQPHGV"/>
      <point x="144" y="-16" name="KGCEYFCC"/>
      <point x="300" y="-16" type="curve" name="QARXVYCX"/>
      <point x="300" y="-16" name="YKJQOXTN"/>
      <point x="300" y="-16" name="YUGGLTWH"/>
    </contour>
    <contour>
      <point x="300" y="133" type="curve" name="BFNOCEOG"/>
      <point x="235" y="133" name="ZJHBUMCR"/>
      <point x="192" y="185" name="VAFLJIUN"/>
      <point x="192" y="259" type="curve" smooth="yes" name="JIZHHCPF"/>
      <point x="192" y="333" name="CKCCFZPZ"/>
      <point x="235" y="384" name="PQVDROQW"/>
      <point x="300" y="384" type="curve" smooth="yes" name="UREKXODW"/>
      <point x="365" y="384" name="GBNRUFIP"/>
      <point x="408" y="333" name="GTOZJHSX"/>
      <point x="408" y="259" type="curve" smooth="yes" name="YPWMWSGT"/>
      <point x="408" y="185" name="VORXEHSH"/>
      <point x="365" y="133" name="HFUUKCFK"/>
      <point x="300" y="133" type="curve" name="EVYSAIXP"/>
      <point x="300" y="133" name="VOTQUBNK"/>
      <point x="300" y="133" name="XLMJEXUY"/>
    </contour>
  </outline>
</glyph>
<glyph name="p" format="2">
  <advance width="620"/>
  <unicode hex="0070"/>
  <outline>
    <contour>
      <point x="220" y="-160" type="curve" name="JQDNGGOX"/>
      <point x="220" y="-97" name="HDLBQUXE"/>
      <point x="220" y="-33" name="XILNOOKV"/>
      <point x="220" y="30" type="curve" name="OMMBLGEF"/>
      <point x="253" y="2" name="BMBHSGQI"/>
      <point x="296" y="-14" name="SSQKZZMT"/>
      <point x="344" y="-14" type="curve" smooth="yes" name="OYDFRUCK"/>
      <point x="479" y="-14" name="SAUMJOFA"/>
      <point x="593" y="99" name="RRSDTJKR"/>
      <point x="593" y="259" type="curve" smooth="yes" name="TVGSKXMO"/>
      <point x="593" y="421" name="DNVXROWM"/>
      <point x="479" y="531" name="BRMPAQFM"/>
      <point x="345" y="531" type="curve" smooth="yes" name="IASEPPLS"/>
      <point x="297" y="531" name="NILANOYM"/>
      <point x="253" y="515" name="SBJYTSTE"/>
      <point x="220" y="488" type="curve" name="UPEQXKGY"/>
      <point x="220" y="498" name="SPMTMKGG"/>
      <point x="220" y="507" name="CWMFUKVO"/>
      <point x="220" y="517" type="curve" name="NXLDXJXD"/>
      <point x="166" y="517" name="NURXOJEP"/>
      <point x="109" y="517" name="CDFTNLIV"/>
      <point x="55" y="517" type="curve" name="GNHPPXLC"/>
      <point x="55" y="294" name="TGXQZNWN"/>
      <point x="55" y="63" name="YJHMEZCN"/>
      <point x="55" y="-160" type="curve" name="YKIGDLJR"/>
      <point x="109" y="-160" name="ZPJAIXTU"/>
      <point x="166" y="-160" name="WYPBOVLH"/>
    </contour>
    <contour>
      <point x="322" y="132" type="curve" name="UGQSTJBP"/>
      <point x="258" y="132" name="UERWIUBN"/>
      <point x="216" y="183" name="XQQWAZVN"/>
      <point x="216" y="259" type="curve" smooth="yes" name="EMEYJXFZ"/>
      <point x="216" y="335" name="HBVZYOOM"/>
      <point x="258" y="385" name="NKRRSLFD"/>
      <point x="322" y="385" type="curve" smooth="yes" name="OEDNKNEZ"/>
      <point x="387" y="385" name="ZKJRBGDF"/>
      <point x="428" y="336" name="CNNPKYVF"/>
      <point x="428" y="259" type="curve" smooth="yes" name="WHPRBUKO"/>
      <point x="428" y="182" name="BNKZFRQX"/>
      <point x="387" y="132" name="IYXLEQCE"/>
      <point x="322" y="132" type="curve" name="FVBXABWI"/>
      <point x="322" y="132" name="DIYBQHDC"/>
      <point x="322" y="132" name="EEQTYVUU"/>
    </contour>
  </outline>
</glyph>
<glyph name="q" format="2">
  <advance width="620"/>
  <unicode hex="0071"/>
  <outline>
    <contour>
      <point x="400.0" y="-160.0" type="line"/>
      <point x="400.0" y="131.0" type="line"/>
      <point x="448.0" y="261.0" type="line"/>
      <point x="400.0" y="361.0" type="line"/>
      <point x="400.0" y="517.0" type="line"/>
      <point x="565.0" y="517.0" type="line"/>
      <point x="565.0" y="-160.0" type="line"/>
    </contour>
    <contour>
      <point x="298.0" y="132.0" type="curve" smooth="yes"/>
      <point x="362.0" y="132.0"/>
      <point x="404.0" y="183.0"/>
      <point x="404.0" y="259.0" type="curve" smooth="yes"/>
      <point x="404.0" y="335.0"/>
      <point x="362.0" y="385.0"/>
      <point x="298.0" y="385.0" type="curve" smooth="yes"/>
      <point x="233.0" y="385.0"/>
      <point x="192.0" y="336.0"/>
      <point x="192.0" y="259.0" type="curve" smooth="yes"/>
      <point x="192.0" y="182.0"/>
      <point x="233.0" y="132.0"/>
    </contour>
    <contour>
      <point x="468.0" y="347.0" type="curve"/>
      <point x="468.0" y="173.0" type="line"/>
      <point x="468.0" y="70.0"/>
      <point x="384.0" y="-14.0"/>
      <point x="276.0" y="-14.0" type="curve" smooth="yes"/>
      <point x="141.0" y="-14.0"/>
      <point x="27.0" y="99.0"/>
      <point x="27.0" y="259.0" type="curve" smooth="yes"/>
      <point x="27.0" y="421.0"/>
      <point x="141.0" y="531.0"/>
      <point x="275.0" y="531.0" type="curve" smooth="yes"/>
      <point x="384.0" y="531.0"/>
      <point x="468.0" y="450.0"/>
    </contour>
  </outline>
</glyph>
<glyph name="r" format="2">
  <advance width="395"/>
  <unicode hex="0072"/>
  <anchor x="205.0" y="517" name="above"/>
  <anchor x="145" y="0" name="below"/>
  <outline>
    <contour>
      <point x="55" y="0" type="curve" name="KEAONEJX"/>
      <point x="109" y="0" name="ETJJKTXE"/>
      <point x="166" y="0" name="KTUKYOYQ"/>
      <point x="220" y="0" type="curve" name="XJLDOAOC"/>
      <point x="220" y="90" name="MNAEEHHA"/>
      <point x="220" y="183" name="UPOMFHLK"/>
      <point x="220" y="273" type="curve" smooth="yes" name="OJEODCSH"/>
      <point x="220" y="346" name="EQZHGAJL"/>
      <point x="269" y="381" name="ETPSOOXD"/>
      <point x="375" y="366" type="curve" name="MUZSXGKK"/>
      <point x="375" y="419" name="QYLHZSMZ"/>
      <point x="375" y="475" name="UHJHCZZC"/>
      <point x="375" y="528" type="curve" name="PDVNUZWP"/>
      <point x="314" y="534" name="HHWAVYIJ"/>
      <point x="261" y="518" name="HPYFYZVN"/>
      <point x="220" y="489" type="curve" name="XSSSTWTV"/>
      <point x="220" y="498" name="OQUVKYNJ"/>
      <point x="220" y="508" name="VXQPUROD"/>
      <point x="220" y="517" type="curve" name="TVOCSERS"/>
      <point x="166" y="517" name="GRVBRPLJ"/>
      <point x="109" y="517" name="PMESHKLO"/>
      <point x="55" y="517" type="curve" name="WUYDRBJY"/>
      <point x="55" y="346" name="VLGOHYPI"/>
      <point x="55" y="171" name="RIPWWVBS"/>
    </contour>
  </outline>
</glyph>
<glyph name="s" format="2">
  <advance width="475"/>
  <unicode hex="0073"/>
  <anchor x="248.0" y="525" name="above"/>
  <anchor x="240.0" y="-8" name="below"/>
  <outline>
    <contour>
      <point x="450" y="160" type="curve" name="DSOIMERU"/>
      <point x="450" y="352" name="JGRDWMDO"/>
      <point x="207" y="310" name="QJUEVPFF"/>
      <point x="207" y="365" type="curve" smooth="yes" name="EDMAFNFZ"/>
      <point x="207" y="406" name="VPKTIDOI"/>
      <point x="308" y="408" name="OLUZKWRW"/>
      <point x="421" y="354" type="curve" name="WRHDZEHC"/>
      <point x="421" y="405" name="ETZCBEPX"/>
      <point x="421" y="459" name="MINUVUNF"/>
      <point x="421" y="510" type="curve" name="MXPMWJYS"/>
      <point x="231" y="571" name="KNMRTWFA"/>
      <point x="39" y="507" name="SJVPQZGR"/>
      <point x="39" y="357" type="curve" smooth="yes" name="LRVOSPFN"/>
      <point x="39" y="170" name="EMWGKWBC"/>
      <point x="284" y="211" name="SSVVTQDX"/>
      <point x="284" y="154" type="curve" smooth="yes" name="SNQTURZD"/>
      <point x="284" y="107" name="DBBPABOV"/>
      <point x="160" y="115" name="TXTLIIEO"/>
      <point x="48" y="165" type="curve" name="WVDNSYRO"/>
      <point x="48" y="114" name="YAZHWUSV"/>
      <point x="48" y="60" name="IVLNSKIV"/>
      <point x="48" y="9" type="curve" name="EYVCLYFC"/>
      <point x="246" y="-48" name="DIQOFTXX"/>
      <point x="450" y="-6" name="FUMYLBYM"/>
      <point x="450" y="160" type="curve" name="YVYHVMAO"/>
      <point x="450" y="160" name="BGUKKMBR"/>
      <point x="450" y="160" name="IJZNOBVD"/>
    </contour>
  </outline>
</glyph>
<glyph name="t" format="2">
  <advance width="393"/>
  <unicode hex="0074"/>
  <outline>
    <contour>
      <point x="109" y="0" type="curve" name="TFGVHLVO"/>
      <point x="163" y="0" name="UCIURLEZ"/>
      <point x="220" y="0" name="VGTZHBVZ"/>
      <point x="274" y="0" type="curve" name="DZFFNPAM"/>
      <point x="274" y="122" name="MMNDVOSV"/>
      <point x="274" y="247" name="WGZWJTSN"/>
      <point x="274" y="369" type="curve" name="NPGXPVWG"/>
      <point x="305" y="369" name="VDYEAWXY"/>
      <point x="337" y="369" name="RSAQONDF"/>
      <point x="368" y="369" type="curve" name="MFSDADQF"/>
      <point x="368" y="418" name="TJBPQUSL"/>
      <point x="368" y="468" name="YKVLWXUH"/>
      <point x="368" y="517" type="curve" name="BFUDTFUI"/>
      <point x="337" y="517" name="AORCALHC"/>
      <point x="305" y="517" name="JTDLINLF"/>
      <point x="274" y="517" type="curve" name="FJXNOANE"/>
      <point x="274" y="563" name="ZNDXOTRH"/>
      <point x="274" y="609" name="IOPQDJEM"/>
      <point x="274" y="655" type="curve" name="XYDNCMMZ"/>
      <point x="220" y="655" name="HKPSLELA"/>
      <point x="163" y="655" name="XMXNZJIH"/>
      <point x="109" y="655" type="curve" name="HHSAXFEB"/>
      <point x="109" y="609" name="GGPTDLPN"/>
      <point x="109" y="563" name="AXKGOYES"/>
      <point x="109" y="517" type="curve" name="SVLCVIEL"/>
      <point x="82" y="517" name="CQTGMTJN"/>
      <point x="55" y="517" name="HDCYHEHH"/>
      <point x="28" y="517" type="curve" name="QKGKGZYP"/>
      <point x="28" y="468" name="BKDTFNAP"/>
      <point x="28" y="418" name="VTOFDKQG"/>
      <point x="28" y="369" type="curve" name="GBNQLGVJ"/>
      <point x="55" y="369" name="TYBCOTEP"/>
      <point x="82" y="369" name="GRBHLMTF"/>
      <point x="109" y="369" type="curve" name="GAKKHIAR"/>
      <point x="109" y="247" name="SOPRSCSM"/>
      <point x="109" y="122" name="NGPYWKYE"/>
    </contour>
  </outline>
</glyph>
<glyph name="u" format="2">
  <advance width="593"/>
  <unicode hex="0075"/>
  <outline>
    <contour>
      <point x="538" y="517" type="curve" name="ILLEPGDN"/>
      <point x="484" y="517" name="MKAWDJBL"/>
      <point x="427" y="517" name="FLFDSOTF"/>
      <point x="373" y="517" type="curve" name="JRWIXPKE"/>
      <point x="373" y="421" name="RHREPFVY"/>
      <point x="373" y="321" name="JYLNMLUR"/>
      <point x="373" y="225" type="curve" smooth="yes" name="SRLZZGOY"/>
      <point x="373" y="168" name="FIORPQYA"/>
      <point x="342" y="136" name="MQMRXPWR"/>
      <point x="289" y="136" type="curve" smooth="yes" name="DDIFXNZQ"/>
      <point x="236" y="136" name="VMZDRHJG"/>
      <point x="212" y="172" name="YHLXROVH"/>
      <point x="212" y="225" type="curve" smooth="yes" name="INQELMIM"/>
      <point x="212" y="321" name="WQQPEKLF"/>
      <point x="212" y="421" name="TJRLPLAI"/>
      <point x="212" y="517" type="curve" name="AKZUFZNW"/>
      <point x="158" y="517" name="HGBYSMVY"/>
      <point x="101" y="517" name="FLNZSDRW"/>
      <point x="47" y="517" type="curve" name="PAOMJEQB"/>
      <point x="47" y="413" name="RZNHZSSO"/>
      <point x="47" y="307" name="XSCSJPLJ"/>
      <point x="47" y="203" type="curve" smooth="yes" name="HRPRSELP"/>
      <point x="47" y="68" name="MMGEXFFZ"/>
      <point x="126" y="-14" name="MZWKJVEA"/>
      <point x="240" y="-14" type="curve" smooth="yes" name="XEBDGMJE"/>
      <point x="292" y="-14" name="GEKEUNVY"/>
      <point x="337" y="1" name="HCGMHDMA"/>
      <point x="373" y="26" type="curve" name="VKYXBRWZ"/>
      <point x="373" y="17" name="YBHRHOKW"/>
      <point x="373" y="9" name="YHJQOUVF"/>
      <point x="373" y="0" type="curve" name="QQGCNSRD"/>
      <point x="427" y="0" name="JQDUONJQ"/>
      <point x="484" y="0" name="BEIQZBNV"/>
      <point x="538" y="0" type="curve" name="UKWXMWOK"/>
      <point x="538" y="171" name="MGEGYJRT"/>
      <point x="538" y="346" name="WIFRDIAE"/>
    </contour>
  </outline>
</glyph>
<glyph name="v" format="2">
  <advance width="540"/>
  <unicode hex="0076"/>
  <outline>
    <contour>
      <point x="174" y="0" type="curve" name="CETQLMRB"/>
      <point x="237" y="0" name="OALJVTRG"/>
      <point x="303" y="0" name="GXPJTXCW"/>
      <point x="366" y="0" type="curve" name="EGUURNPT"/>
      <point x="425" y="171" name="RPAANMYB"/>
      <point x="486" y="346" name="CWZGDTWK"/>
      <point x="545" y="517" type="curve" name="DPNIFOCN"/>
      <point x="489" y="517" name="PZEUUZQH"/>
      <point x="431" y="517" name="ZXDZIRBM"/>
      <point x="375" y="517" type="curve" name="IVKSSRBH"/>
      <point x="341" y="412" name="YWSLHPDJ"/>
      <point x="306" y="305" name="ARKSXQZZ"/>
      <point x="272" y="200" type="curve" name="HPICQEGE"/>
      <point x="238" y="305" name="HXXUYPYV"/>
      <point x="202" y="412" name="ILSGCJVN"/>
      <point x="168" y="517" type="curve" name="SITDMBLD"/>
      <point x="111" y="517" name="ASAJEXVH"/>
      <point x="52" y="517" name="NDFBLJOE"/>
      <point x="-5" y="517" type="curve" name="VHDXMILN"/>
      <point x="54" y="346" name="SAOFCSKK"/>
      <point x="115" y="171" name="QIZEBTCD"/>
    </contour>
  </outline>
</glyph>
<glyph name="w" format="2">
  <advance width="774"/>
  <unicode hex="0077"/>
  <outline>
    <contour>
      <point x="160" y="0" type="curve" name="TYADESJX"/>
      <point x="213" y="0" name="PLWMYIKM"/>
      <point x="269" y="0" name="XPRVLDLZ"/>
      <point x="322" y="0" type="curve" name="AKQFWWHN"/>
      <point x="343" y="82" name="LSXUVIKR"/>
      <point x="366" y="167" name="CSKWDKIK"/>
      <point x="387" y="249" type="curve" name="QPMSIVSV"/>
      <point x="408" y="167" name="WYBDCZJW"/>
      <point x="431" y="82" name="CDUQXLDH"/>
      <point x="452" y="0" type="curve" name="VQMOQUZK"/>
      <point x="505" y="0" name="IJPTLRRN"/>
      <point x="561" y="0" name="NZGTOKHI"/>
      <point x="614" y="0" type="curve" name="FDSWUESH"/>
      <point x="666" y="171" name="WXXXCXXB"/>
      <point x="719" y="346" name="FPWPOWTX"/>
      <point x="771" y="517" type="curve" name="HPBEFSOG"/>
      <point x="717" y="517" name="PPEEMWQZ"/>
      <point x="661" y="517" name="MRFQVFLY"/>
      <point x="607" y="517" type="curve" name="GSWYCEUZ"/>
      <point x="581" y="423" name="LWBVZNKP"/>
      <point x="553" y="325" name="PYPIDUSI"/>
      <point x="527" y="231" type="curve" name="YSNHQWQV"/>
      <point x="505" y="325" name="CCBEOJRY"/>
      <point x="481" y="423" name="AGAQKAFE"/>
      <point x="459" y="517" type="curve" name="NOIYVNSJ"/>
      <point x="412" y="517" name="PQBZMNTS"/>
      <point x="365" y="517" name="WFQONGVT"/>
      <point x="318" y="517" type="curve" name="IVYKHCCN"/>
      <point x="296" y="424" name="DESCLUKH"/>
      <point x="272" y="327" name="YAQKDKKY"/>
      <point x="250" y="234" type="curve" name="WHIXWSZD"/>
      <point x="224" y="327" name="XOWANWZL"/>
      <point x="196" y="424" name="XNAPJWDF"/>
      <point x="170" y="517" type="curve" name="TRQBXZNO"/>
      <point x="115" y="517" name="ZDSSPGWN"/>
      <point x="58" y="517" name="LGHKMMZA"/>
      <point x="3" y="517" type="curve" name="MQSXSAOY"/>
      <point x="55" y="346" name="WWCFXYQX"/>
      <point x="108" y="171" name="EDUKVOXF"/>
    </contour>
  </outline>
</glyph>
<glyph name="x" format="2">
  <advance width="540"/>
  <unicode hex="0078"/>
  <outline>
    <contour>
      <point x="13" y="517" type="curve" name="YWYLSNFM"/>
      <point x="65" y="434" name="GGGJGMLL"/>
      <point x="119" y="348" name="MKEDDLXE"/>
      <point x="171" y="265" type="curve" name="OTWGCPOD"/>
      <point x="116" y="178" name="TNHDSCHT"/>
      <point x="60" y="87" name="VYLSTWTL"/>
      <point x="5" y="0" type="curve" name="BLLMAAHJ"/>
      <point x="65" y="0" name="RJGJXOQZ"/>
      <point x="127" y="0" name="UOKIJGCA"/>
      <point x="187" y="0" type="curve" name="EXKISSJB"/>
      <point x="214" y="45" name="IDIPZEPJ"/>
      <point x="243" y="92" name="NQBPOCIL"/>
      <point x="270" y="137" type="curve" name="XKQODYBS"/>
      <point x="297" y="92" name="MCJUZTTH"/>
      <point x="324" y="45" name="DYKGSBWW"/>
      <point x="351" y="0" type="curve" name="FWTNNEDL"/>
      <point x="412" y="0" name="VVKQMQDQ"/>
      <point x="474" y="0" name="APZTNWHD"/>
      <point x="535" y="0" type="curve" name="GOMWDLZR"/>
      <point x="481" y="89" name="CWGMIIXI"/>
      <point x="424" y="181" name="NWDNXBDG"/>
      <point x="370" y="270" type="curve" name="CIYQFXAZ"/>
      <point x="422" y="352" name="ENRTTSJJ"/>
      <point x="477" y="435" name="ICMEFRNA"/>
      <point x="529" y="517" type="curve" name="IIIKFRRS"/>
      <point x="469" y="517" name="NIKTAASS"/>
      <point x="407" y="517" name="VFFLRZWS"/>
      <point x="347" y="517" type="curve" name="HXOMCBEA"/>
      <point x="322" y="477" name="GUFEDRXP"/>
      <point x="296" y="436" name="ERRTFVKH"/>
      <point x="271" y="396" type="curve" name="DOLXHODZ"/>
      <point x="247" y="436" name="NIKQIDGT"/>
      <point x="221" y="477" name="OPQNJGFZ"/>
      <point x="197" y="517" type="curve" name="NPRLDSUX"/>
      <point x="136" y="517" name="XWCQQSNU"/>
      <point x="74" y="517" name="QZAWLYAI"/>
    </contour>
  </outline>
</glyph>
<glyph name="y" format="2">
  <advance width="540"/>
  <unicode hex="0079"/>
  <anchor x="270.0" y="517" name="above"/>
  <anchor x="220.0" y="-160" name="below"/>
  <outline>
    <contour>
      <point x="103" y="-160" type="curve" name="KBUDZTFT"/>
      <point x="160" y="-160" name="LPCLDZUC"/>
      <point x="219" y="-160" name="XNXJMJVV"/>
      <point x="276" y="-160" type="curve" name="CCEEIUKT"/>
      <point x="365" y="63" name="JUPQFALI"/>
      <point x="456" y="294" name="MALEZTSB"/>
      <point x="545" y="517" type="curve" name="VOEIYFBQ"/>
      <point x="488" y="517" name="LXFTZADU"/>
      <point x="430" y="517" name="NUPYNWPM"/>
      <point x="373" y="517" type="curve" name="OZVDSWGR"/>
      <point x="341" y="431" name="XWENTNBS"/>
      <point x="307" y="342" name="TTBVAUVN"/>
      <point x="275" y="256" type="curve" name="DKUPOJIG"/>
      <point x="240" y="342" name="BVHCKGOZ"/>
      <point x="205" y="431" name="XZPLRCHD"/>
      <point x="170" y="517" type="curve" name="YOFTODSG"/>
      <point x="112" y="517" name="BRVRUOJV"/>
      <point x="53" y="517" name="YWLVKCAE"/>
      <point x="-5" y="517" type="curve" name="GVOXODZL"/>
      <point x="58" y="364" name="CODDJVIU"/>
      <point x="123" y="205" name="XCADPHHG"/>
      <point x="186" y="52" type="curve" name="XTSFSHKL"/>
      <point x="159" y="-18" name="PXFWMHWU"/>
      <point x="130" y="-90" name="YHMRAINV"/>
    </contour>
  </outline>
</glyph>
<glyph name="z" format="2">
  <advance width="490"/>
  <unicode hex="007A"/>
  <anchor x="245.0" y="517" name="above"/>
  <anchor x="245.0" y="0" name="below"/>
  <outline>
    <contour>
      <point x="40" y="0" type="curve" name="TVLKFBCK"/>
      <point x="175" y="0" name="ZELQWSER"/>
      <point x="315" y="0" name="GVMPHEUJ"/>
      <point x="450" y="0" type="curve" name="WCGMFQHT"/>
      <point x="450" y="47" name="GBEMKWTI"/>
      <point x="450" y="95" name="XAWXJXJB"/>
      <point x="450" y="142" type="curve" name="GBMWTNHF"/>
      <point x="381" y="142" name="QIDEYQZL"/>
      <point x="311" y="142" name="YQLPIWPY"/>
      <point x="242" y="142" type="curve" name="XZHYWLDW"/>
      <point x="311" y="219" name="KZBJJUEU"/>
      <point x="381" y="297" name="HAIAWNCO"/>
      <point x="450" y="374" type="curve" name="EJXRRQLG"/>
      <point x="450" y="421" name="JFQOEWUW"/>
      <point x="450" y="470" name="KGUXNBEF"/>
      <point x="450" y="517" type="curve" name="ZEVVXYUU"/>
      <point x="315" y="517" name="TIUBBZED"/>
      <point x="175" y="517" name="KBCCPOYV"/>
      <point x="40" y="517" type="curve" name="CEDEZLLH"/>
      <point x="40" y="470" name="DEXYNGCO"/>
      <point x="40" y="421" name="BZCOZIZW"/>
      <point x="40" y="374" type="curve" name="OJBTEVJI"/>
      <point x="109" y="374" name="SPJOLJCH"/>
      <point x="179" y="374" name="GTHZDNWN"/>
      <point x="248" y="374" type="curve" name="INFHVAJQ"/>
      <point x="179" y="297" name="AALPWEWE"/>
      <point x="109" y="219" name="NCYBHWTX"/>
      <point x="40" y="142" type="curve" name="UPPKUISA"/>
      <point x="40" y="95" name="UGXLRMUA"/>
      <point x="40" y="47" name="BSCCSOFB"/>
    </contour>
  </outline>
</glyph>
<glyph name="braceleft" format="2">
  <advance width="461"/>
  <unicode hex="007B"/>
  <outline>
    <contour>
      <point x="40" y="237" type="curve" name="AOMNFJJR"/>
      <point x="58" y="237" name="AUADDTLP"/>
      <point x="77" y="237" name="TXAGUFYC"/>
      <point x="95" y="237" type="curve" smooth="yes" name="UPJXFQMK"/>
      <point x="116" y="237" name="XOCGZRAZ"/>
      <point x="127" y="228" name="JATHJIQI"/>
      <point x="127" y="209" type="curve" smooth="yes" name="XZZSQKEA"/>
      <point x="127" y="163" name="AJHGSREL"/>
      <point x="90" y="97" name="LUGFUUBQ"/>
      <point x="90" y="0" type="curve" smooth="yes" name="MYLILQGU"/>
      <point x="90" y="-143" name="PKJUWVJY"/>
      <point x="224" y="-204" name="GPEMEBBS"/>
      <point x="421" y="-161" type="curve" name="IGPQIPOZ"/>
      <point x="421" y="-113" name="ARUYXTYC"/>
      <point x="421" y="-63" name="IBLZVQKP"/>
      <point x="421" y="-15" type="curve" name="BFMSBQXW"/>
      <point x="299" y="-51" name="CZXRNZAG"/>
      <point x="252" y="-28" name="YTPFLAQP"/>
      <point x="252" y="20" type="curve" smooth="yes" name="NZIKNHVV"/>
      <point x="252" y="68" name="XMMEZKIY"/>
      <point x="291" y="133" name="ITXJKKTY"/>
      <point x="291" y="209" type="curve" smooth="yes" name="ZKIWRRSF"/>
      <point x="291" y="249" name="ATLOWZXT"/>
      <point x="274" y="285" name="SDELKZFT"/>
      <point x="231" y="304" type="curve" name="YYCMMTVV"/>
      <point x="274" y="324" name="KDQHHJOM"/>
      <point x="291" y="360" name="CAOZVVSW"/>
      <point x="291" y="400" type="curve" smooth="yes" name="QBWYWEDJ"/>
      <point x="291" y="476" name="JQLNHTHF"/>
      <point x="252" y="541" name="LLSGUEII"/>
      <point x="252" y="589" type="curve" smooth="yes" name="FSLHQPUH"/>
      <point x="252" y="637" name="JRVHMJMM"/>
      <point x="299" y="660" name="ZNSHSWDB"/>
      <point x="421" y="624" type="curve" name="UNHMIVMZ"/>
      <point x="421" y="672" name="WSRALYPR"/>
      <point x="421" y="722" name="NRQANGHK"/>
      <point x="421" y="770" type="curve" name="QDLXSZWA"/>
      <point x="224" y="813" name="KYRIFSHA"/>
      <point x="90" y="752" name="AHRUJYRH"/>
      <point x="90" y="609" type="curve" smooth="yes" name="SHZLXGYC"/>
      <point x="90" y="512" name="WRYIYGXC"/>
      <point x="127" y="446" name="QKVDRBRV"/>
      <point x="127" y="400" type="curve" smooth="yes" name="HHNFZMDT"/>
      <point x="127" y="381" name="YCJDTZNY"/>
      <point x="116" y="372" name="FPMYIPEP"/>
      <point x="95" y="372" type="curve" smooth="yes" name="PIYIOZUG"/>
      <point x="77" y="372" name="LQCWIRXV"/>
      <point x="58" y="372" name="LDQHSTQX"/>
      <point x="40" y="372" type="curve" name="MKUUQBUM"/>
      <point x="40" y="327" name="UGLVJCHO"/>
      <point x="40" y="282" name="OJWARDYE"/>
    </contour>
  </outline>
</glyph>
<glyph name="bar" format="2">
  <advance width="315"/>
  <unicode hex="007C"/>
  <outline>
    <contour>
      <point x="240" y="-160" type="curve" name="FVRPYRGG"/>
      <point x="240" y="147" name="BTFCRCOX"/>
      <point x="240" y="463" name="HCTSDFCW"/>
      <point x="240" y="770" type="curve" name="EFEXKYHH"/>
      <point x="186" y="770" name="PAWVOZGC"/>
      <point x="129" y="770" name="PCEIFMML"/>
      <point x="75" y="770" type="curve" name="XJKQRLYP"/>
      <point x="75" y="463" name="RUTFTPVN"/>
      <point x="75" y="147" name="LAQSTHNF"/>
      <point x="75" y="-160" type="curve" name="RCTRNQLX"/>
      <point x="129" y="-160" name="IVRHEIOS"/>
      <point x="186" y="-160" name="RXGDXHNO"/>
    </contour>
  </outline>
</glyph>
<glyph name="braceright" format="2">
  <advance width="461"/>
  <unicode hex="007D"/>
  <outline>
    <contour>
      <point x="170" y="211" type="curve" name="PWYFAAUH"/>
      <point x="170" y="135" name="MAIQNQHI"/>
      <point x="209" y="70" name="SYYNWWIS"/>
      <point x="209" y="22" type="curve" smooth="yes" name="DTMVTIZI"/>
      <point x="209" y="-26" name="HSPTCYVT"/>
      <point x="162" y="-49" name="IJNKPCWY"/>
      <point x="40" y="-13" type="curve" name="UBZVJGBQ"/>
      <point x="40" y="-61" name="CZFFTHJF"/>
      <point x="40" y="-111" name="RFJISCTR"/>
      <point x="40" y="-159" type="curve" name="LZHHJXBQ"/>
      <point x="237" y="-202" name="KDBMUUXM"/>
      <point x="371" y="-141" name="PUTYDDIE"/>
      <point x="371" y="2" type="curve" smooth="yes" name="CDIYLHIC"/>
      <point x="371" y="99" name="BWMGJTLC"/>
      <point x="334" y="165" name="NQQPUNWE"/>
      <point x="334" y="211" type="curve" smooth="yes" name="SVJDLLFF"/>
      <point x="334" y="230" name="QEMLLSMM"/>
      <point x="345" y="239" name="TSTSKSSS"/>
      <point x="366" y="239" type="curve" smooth="yes" name="YANTBYMH"/>
      <point x="384" y="239" name="KXYYKLRW"/>
      <point x="403" y="239" name="IODOUFLL"/>
      <point x="421" y="239" type="curve" name="XCDKVTIY"/>
      <point x="421" y="284" name="PCKUBSBA"/>
      <point x="421" y="329" name="TZTOLZTR"/>
      <point x="421" y="374" type="curve" name="CUFRSWSO"/>
      <point x="403" y="374" name="PXBCMMML"/>
      <point x="384" y="374" name="MLKUYBID"/>
      <point x="366" y="374" type="curve" smooth="yes" name="OTPTIDOE"/>
      <point x="345" y="374" name="JQBCFACB"/>
      <point x="334" y="383" name="FSHNEHCT"/>
      <point x="334" y="402" type="curve" smooth="yes" name="MUELKPXN"/>
      <point x="334" y="448" name="VWMUWRSE"/>
      <point x="371" y="514" name="DWXRNACM"/>
      <point x="371" y="611" type="curve" smooth="yes" name="XRFZBGHB"/>
      <point x="371" y="754" name="DEJWIDWX"/>
      <point x="237" y="815" name="SGYDDDGK"/>
      <point x="40" y="772" type="curve" name="PJJWGSMI"/>
      <point x="40" y="724" name="RQQQPNWR"/>
      <point x="40" y="674" name="ZPXCKPZP"/>
      <point x="40" y="626" type="curve" name="YSTFPXLV"/>
      <point x="162" y="662" name="LSLHESAU"/>
      <point x="209" y="639" name="WUKNXGLY"/>
      <point x="209" y="591" type="curve" smooth="yes" name="HEJOQHYV"/>
      <point x="209" y="543" name="ZJGYJKDP"/>
      <point x="170" y="478" name="RIYRYSAW"/>
      <point x="170" y="402" type="curve" smooth="yes" name="CMYRTQID"/>
      <point x="170" y="362" name="TSREGZPQ"/>
      <point x="187" y="326" name="WDXSXDIB"/>
      <point x="230" y="307" type="curve" name="PNLQSUXG"/>
      <point x="187" y="287" name="LMYTJTLC"/>
      <point x="170" y="251" name="VXPVWYOI"/>
      <point x="170" y="211" type="curve" name="MJCDTZGW"/>
      <point x="170" y="211" name="MSNFFTWH"/>
      <point x="170" y="211" name="FJRPKSXH"/>
    </contour>
  </outline>
</glyph>
<glyph name="asciitilde" format="2">
  <advance width="639"/>
  <unicode hex="007E"/>
  <outline>
    <contour>
      <point x="459" y="432" type="curve" name="QNFGPPHT"/>
      <point x="459" y="354" name="OTBHDNAW"/>
      <point x="439" y="324" name="COYYKKNI"/>
      <point x="409" y="324" type="curve" smooth="yes" name="DWUJTXQY"/>
      <point x="358" y="324" name="YVBKPSXV"/>
      <point x="332" y="439" name="GDZNAOFU"/>
      <point x="211" y="439" type="curve" smooth="yes" name="XUHBPVDQ"/>
      <point x="102" y="439" name="LKEZDCCL"/>
      <point x="35" y="342" name="EBEAMLIY"/>
      <point x="35" y="171" type="curve" name="PQUAYKKU"/>
      <point x="83" y="171" name="KHMNKZST"/>
      <point x="132" y="171" name="IBGLYKYM"/>
      <point x="180" y="171" type="curve" name="HVWBZNRB"/>
      <point x="180" y="249" name="ZGYVAWRB"/>
      <point x="200" y="279" name="UVRVOEPZ"/>
      <point x="230" y="279" type="curve" smooth="yes" name="HMQGSPYP"/>
      <point x="281" y="279" name="WORGXWLO"/>
      <point x="307" y="164" name="IURJQMBM"/>
      <point x="428" y="164" type="curve" smooth="yes" name="FISZJWKY"/>
      <point x="537" y="164" name="OBAIUIBF"/>
      <point x="604" y="261" name="IDRLXQVY"/>
      <point x="604" y="432" type="curve" name="LZHHEANX"/>
      <point x="556" y="432" name="BWIFCZSR"/>
      <point x="507" y="432" name="RMFBTPNN"/>
    </contour>
  </outline>
</glyph>
<glyph name="exclamdown" format="2">
  <advance width="291"/>
  <unicode hex="00A1"/>
  <outline>
    <contour>
      <point x="145" y="596" type="curve" name="BSNGELSQ"/>
      <point x="88" y="596" name="GZZFJNVW"/>
      <point x="40" y="549" name="EHEVVNNX"/>
      <point x="40" y="492" type="curve" smooth="yes" name="FEWFTFMD"/>
      <point x="40" y="436" name="GLQSKEWX"/>
      <point x="88" y="389" name="FPBVEZBH"/>
      <point x="145" y="389" type="curve" smooth="yes" name="UGEPVKLN"/>
      <point x="204" y="389" name="TMDQBIYO"/>
      <point x="251" y="436" name="HLHHCPIV"/>
      <point x="251" y="492" type="curve" smooth="yes" name="OEYZPADR"/>
      <point x="251" y="549" name="ZQQWEZBY"/>
      <point x="204" y="596" name="VWXFIPTI"/>
      <point x="145" y="596" type="curve" name="WTQDCUBF"/>
      <point x="145" y="596" name="KBKLMMHE"/>
      <point x="145" y="596" name="VFVIFIQP"/>
    </contour>
    <contour>
      <point x="228" y="335" type="curve" name="OKJIYTUH"/>
      <point x="174" y="335" name="FKASZJWD"/>
      <point x="117" y="335" name="TLHGODHY"/>
      <point x="63" y="335" type="curve" name="HSKGDQXI"/>
      <point x="61" y="191" name="TGPCDPFP"/>
      <point x="60" y="44" name="KYFKPMFY"/>
      <point x="58" y="-100" type="curve" name="JBMTAUAJ"/>
      <point x="116" y="-100" name="VOIEAQZK"/>
      <point x="175" y="-100" name="TEKEDQKN"/>
      <point x="233" y="-100" type="curve" name="OQVQCZHL"/>
      <point x="231" y="44" name="SQWGELIV"/>
      <point x="230" y="191" name="YJIVRTKS"/>
    </contour>
  </outline>
</glyph>
<glyph name="cent" format="2">
  <advance width="475"/>
  <unicode hex="00A2"/>
  <outline>
    <contour>
      <point x="168" y="-50" type="curve" name="GCNENFNU"/>
      <point x="216" y="-50" name="VCNOMSZL"/>
      <point x="265" y="-50" name="UXCYXSGH"/>
      <point x="313" y="-50" type="curve" name="GLSSLWNU"/>
      <point x="315" y="-14" name="DTJRHDMW"/>
      <point x="318" y="23" name="CLHKLKTH"/>
      <point x="320" y="59" type="curve" name="VFCNYLXH"/>
      <point x="354" y="60" name="IFNIZSSU"/>
      <point x="390" y="67" name="XZVLTWYW"/>
      <point x="428" y="78" type="curve" name="HBHDUIBT"/>
      <point x="428" y="129" name="IJXTHGLV"/>
      <point x="428" y="181" name="FRBCNLBK"/>
      <point x="428" y="232" type="curve" name="EVZQAZGL"/>
      <point x="312" y="177" name="EDUGVKMY"/>
      <point x="196" y="204" name="TULIEBLL"/>
      <point x="196" y="314" type="curve" smooth="yes" name="LRGQFMSC"/>
      <point x="196" y="424" name="NUPAFXAK"/>
      <point x="312" y="451" name="SCKHJIHA"/>
      <point x="428" y="396" type="curve" name="DLGRCIET"/>
      <point x="428" y="447" name="AQEDGLAP"/>
      <point x="428" y="499" name="ZRRXFMOC"/>
      <point x="428" y="550" type="curve" name="QLFLFFDQ"/>
      <point x="401" y="558" name="JJUXPFUU"/>
      <point x="374" y="564" name="PCCNVSDG"/>
      <point x="348" y="567" type="curve" name="YNOVCCXP"/>
      <point x="350" y="604" name="WMASYCFQ"/>
      <point x="353" y="643" name="LJLSMWCW"/>
      <point x="355" y="680" type="curve" name="BBUFTFIZ"/>
      <point x="307" y="680" name="CAVFJODF"/>
      <point x="258" y="680" name="ZPMIVEOL"/>
      <point x="210" y="680" type="curve" name="DQUXAUZT"/>
      <point x="207" y="639" name="ANIEERIP"/>
      <point x="205" y="596" name="QLNOUTQF"/>
      <point x="202" y="555" type="curve" name="KKGBFFPI"/>
      <point x="96" y="522" name="EHNZAEQH"/>
      <point x="27" y="434" name="LBATJHTL"/>
      <point x="27" y="314" type="curve" smooth="yes" name="QKSMLIFQ"/>
      <point x="27" y="205" name="XFDTTYUB"/>
      <point x="85" y="122" name="QGJAXSKB"/>
      <point x="176" y="83" type="curve" name="GCWAIUNX"/>
      <point x="173" y="39" name="YOGVREWO"/>
      <point x="171" y="-6" name="MLCDDXUK"/>
    </contour>
  </outline>
</glyph>
<glyph name="sterling" format="2">
  <advance width="561"/>
  <unicode hex="00A3"/>
  <outline>
    <contour>
      <point x="50" y="263" type="curve" name="SULDKOSJ"/>
      <point x="75" y="263" name="TZPVTQSH"/>
      <point x="101" y="263" name="RWRWYJKE"/>
      <point x="126" y="263" type="curve" name="YNDBIDRK"/>
      <point x="132" y="236" name="JNDKEPUY"/>
      <point x="136" y="212" name="XYCIXFGF"/>
      <point x="136" y="194" type="curve" smooth="yes" name="EAABCAXS"/>
      <point x="136" y="164" name="FYZJRARU"/>
      <point x="121" y="153" name="CWYBYHEG"/>
      <point x="87" y="153" type="curve" smooth="yes" name="PPTJKFQM"/>
      <point x="75" y="153" name="LMOBGOIU"/>
      <point x="62" y="153" name="VDVYBSRB"/>
      <point x="50" y="153" type="curve" name="FMAGTRKN"/>
      <point x="50" y="103" name="BYYPDTDD"/>
      <point x="50" y="50" name="IXDUIBFL"/>
      <point x="50" y="0" type="curve" name="ZVAQFCIO"/>
      <point x="204" y="0" name="SFCLLBYT"/>
      <point x="362" y="0" name="YRYPTODJ"/>
      <point x="516" y="0" type="curve" name="PPBFHAPL"/>
      <point x="516" y="50" name="VEGLHUNT"/>
      <point x="516" y="103" name="WFOLIKDM"/>
      <point x="516" y="153" type="curve" name="YKCZOUJV"/>
      <point x="445" y="153" name="ONNYPZXY"/>
      <point x="371" y="153" name="WOWILBOH"/>
      <point x="300" y="153" type="curve" name="LMVEVUIK"/>
      <point x="304" y="167" name="HOZJAWPP"/>
      <point x="306" y="182" name="PGCCUCWH"/>
      <point x="306" y="199" type="curve" smooth="yes" name="MEZUCZQE"/>
      <point x="306" y="220" name="ATPXKOIV"/>
      <point x="304" y="242" name="CYPYDDBT"/>
      <point x="301" y="263" type="curve" name="OIDOQTCA"/>
      <point x="359" y="263" name="FYEFLKMJ"/>
      <point x="418" y="263" name="IAURHHVZ"/>
      <point x="476" y="263" type="curve" name="ODHJFRWG"/>
      <point x="476" y="308" name="QCDHHQDE"/>
      <point x="476" y="353" name="QAQMABYZ"/>
      <point x="476" y="398" type="curve" name="DGJAVQSF"/>
      <point x="409" y="398" name="WQJMFEXV"/>
      <point x="340" y="398" name="GGIYBWON"/>
      <point x="273" y="398" type="curve" name="IEPIZBPU"/>
      <point x="268" y="421" name="JRPNGCKD"/>
      <point x="265" y="441" name="SALBHOYS"/>
      <point x="265" y="459" type="curve" smooth="yes" name="KVQOJACY"/>
      <point x="265" y="542" name="WRMPQAIS"/>
      <point x="371" y="559" name="OSUYOUMX"/>
      <point x="501" y="500" type="curve" name="OSLAZHOE"/>
      <point x="501" y="555" name="HLXTQSUD"/>
      <point x="501" y="611" name="NNUAIOZS"/>
      <point x="501" y="666" type="curve" name="BHVZZVHJ"/>
      <point x="310" y="731" name="YVRIEDSF"/>
      <point x="90" y="682" name="MEBQTGUI"/>
      <point x="90" y="491" type="curve" smooth="yes" name="GYUBTLTC"/>
      <point x="90" y="461" name="BBVIKRWI"/>
      <point x="94" y="429" name="QKUBHVAN"/>
      <point x="99" y="398" type="curve" name="BGFLHEIN"/>
      <point x="83" y="398" name="MCPPUCOA"/>
      <point x="66" y="398" name="VZGKWSRT"/>
      <point x="50" y="398" type="curve" name="CYGMWPEW"/>
      <point x="50" y="353" name="XXVHOLVY"/>
      <point x="50" y="308" name="DEUMNINH"/>
    </contour>
  </outline>
</glyph>
<glyph name="currency" format="2">
  <advance width="646"/>
  <unicode hex="00A4"/>
  <outline>
    <contour>
      <point x="125" y="35" type="curve" name="QWWDXDWB"/>
      <point x="155" y="64" name="MHWHDRZR"/>
      <point x="185" y="95" name="KAXRNOOL"/>
      <point x="215" y="124" type="curve" name="UXKZNPTW"/>
      <point x="247" y="110" name="EITZVDGD"/>
      <point x="283" y="102" name="CAFBURXB"/>
      <point x="322" y="102" type="curve" smooth="yes" name="ZWLGHYUX"/>
      <point x="362" y="102" name="FUTCCSGJ"/>
      <point x="399" y="110" name="SUYXNYKD"/>
      <point x="431" y="125" type="curve" name="JHTVQOTW"/>
      <point x="461" y="95" name="ZJBYJXGR"/>
      <point x="491" y="65" name="SMLEJMQY"/>
      <point x="521" y="35" type="curve" name="MYSLDHHJ"/>
      <point x="557" y="71" name="KUPEJGSI"/>
      <point x="595" y="109" name="ROUIBDYM"/>
      <point x="631" y="145" type="curve" name="AFTYYXUH"/>
      <point x="601" y="175" name="NXJFVSUT"/>
      <point x="571" y="205" name="VQPBFJTA"/>
      <point x="541" y="235" type="curve" name="VQCLNPVX"/>
      <point x="556" y="267" name="XOPTOAFJ"/>
      <point x="564" y="304" name="RUFIRFHZ"/>
      <point x="564" y="344" type="curve" smooth="yes" name="WQPTHJQH"/>
      <point x="564" y="383" name="JORJEBNQ"/>
      <point x="556" y="419" name="LGFSPRII"/>
      <point x="542" y="451" type="curve" name="BLDUWWBH"/>
      <point x="571" y="481" name="KMJDVEBI"/>
      <point x="602" y="511" name="DBQGOTRW"/>
      <point x="631" y="541" type="curve" name="FOUEFYOI"/>
      <point x="595" y="577" name="MFYXAJXT"/>
      <point x="557" y="615" name="MRAAOVGM"/>
      <point x="521" y="651" type="curve" name="BZINUECE"/>
      <point x="491" y="621" name="GRCCGYGG"/>
      <point x="461" y="591" name="ASZDYWFE"/>
      <point x="431" y="561" type="curve" name="JNUHGVHV"/>
      <point x="399" y="576" name="LENNYIKJ"/>
      <point x="362" y="584" name="ZAFOKZYL"/>
      <point x="322" y="584" type="curve" smooth="yes" name="EHPIRXMS"/>
      <point x="283" y="584" name="VASKXOBM"/>
      <point x="247" y="576" name="QPKVNPMK"/>
      <point x="215" y="562" type="curve" name="LFFWHIFG"/>
      <point x="185" y="591" name="JEAALLAV"/>
      <point x="155" y="622" name="JYNLPQSU"/>
      <point x="125" y="651" type="curve" name="XBLLFOLA"/>
      <point x="89" y="615" name="MZXLYFDH"/>
      <point x="51" y="577" name="VCAYRERG"/>
      <point x="15" y="541" type="curve" name="RUVNBQZV"/>
      <point x="44" y="511" name="ZSALAJAU"/>
      <point x="75" y="481" name="OOCUNYVZ"/>
      <point x="104" y="451" type="curve" name="QDEADDTN"/>
      <point x="90" y="419" name="OPWRETQJ"/>
      <point x="82" y="383" name="TZKTUJNG"/>
      <point x="82" y="344" type="curve" smooth="yes" name="HWHTFVZV"/>
      <point x="82" y="304" name="ZRUDXLIL"/>
      <point x="90" y="267" name="JROKQLRA"/>
      <point x="105" y="235" type="curve" name="GUFSYVIP"/>
      <point x="75" y="205" name="BJOWYGIY"/>
      <point x="45" y="175" name="OQNSFLOZ"/>
      <point x="15" y="145" type="curve" name="AVSULHDI"/>
      <point x="51" y="109" name="SPVLWUNV"/>
      <point x="89" y="71" name="EHQCIHPM"/>
    </contour>
    <contour>
      <point x="322" y="247" type="curve" name="ASCDSGPM"/>
      <point x="266" y="247" name="SMOSCZIG"/>
      <point x="232" y="285" name="KZEPNHQF"/>
      <point x="232" y="344" type="curve" smooth="yes" name="AFXAGTVG"/>
      <point x="232" y="403" name="UMZTYKCW"/>
      <point x="266" y="441" name="KKRKKNFM"/>
      <point x="322" y="441" type="curve" smooth="yes" name="TIWSWDSR"/>
      <point x="378" y="441" name="NVFXGSVM"/>
      <point x="415" y="403" name="VJEKMZEQ"/>
      <point x="415" y="344" type="curve" smooth="yes" name="SMAUGPZZ"/>
      <point x="415" y="285" name="HLTUGMCB"/>
      <point x="378" y="247" name="IYKBHCPC"/>
      <point x="322" y="247" type="curve" name="XVQPANOP"/>
      <point x="322" y="247" name="HYIZIKQA"/>
      <point x="322" y="247" name="BHNTLNQD"/>
    </contour>
  </outline>
</glyph>
<glyph name="yen" format="2">
  <advance width="599"/>
  <unicode hex="00A5"/>
  <outline>
    <contour>
      <point x="50" y="101" type="curve" name="IEJOMEFZ"/>
      <point x="103" y="101" name="TPVMJZHN"/>
      <point x="159" y="101" name="DDYLQKJT"/>
      <point x="212" y="101" type="curve" name="UVRDZEBY"/>
      <point x="212" y="68" name="JMOCLAUX"/>
      <point x="212" y="33" name="MBYZFOJO"/>
      <point x="212" y="0" type="curve" name="SOKXQFBQ"/>
      <point x="270" y="0" name="BLONIEXG"/>
      <point x="329" y="0" name="SICBTHUK"/>
      <point x="387" y="0" type="curve" name="WKFFSFWO"/>
      <point x="387" y="33" name="WYHZOAHA"/>
      <point x="387" y="68" name="AYHNHIFR"/>
      <point x="387" y="101" type="curve" name="KUWNDPLM"/>
      <point x="440" y="101" name="JTUNHVRP"/>
      <point x="496" y="101" name="GCAEZGEK"/>
      <point x="549" y="101" type="curve" name="UJOAWANP"/>
      <point x="549" y="139" name="YEQRPRLV"/>
      <point x="549" y="178" name="XSHAGSOY"/>
      <point x="549" y="216" type="curve" name="LLVHIREC"/>
      <point x="496" y="216" name="CLKAOMRG"/>
      <point x="440" y="216" name="SKJIXOYY"/>
      <point x="387" y="216" type="curve" name="VLIRBFTL"/>
      <point x="387" y="231" name="VHJGTAPA"/>
      <point x="387" y="246" name="QPMDVXUT"/>
      <point x="387" y="261" type="curve" name="UWJVGYYV"/>
      <point x="440" y="261" name="ALTRGLFP"/>
      <point x="496" y="261" name="UFQHGNCI"/>
      <point x="549" y="261" type="curve" name="VWVPIEIT"/>
      <point x="549" y="299" name="OWQIJTSD"/>
      <point x="549" y="338" name="OBYLILSO"/>
      <point x="549" y="376" type="curve" name="BKFTLDHN"/>
      <point x="509" y="376" name="NWQKMFXX"/>
      <point x="468" y="376" name="ZRJANEZH"/>
      <point x="428" y="376" type="curve" name="SDIVPWEZ"/>
      <point x="482" y="476" name="SWWBOIZJ"/>
      <point x="539" y="580" name="AJJXJZPD"/>
      <point x="593" y="680" type="curve" name="BDSDCHLA"/>
      <point x="532" y="680" name="UVSUJLYW"/>
      <point x="470" y="680" name="VROMNZCK"/>
      <point x="409" y="680" type="curve" name="QOUTDLWV"/>
      <point x="373" y="613" name="IAPOVOBS"/>
      <point x="337" y="543" name="SMKXPJOM"/>
      <point x="301" y="476" type="curve" name="UPZAHMGS"/>
      <point x="265" y="543" name="OSZSNTRN"/>
      <point x="228" y="613" name="BFXOQEPG"/>
      <point x="192" y="680" type="curve" name="GZSZXODS"/>
      <point x="131" y="680" name="KWJZKORB"/>
      <point x="67" y="680" name="UGOCYHDC"/>
      <point x="6" y="680" type="curve" name="WBQPJZPQ"/>
      <point x="60" y="580" name="MZNEYQOI"/>
      <point x="117" y="476" name="AWIDARMV"/>
      <point x="171" y="376" type="curve" name="ZXXHAVWM"/>
      <point x="131" y="376" name="ADWYKJUQ"/>
      <point x="90" y="376" name="SFJUXGVT"/>
      <point x="50" y="376" type="curve" name="HZCYDSVT"/>
      <point x="50" y="338" name="HRXUOQUZ"/>
      <point x="50" y="299" name="CVKKDJMY"/>
      <point x="50" y="261" type="curve" name="WWPTTOMJ"/>
      <point x="103" y="261" name="UXGEMDZJ"/>
      <point x="159" y="261" name="SOEZCKIP"/>
      <point x="212" y="261" type="curve" name="HAXNXEXT"/>
      <point x="212" y="246" name="PIFFMFPU"/>
      <point x="212" y="231" name="FNDSYMSE"/>
      <point x="212" y="216" type="curve" name="ZLDXEHCU"/>
      <point x="159" y="216" name="OGRTONVD"/>
      <point x="103" y="216" name="YXUGJPSK"/>
      <point x="50" y="216" type="curve" name="ESWLTIGV"/>
      <point x="50" y="178" name="KUASJHVL"/>
      <point x="50" y="139" name="DBFIBYMX"/>
    </contour>
  </outline>
</glyph>
<glyph name="brokenbar" format="2">
  <advance width="315"/>
  <unicode hex="00A6"/>
  <outline>
    <contour>
      <point x="240" y="340" type="curve" name="WYFFPXKK"/>
      <point x="240" y="482" name="OIYJTJKQ"/>
      <point x="240" y="628" name="XKFTXEPJ"/>
      <point x="240" y="770" type="curve" name="LLUDNSRG"/>
      <point x="186" y="770" name="SRBYHNCT"/>
      <point x="129" y="770" name="LRTFKXIA"/>
      <point x="75" y="770" type="curve" name="AYYAGIUW"/>
      <point x="75" y="628" name="EXLOEXHL"/>
      <point x="75" y="482" name="ZLHLPCSR"/>
      <point x="75" y="340" type="curve" name="BQQSIINI"/>
      <point x="129" y="340" name="VHGPWTXF"/>
      <point x="186" y="340" name="QXREXOAA"/>
    </contour>
    <contour>
      <point x="240" y="-160" type="curve" name="LGZYNUUM"/>
      <point x="240" y="-18" name="ZGXEXQUQ"/>
      <point x="240" y="128" name="HLAYFXXQ"/>
      <point x="240" y="270" type="curve" name="JYPWIWXB"/>
      <point x="186" y="270" name="ADVNSQEJ"/>
      <point x="129" y="270" name="TIORBDUA"/>
      <point x="75" y="270" type="curve" name="ICDTDZRC"/>
      <point x="75" y="128" name="OJSTRIHD"/>
      <point x="75" y="-18" name="LKREOYIN"/>
      <point x="75" y="-160" type="curve" name="ENSXZVKX"/>
      <point x="129" y="-160" name="ICCXDPAF"/>
      <point x="186" y="-160" name="VDCCRNKO"/>
    </contour>
  </outline>
</glyph>
<glyph name="section" format="2">
  <advance width="505"/>
  <unicode hex="00A7"/>
  <outline>
    <contour>
      <point x="462" y="64" type="curve" name="LRWCTAZD"/>
      <point x="462" y="125" name="ITXZEMWT"/>
      <point x="424" y="157" name="KYMZAEBF"/>
      <point x="385" y="177" type="curve" name="XKYIQWXI"/>
      <point x="446" y="205" name="YVOVLSKS"/>
      <point x="475" y="258" name="AXRFULOX"/>
      <point x="475" y="312" type="curve" smooth="yes" name="TAYVMFJY"/>
      <point x="475" y="478" name="TQSSOYLV"/>
      <point x="230" y="463" name="XTUDKHXC"/>
      <point x="230" y="520" type="curve" smooth="yes" name="EXRDZOCF"/>
      <point x="230" y="553" name="VLIMDEZP"/>
      <point x="298" y="569" name="PGOJHXIO"/>
      <point x="436" y="522" type="curve" name="DKRBKVRQ"/>
      <point x="436" y="571" name="FNQPFTGF"/>
      <point x="436" y="621" name="CGPCSRRN"/>
      <point x="436" y="670" type="curve" name="KXUDNYVY"/>
      <point x="228" y="730" name="RNOJUSWY"/>
      <point x="54" y="657" name="SGEDBHUB"/>
      <point x="54" y="510" type="curve" smooth="yes" name="EHCZMBNR"/>
      <point x="54" y="451" name="AJFAODMW"/>
      <point x="83" y="417" name="CQVQWXFQ"/>
      <point x="119" y="396" type="curve" name="GHRAIUDO"/>
      <point x="58" y="369" name="CSMVKFKQ"/>
      <point x="29" y="319" name="DNNJSJDV"/>
      <point x="29" y="267" type="curve" smooth="yes" name="XBAMYRXW"/>
      <point x="29" y="103" name="WYZWHBBG"/>
      <point x="286" y="118" name="KJZLZQVD"/>
      <point x="286" y="63" type="curve" smooth="yes" name="ONEBAIKD"/>
      <point x="286" y="28" name="SXXTXZSV"/>
      <point x="198" y="9" name="ESHPGOWX"/>
      <point x="60" y="59" type="curve" name="IFFSQWMS"/>
      <point x="60" y="10" name="PQWYUILR"/>
      <point x="60" y="-40" name="CSNOJGZN"/>
      <point x="60" y="-89" type="curve" name="GYJGKQZW"/>
      <point x="278" y="-159" name="EOTMBTRG"/>
      <point x="462" y="-76" name="VNTQGBJK"/>
      <point x="462" y="64" type="curve" name="GWOHQCVN"/>
      <point x="462" y="64" name="XSYQMZDH"/>
      <point x="462" y="64" name="CRTLOTRY"/>
    </contour>
    <contour>
      <point x="322" y="286" type="curve" name="VFMHZRDN"/>
      <point x="322" y="260" name="XLODUJDZ"/>
      <point x="300" y="241" name="ZSISGTRV"/>
      <point x="261" y="241" type="curve" smooth="yes" name="ZVHZRPLU"/>
      <point x="215" y="241" name="WMQOGYTF"/>
      <point x="182" y="265" name="QHQBYVPS"/>
      <point x="182" y="295" type="curve" smooth="yes" name="TGLDVJKJ"/>
      <point x="182" y="321" name="QMCGFFIR"/>
      <point x="204" y="340" name="OUKWSGHC"/>
      <point x="243" y="340" type="curve" smooth="yes" name="XKGIKFGM"/>
      <point x="289" y="340" name="AJWGRWAE"/>
      <point x="322" y="316" name="ECLOGZOT"/>
      <point x="322" y="286" type="curve" name="XEJURNUP"/>
      <point x="322" y="286" name="KYMNDUHU"/>
      <point x="322" y="286" name="LYLFBWDL"/>
    </contour>
  </outline>
</glyph>
<glyph name="dieresis" format="2">
  <advance width="577"/>
  <unicode hex="00A8"/>
  <anchor x="0" y="517" name="top"/>
  <anchor x="288" y="517" name="center"/>
  <outline>
    <contour>
      <point x="169" y="576" type="curve" name="MOAGTFMO"/>
      <point x="225" y="576" name="CLTAIXON"/>
      <point x="272" y="622" name="RYJPKTYJ"/>
      <point x="272" y="678" type="curve" smooth="yes" name="FBBAIIBF"/>
      <point x="272" y="733" name="JEKVWSRT"/>
      <point x="225" y="779" name="OZUXEIEA"/>
      <point x="169" y="779" type="curve" smooth="yes" name="RYOKKJXW"/>
      <point x="111" y="779" name="SNXRTDLB"/>
      <point x="65" y="733" name="IIERLXPL"/>
      <point x="65" y="678" type="curve" smooth="yes" name="AWRFIGEC"/>
      <point x="65" y="622" name="YGWPMMWS"/>
      <point x="111" y="576" name="WUIPCEIX"/>
      <point x="169" y="576" type="curve" name="PTIHGAIT"/>
      <point x="169" y="576" name="SRSPCZTZ"/>
      <point x="169" y="576" name="MSSHGJES"/>
    </contour>
    <contour>
      <point x="409" y="576" type="curve" name="KGXDWDIA"/>
      <point x="465" y="576" name="XAZFOJCF"/>
      <point x="512" y="622" name="SEEGMQCP"/>
      <point x="512" y="678" type="curve" smooth="yes" name="TYSCRMXS"/>
      <point x="512" y="733" name="NXCQDZXY"/>
      <point x="465" y="779" name="WBUCMMEF"/>
      <point x="409" y="779" type="curve" smooth="yes" name="ULFAGLCZ"/>
      <point x="351" y="779" name="IFIQCCWM"/>
      <point x="305" y="733" name="IGQAPVGI"/>
      <point x="305" y="678" type="curve" smooth="yes" name="IBYOVAFE"/>
      <point x="305" y="622" name="DVLENULB"/>
      <point x="351" y="576" name="YSMOSKCU"/>
      <point x="409" y="576" type="curve" name="WOAXPPCO"/>
      <point x="409" y="576" name="VCQOYZNB"/>
      <point x="409" y="576" name="CSSTQOWN"/>
    </contour>
  </outline>
</glyph>
<glyph name="copyright" format="2">
  <advance width="803"/>
  <unicode hex="00A9"/>
  <outline>
    <contour>
      <point x="406" y="-15" type="curve" name="QWLKOUYB"/>
      <point x="613" y="-15" name="SOJBPCIE"/>
      <point x="755" y="135" name="TMLSOHNJ"/>
      <point x="755" y="340" type="curve" smooth="yes" name="HTJWVKRU"/>
      <point x="755" y="545" name="WPQLTMVO"/>
      <point x="613" y="695" name="BURZNBGB"/>
      <point x="406" y="695" type="curve" smooth="yes" name="BXMXNAYO"/>
      <point x="198" y="695" name="AGCCMBSC"/>
      <point x="48" y="545" name="FFTNELOJ"/>
      <point x="48" y="340" type="curve" smooth="yes" name="YNUIORWR"/>
      <point x="48" y="135" name="IITHRSFX"/>
      <point x="198" y="-15" name="DQHYTZSK"/>
      <point x="406" y="-15" type="curve" name="HYFKYKRJ"/>
      <point x="406" y="-15" name="DNSSZCBW"/>
      <point x="406" y="-15" name="RLOZRRCI"/>
    </contour>
    <contour>
      <point x="406" y="86" type="curve" name="JLINBXDG"/>
      <point x="260" y="86" name="NJBHLIHO"/>
      <point x="156" y="193" name="EHGVZITA"/>
      <point x="156" y="340" type="curve" smooth="yes" name="FCPVVOHW"/>
      <point x="156" y="487" name="CGTWUFGE"/>
      <point x="260" y="594" name="SDYLAKFB"/>
      <point x="406" y="594" type="curve" smooth="yes" name="RGKPTCHI"/>
      <point x="551" y="594" name="BFMKURQN"/>
      <point x="647" y="487" name="OWJHWYDV"/>
      <point x="647" y="340" type="curve" smooth="yes" name="BUFCGEOK"/>
      <point x="647" y="193" name="VHUYCYJR"/>
      <point x="551" y="86" name="WGBUZQSN"/>
      <point x="406" y="86" type="curve" name="WOZBHECJ"/>
      <point x="406" y="86" name="CZBZVAQB"/>
      <point x="406" y="86" name="UEEKRKUR"/>
    </contour>
    <contour>
      <point x="246" y="340" type="curve" name="STAXAUDE"/>
      <point x="246" y="208" name="XZMDXYQY"/>
      <point x="365" y="131" name="ZIRMNJAH"/>
      <point x="516" y="176" type="curve" name="FZYAVUGF"/>
      <point x="516" y="213" name="YIEEQQHS"/>
      <point x="516" y="250" name="HISMTWDO"/>
      <point x="516" y="287" type="curve" name="TRTLVHYM"/>
      <point x="446" y="254" name="URPWCJGE"/>
      <point x="374" y="274" name="XBPRYBUD"/>
      <point x="374" y="340" type="curve" smooth="yes" name="YOKZWFSZ"/>
      <point x="374" y="406" name="NYRZFDBF"/>
      <point x="446" y="426" name="ATFSXJCQ"/>
      <point x="516" y="393" type="curve" name="YOKYHBNQ"/>
      <point x="516" y="430" name="GDWGZKIK"/>
      <point x="516" y="467" name="GRRMGENQ"/>
      <point x="516" y="504" type="curve" name="RELKQDLC"/>
      <point x="365" y="549" name="AUYXQQZH"/>
      <point x="246" y="472" name="YLPFMOYU"/>
      <point x="246" y="340" type="curve" name="JPNMJOTW"/>
      <point x="246" y="340" name="WKLMKYJZ"/>
      <point x="246" y="340" name="PBUBFKWP"/>
    </contour>
  </outline>
</glyph>
<glyph name="ordfeminine" format="2">
  <advance width="495"/>
  <unicode hex="00AA"/>
  <outline>
    <contour>
      <point x="310" y="285" type="curve" name="GSFEACLJ"/>
      <point x="356" y="285" name="VQFNQVYB"/>
      <point x="403" y="285" name="EFEGCQBS"/>
      <point x="449" y="285" type="curve" name="UBWMKIGO"/>
      <point x="449" y="415" name="QDRRXFSK"/>
      <point x="449" y="550" name="DAQWPNHD"/>
      <point x="449" y="680" type="curve" name="ZISOZXTT"/>
      <point x="403" y="680" name="NHBBJXXZ"/>
      <point x="356" y="680" name="QMGPIQVN"/>
      <point x="310" y="680" type="curve" name="IQAPJIZW"/>
      <point x="310" y="674" name="ZJJMPTWF"/>
      <point x="310" y="668" name="TUSNWYKB"/>
      <point x="310" y="662" type="curve" name="CACSFYPZ"/>
      <point x="287" y="681" name="OZNURPMG"/>
      <point x="257" y="692" name="RWISGEVA"/>
      <point x="225" y="692" type="curve" smooth="yes" name="BUCYZUQU"/>
      <point x="123" y="692" name="NYSVHSQU"/>
      <point x="36" y="609" name="SIVTPZCF"/>
      <point x="36" y="483" type="curve" smooth="yes" name="KDBZGZAZ"/>
      <point x="36" y="359" name="SWYRRTAZ"/>
      <point x="123" y="274" name="HTRSIKIJ"/>
      <point x="226" y="274" type="curve" smooth="yes" name="LUFGATNF"/>
      <point x="258" y="274" name="SGDCPLNA"/>
      <point x="287" y="285" name="EUPIMQJE"/>
      <point x="310" y="304" type="curve" name="VEBDHIFF"/>
      <point x="310" y="298" name="VSWVQQCL"/>
      <point x="310" y="291" name="OOUTREYW"/>
    </contour>
    <contour>
      <point x="244" y="400" type="curve" name="QOOMEDKX"/>
      <point x="202" y="400" name="LISJHDLE"/>
      <point x="175" y="433" name="GFJARUZB"/>
      <point x="175" y="483" type="curve" smooth="yes" name="UVLBJGLQ"/>
      <point x="175" y="534" name="ISIFSMPQ"/>
      <point x="202" y="565" name="YPMSCQKM"/>
      <point x="244" y="565" type="curve" smooth="yes" name="DCQCAMJV"/>
      <point x="286" y="565" name="RQQXGWHR"/>
      <point x="314" y="533" name="MZYEHZXR"/>
      <point x="314" y="483" type="curve" smooth="yes" name="GXQDHCHR"/>
      <point x="314" y="433" name="QANXNCTT"/>
      <point x="286" y="400" name="OEMEKUSP"/>
      <point x="244" y="400" type="curve" name="NYPDOCFL"/>
      <point x="244" y="400" name="YEIPQNHA"/>
      <point x="244" y="400" name="PFNSBHCC"/>
    </contour>
    <contour>
      <point x="56" y="103" type="curve" name="QFOIUJWM"/>
      <point x="186" y="103" name="FDMJLFWN"/>
      <point x="319" y="103" name="YIVWLODY"/>
      <point x="449" y="103" type="curve" name="IOBGXHUK"/>
      <point x="449" y="146" name="GZELHTBD"/>
      <point x="449" y="189" name="IDKFTNHH"/>
      <point x="449" y="232" type="curve" name="KWMOGLPT"/>
      <point x="319" y="232" name="SJBRHSMX"/>
      <point x="186" y="232" name="YORCNSXP"/>
      <point x="56" y="232" type="curve" name="YMHTGTBW"/>
      <point x="56" y="189" name="ARKZLWON"/>
      <point x="56" y="146" name="OMFMWTDX"/>
    </contour>
  </outline>
</glyph>
